<?xml version="1.0" standalone="no"?>
<!DOCTYPE svg PUBLIC "-//W3C//DTD SVG 1.1//EN" "http://www.w3.org/Graphics/SVG/1.1/DTD/svg11.dtd" >
<svg xmlns="http://www.w3.org/2000/svg" xmlns:xlink="http://www.w3.org/1999/xlink" version="1.1">
<metadata></metadata>
<defs>
<font id="square721_cn_btroman" horiz-adv-x="1024" >
<font-face units-per-em="2048" ascent="1638" descent="-410" />
<missing-glyph horiz-adv-x="512" />
<glyph horiz-adv-x="0" />
<glyph unicode="&#xd;" horiz-adv-x="512" />
<glyph unicode=" "  horiz-adv-x="512" />
<glyph unicode="&#x09;" horiz-adv-x="512" />
<glyph unicode="&#xa0;" horiz-adv-x="512" />
<glyph unicode="!" horiz-adv-x="512" d="M186 0v186h140v-186h-140zM186 391v1094h140v-1094h-140z" />
<glyph unicode="&#x22;" horiz-adv-x="569" d="M98 881v553h101v-553h-101zM371 881v553h102v-553h-102z" />
<glyph unicode="#" horiz-adv-x="1575" d="M117 479l39 109h325l101 276h-353l35 107h354l173 483h127l-168 -483h264l172 483h127l-170 -483h315l-37 -107h-317l-98 -276h340l-37 -109h-340l-170 -479h-129l172 479h-269l-172 -479h-127l170 479h-327zM612 588h267l96 276h-266z" />
<glyph unicode="$" d="M115 319v125h143v-98q0 -141 43 -190.5t160 -49.5h8v584q-198 22 -267 91.5t-69 242.5v33q0 161 16 233.5t54 114.5q38 43 101.5 66.5t164.5 31.5v125h100v-125q188 -16 260 -88.5t72 -249.5v-86h-143v60q0 139 -40 187.5t-148 51.5l-1 -551q192 -28 264 -110.5 t72 -282.5q0 -182 -14 -248.5t-49 -105.5q-40 -44 -106 -68t-167 -30v-166h-100v165q-200 10 -277 83t-77 255zM276 1020q0 -89 42 -129t151 -55v542q-108 -7 -150.5 -51t-42.5 -151v-156zM569 107q111 9 152 54.5t41 160.5v165q0 99 -43 141.5t-149 51.5z" />
<glyph unicode="%" horiz-adv-x="1669" d="M90 913v228q0 196 51 272t174 76h111q124 0 174.5 -76t50.5 -272v-228q0 -196 -50.5 -271t-174.5 -75h-111q-123 0 -174 75t-51 271zM219 926q0 -163 30.5 -202.5t121.5 -39.5q90 0 120.5 39.5t30.5 202.5v202q0 163 -30.5 202.5t-120.5 39.5q-91 0 -121.5 -39.5 t-30.5 -202.5v-202zM434 -18l678 1521h121l-678 -1521h-121zM1016 342v227q0 197 50.5 273t174.5 76h111q123 0 174 -76t51 -273v-227q0 -196 -51 -271t-174 -75h-111q-124 0 -174.5 75t-50.5 271zM1145 354q0 -161 30.5 -200t120.5 -39q91 0 121.5 39t30.5 200v205 q0 161 -30.5 200.5t-121.5 39.5q-90 0 -120.5 -39.5t-30.5 -200.5v-205z" />
<glyph unicode="&#x26;" horiz-adv-x="1063" d="M111 338v235q0 127 52.5 203.5t149.5 91.5l-57 76q-2 3 -5 7q-91 119 -91 259q0 150 88.5 221.5t273.5 71.5t253.5 -66.5t68.5 -252.5v-84h-129v76q0 119 -39.5 157.5t-151.5 38.5q-113 0 -164 -38.5t-51 -125.5q0 -36 13.5 -73.5t37.5 -69.5l424 -559v328h127v-469 l213 -271l-104 -102l-146 184q-30 -104 -112 -149t-244 -45q-232 0 -319.5 77.5t-87.5 278.5zM260 387q0 -166 57.5 -226.5t210.5 -60.5q127 0 184.5 46.5t57.5 148.5v6l-352 447q-3 0 -9.5 1t-11.5 1q-65 0 -101 -58t-36 -164v-141z" />
<glyph unicode="'" horiz-adv-x="295" d="M98 881v553h101v-553h-101z" />
<glyph unicode="(" horiz-adv-x="645" d="M190 494v495q0 293 72.5 403.5t253.5 110.5h10v-131q-112 -1 -152 -63t-40 -285v-565q0 -223 40 -285t152 -64v-128h-10q-182 0 -254 109.5t-72 402.5z" />
<glyph unicode=")" horiz-adv-x="645" d="M90 -18v128q113 2 154 65t41 284v565q0 221 -40.5 283.5t-154.5 65.5v130h10q182 0 255 -111t73 -403v-495q0 -292 -72.5 -402t-255.5 -110h-10z" />
<glyph unicode="*" horiz-adv-x="797" d="M29 1047v122h250v-122h-250zM162 780l123 248l104 -65l-121 -248zM164 1438l104 65l123 -248l-104 -65zM395 1255l123 248l105 -65l-123 -248zM397 963l105 65l123 -248l-107 -65zM516 1047v122h252v-122h-252z" />
<glyph unicode="+" horiz-adv-x="1706" d="M254 561v98h551v562h98v-562h549v-98h-549v-561h-98v561h-551z" />
<glyph unicode="," horiz-adv-x="512" d="M170 -140q37 2 52.5 17.5t15.5 52.5v70h-58v199h152v-234q0 -100 -30 -143t-99 -43q-10 0 -18 0.5t-15 1.5v79z" />
<glyph unicode="-" horiz-adv-x="616" d="M84 467v129h448v-129h-448z" />
<glyph unicode="." horiz-adv-x="512" d="M180 0v199h152v-199h-152z" />
<glyph unicode="/" horiz-adv-x="494" d="M-80 -190l486 1693h112l-485 -1693h-113z" />
<glyph unicode="0" d="M104 483v516q0 283 74.5 393.5t253.5 110.5h160q179 0 253.5 -110.5t74.5 -393.5v-516q0 -282 -74.5 -391.5t-253.5 -109.5h-160q-179 0 -253.5 109.5t-74.5 391.5zM256 479q0 -233 44.5 -296.5t168.5 -63.5h86q124 0 168.5 63.5t44.5 296.5v525q0 234 -44.5 298 t-168.5 64h-86q-124 0 -168.5 -64t-44.5 -298v-525z" />
<glyph unicode="1" d="M141 1034l369 451h172v-1485h-141v1323l-308 -377z" />
<glyph unicode="2" d="M109 0v195q0 113 13.5 188.5t41.5 118.5q51 80 288 172h1q23 9 66 25q163 62 194 104q18 25 26.5 74t8.5 127v116q0 132 -45.5 189t-151.5 57h-80q-116 0 -157.5 -55t-41.5 -246v-51h-145v43q0 252 73.5 349t254.5 97h120q180 0 253 -90t73 -326v-149q0 -74 -11.5 -122.5 t-37.5 -86.5q-58 -83 -278 -157q-76 -26 -117 -42q-120 -44 -163.5 -111t-43.5 -224v-54h641v-141h-782z" />
<glyph unicode="3" d="M111 428v59h147v-69q0 -189 41.5 -244t159.5 -55h80q107 0 152.5 56.5t45.5 189.5v114q0 125 -45 169t-170 44h-100v133h108q109 0 156 46.5t47 152.5v96q0 132 -43.5 189t-144.5 57h-78q-110 0 -149 -54.5t-39 -246.5v-27h-142v19q0 251 71.5 348.5t244.5 97.5h114 q172 0 244 -90.5t72 -316.5q0 -165 -42 -233t-147 -93q109 -40 156 -116t47 -216q0 -265 -73.5 -360.5t-260.5 -95.5h-121q-183 0 -257 97t-74 349z" />
<glyph unicode="4" d="M80 340v207l534 938h197v-1006h137v-139h-137v-340h-135v340h-596zM193 479h483v846z" />
<glyph unicode="5" d="M123 387v39h145v-33q0 -168 40.5 -221t154.5 -53h80q104 0 149 56.5t45 189.5v165q0 225 -47.5 283.5t-191.5 58.5q-94 0 -148.5 -34.5t-66.5 -102.5h-125v750h690v-139h-553v-445q32 55 95.5 82t158.5 27q180 0 262 -95.5t82 -304.5v-172q0 -265 -71.5 -360.5 t-254.5 -95.5h-121q-173 0 -248 93.5t-75 311.5z" />
<glyph unicode="6" d="M111 428v629q0 253 73.5 349.5t255.5 96.5h142q158 0 235.5 -89t77.5 -273v-15h-139v19q0 120 -43.5 170.5t-147.5 50.5h-116q-117 0 -158 -55t-41 -246v-281q62 69 133 98t184 29q190 0 271.5 -78.5t81.5 -261.5v-143q0 -253 -74 -349.5t-256 -96.5h-150 q-182 0 -255.5 96.5t-73.5 349.5zM258 416q0 -190 41.5 -244.5t157.5 -54.5h121q116 0 158 55.5t42 243.5v51q0 189 -41.5 244t-158.5 55h-121q-117 0 -158 -54.5t-41 -244.5v-51z" />
<glyph unicode="7" d="M125 1346v139h739v-225l-502 -1260h-155l538 1346h-620z" />
<glyph unicode="8" d="M100 438q0 140 47 216t156 116q-105 25 -146.5 93t-41.5 233q0 227 71 317t242 90h166q171 0 242 -90t71 -317q0 -165 -41.5 -233t-146.5 -93q109 -40 156 -116t47 -216q0 -265 -73.5 -360.5t-260.5 -95.5h-154q-187 0 -260.5 95.5t-73.5 360.5zM256 360 q0 -134 47 -191.5t156 -57.5h106q108 0 155.5 58.5t47.5 190.5v117q0 116 -51 165.5t-170 49.5h-72q-118 0 -168.5 -49t-50.5 -166v-117zM258 1032q0 -104 48 -150t157 -46h96q109 0 157 46t48 150v144q0 104 -48 150t-157 46h-96q-109 0 -157 -46t-48 -150v-144z" />
<glyph unicode="9" d="M94 342v16h142v-18q0 -122 42 -171.5t146 -49.5h147q117 0 158 54t41 245v295q-62 -68 -132.5 -96.5t-182.5 -28.5q-190 0 -272.5 78t-82.5 258v133q0 253 74 349.5t256 96.5h150q182 0 255.5 -96.5t73.5 -349.5v-629q0 -253 -73.5 -349.5t-255.5 -96.5h-172 q-160 0 -237 88.5t-77 271.5zM244 1024q0 -186 41 -239.5t157 -53.5h121q117 0 158 53.5t41 239.5v51q0 186 -41 238.5t-158 52.5h-121q-117 0 -157.5 -52.5t-40.5 -238.5v-51z" />
<glyph unicode=":" horiz-adv-x="559" d="M205 0v199h151v-199h-151zM205 840v198h151v-198h-151z" />
<glyph unicode=";" horiz-adv-x="559" d="M195 -139q38 2 52.5 17t14.5 52v70h-57v199h151v-234q0 -100 -30 -143t-99 -43q-10 0 -18 0.5t-14 1.5v80zM205 840v198h151v-198h-151z" />
<glyph unicode="&#x3c;" horiz-adv-x="1706" d="M264 569v82l1178 484v-109l-1022 -416l1022 -413v-109z" />
<glyph unicode="=" horiz-adv-x="1706" d="M254 375v98h1198v-98h-1198zM254 748v98h1198v-98h-1198z" />
<glyph unicode="&#x3e;" horiz-adv-x="1706" d="M264 88v109l1022 413l-1022 416v109l1178 -484v-82z" />
<glyph unicode="?" horiz-adv-x="930" d="M68 1026v125q0 184 72 268t229 84h157q165 0 238.5 -77t73.5 -252v-148q0 -129 -31 -205t-100 -119q-50 -31 -133 -65q-23 -10 -33 -14q-63 -30 -77.5 -55t-14.5 -72v-107h-144v125q0 53 8 86t27 59q35 49 146 99q44 21 67 33q90 46 116.5 89t26.5 162v121 q0 122 -41.5 161.5t-162.5 39.5h-103q-99 0 -143.5 -45.5t-44.5 -147.5v-145h-133zM307 0v186h139v-186h-139z" />
<glyph unicode="@" horiz-adv-x="2048" d="M117 537q0 204 86 381.5t252 314.5q132 109 298.5 165t360.5 56q162 0 308 -44t249 -124q129 -99 194.5 -228t65.5 -280q0 -171 -62 -309.5t-181 -232.5q-70 -54 -149 -82.5t-161 -28.5q-97 0 -144.5 37.5t-47.5 113.5q0 4 1 14t1 15q-51 -87 -127 -133.5t-168 -46.5 q-153 0 -233 83.5t-80 244.5q0 230 135 388t329 158q94 0 158 -41t96 -122l60 125h94l-139 -562q-10 -44 -13.5 -62.5t-3.5 -29.5q0 -43 28.5 -67.5t78.5 -24.5q52 0 106.5 21t104.5 61q97 77 151 204.5t54 282.5q0 254 -198 417t-509 163q-175 0 -320 -49.5t-262 -149.5 q-147 -126 -222 -290.5t-75 -362.5q0 -174 60 -305t184 -232q102 -82 244 -128t301 -46q171 0 334.5 49.5t300.5 143.5l39 -55q-147 -111 -311 -166.5t-343 -55.5q-191 0 -347 46.5t-275 138.5q-155 118 -229 273.5t-74 361.5zM702 444q0 -111 55 -173t152 -62 q107 0 189.5 71.5t111.5 188.5l62 248q-18 93 -75.5 145.5t-139.5 52.5q-154 0 -254.5 -133.5t-100.5 -337.5z" />
<glyph unicode="A" horiz-adv-x="995" d="M-2 0l426 1485h172l401 -1485h-159l-84 319h-516l-93 -319h-147zM276 457h441l-211 827z" />
<glyph unicode="B" horiz-adv-x="1053" d="M123 0v1485h389q255 0 339.5 -67t84.5 -244v-130q0 -108 -41 -168t-137 -94q108 -29 157.5 -101.5t49.5 -203.5v-141q0 -186 -93.5 -261t-330.5 -75h-418zM270 137h238q187 0 247 46t60 169v135q0 125 -60.5 171.5t-246.5 46.5h-238v-568zM270 848h228q178 0 235.5 38 t57.5 142v164q0 88 -56.5 121t-236.5 33h-228v-498z" />
<glyph unicode="C" horiz-adv-x="1006" d="M109 449v51v499q0 268 90.5 386t294.5 118h77q202 0 289.5 -99.5t87.5 -328.5q0 -28 -0.5 -42.5t-1.5 -26.5h-158v18q0 193 -48 262.5t-173 69.5h-80q-127 0 -175 -72t-48 -285v-499q0 -250 43.5 -311.5t179.5 -61.5h80q134 0 177.5 59.5t43.5 276.5v37l156 -1 q1 -15 1.5 -33.5t0.5 -53.5q0 -220 -85 -325t-263 -105h-143q-95 0 -169 33.5t-114 95.5q-34 53 -48.5 123t-14.5 215z" />
<glyph unicode="D" horiz-adv-x="1118" d="M123 0v1485h373q287 0 400.5 -118t113.5 -421v-409q0 -303 -113.5 -420t-400.5 -117h-373zM270 137h197q130 0 203.5 20.5t113.5 65.5q38 46 54 111.5t16 208.5v399q0 142 -16 208t-54 112q-40 45 -113.5 65.5t-203.5 20.5h-197v-1211z" />
<glyph unicode="E" horiz-adv-x="840" d="M123 0v1485h663v-144h-516v-497h480v-144h-480v-557h516v-143h-663z" />
<glyph unicode="F" horiz-adv-x="782" d="M123 0v1485h639v-144h-492v-518h453v-143h-453v-680h-147z" />
<glyph unicode="G" horiz-adv-x="1090" d="M109 449v51v499q0 268 90.5 386t294.5 118h110q199 0 287 -95.5t88 -313.5v-50l-158 1q-2 179 -50 245t-171 66h-113q-127 0 -175 -72t-48 -285v-499q0 -250 43.5 -311.5t179.5 -61.5h127q136 0 179 61t43 312v96h-261v143h416v-290q0 -145 -14.5 -215t-48.5 -123 q-40 -62 -114 -95.5t-169 -33.5h-190q-95 0 -169 33.5t-114 95.5q-34 53 -48.5 123t-14.5 215z" />
<glyph unicode="H" horiz-adv-x="1133" d="M123 0v1485h147v-645h592v645h148v-1485h-148v696h-592v-696h-147z" />
<glyph unicode="I" horiz-adv-x="403" d="M127 0v1485h147v-1485h-147z" />
<glyph unicode="J" horiz-adv-x="868" d="M25 328v172h147v-117q0 -156 45 -209t168 -53q124 0 170.5 54t46.5 208v1102h148v-1157q0 -197 -78.5 -271.5t-284.5 -74.5t-284 74.5t-78 271.5z" />
<glyph unicode="K" horiz-adv-x="1006" d="M123 0v1485h147v-639h76l475 639h164l-524 -705l592 -780h-185l-534 705h-64v-705h-147z" />
<glyph unicode="L" horiz-adv-x="702" d="M123 0v1485h147v-1340h441v-145h-588z" />
<glyph unicode="M" horiz-adv-x="1565" d="M123 0v1485h235l414 -1307l445 1307h225v-1485h-135v1358l-461 -1358h-150l-438 1358v-1358h-135z" />
<glyph unicode="N" horiz-adv-x="1157" d="M123 0v1485h217l551 -1319v1319h143v-1485h-225l-543 1296v-1296h-143z" />
<glyph unicode="O" horiz-adv-x="1114" d="M109 483v516q0 268 90.5 386t294.5 118h127q203 0 294 -118t91 -386v-516q0 -267 -91 -384t-294 -117h-127q-204 0 -294.5 117t-90.5 384zM266 483q0 -213 52.5 -284.5t193.5 -71.5h90q141 0 193.5 71.5t52.5 284.5v516q0 214 -52.5 285.5t-193.5 71.5h-90 q-141 0 -193.5 -71.5t-52.5 -285.5v-516z" />
<glyph unicode="P" horiz-adv-x="1006" d="M123 0v1485h399q256 0 339 -77.5t83 -291.5v-170q0 -214 -83 -291t-339 -77h-252v-578h-147zM270 715h230q181 0 232.5 40t51.5 150v254q0 109 -49 148t-235 39h-230v-631z" />
<glyph unicode="Q" horiz-adv-x="1114" d="M109 483v516q0 268 90.5 386t294.5 118h127q203 0 294 -118t91 -386v-516q0 -83 -5.5 -139t-17.5 -100l121 -99l-74 -108l-100 84q-43 -69 -121 -104t-188 -35h-127q-204 0 -294.5 117t-90.5 384zM266 483q0 -213 52.5 -284.5t193.5 -71.5h90q81 0 131.5 23t75.5 71 l-330 273l76 106l289 -240q2 29 3 56.5t1 66.5v516q0 214 -52.5 285.5t-193.5 71.5h-90q-141 0 -193.5 -71.5t-52.5 -285.5v-516z" />
<glyph unicode="R" horiz-adv-x="1063" d="M123 0v1485h418q257 0 340.5 -78t83.5 -291v-137q0 -143 -56 -217.5t-174 -89.5q110 -22 161.5 -96t51.5 -211v-365h-147v297q0 177 -56.5 236t-220.5 59h-254v-592h-147zM270 735h248q182 0 233.5 47.5t51.5 182.5v192q0 110 -48.5 149.5t-236.5 39.5h-248v-611z" />
<glyph unicode="S" d="M80 406v75h153v-125q0 -130 44.5 -179.5t158.5 -49.5h146q106 0 147 42.5t41 156.5v127q0 59 -5 86.5t-17 50.5q-30 60 -253 95q-45 7 -71 11q-8 2 -21 4q-144 25 -182 48q-58 36 -85 97t-27 152v185q0 164 86.5 242.5t267.5 78.5h106q194 0 276.5 -87t82.5 -294v-43 h-154v49q0 131 -43 179.5t-158 48.5h-120q-107 0 -148 -42t-41 -155v-160q0 -123 205 -152q47 -7 74 -11q233 -38 309 -105.5t76 -214.5v-213q0 -164 -86.5 -242.5t-268.5 -78.5h-133q-203 0 -281.5 89t-78.5 335z" />
<glyph unicode="T" horiz-adv-x="811" d="M14 1339v144h783v-144h-318v-1339h-147v1339h-318z" />
<glyph unicode="U" horiz-adv-x="1063" d="M119 342v1143h147v-1071q0 -178 50 -232.5t198 -54.5h43q144 0 192 52t48 235v1071h147v-1143q0 -192 -92.5 -276t-302.5 -84h-35q-210 0 -302.5 84t-92.5 276z" />
<glyph unicode="V" horiz-adv-x="973" d="M12 1485h158l307 -1286l336 1286h148l-402 -1485h-172z" />
<glyph unicode="W" horiz-adv-x="1565" d="M20 1485h148l264 -1295l277 1295h147l264 -1295l275 1295h147l-340 -1485h-172l-250 1190l-266 -1190h-172z" />
<glyph unicode="X" horiz-adv-x="920" d="M4 0l361 780l-336 705h157l281 -611l276 611h146l-334 -733l360 -752h-161l-303 657l-299 -657h-148z" />
<glyph unicode="Y" horiz-adv-x="872" d="M-18 1485h161l299 -717l299 717h148l-373 -864v-621h-145v621z" />
<glyph unicode="Z" horiz-adv-x="829" d="M43 0v137l578 1204h-558v144h709v-139l-577 -1203h587v-143h-739z" />
<glyph unicode="[" horiz-adv-x="645" d="M233 0v1485h271v-119h-137v-1247h137v-119h-271z" />
<glyph unicode="\" horiz-adv-x="494" d="M-25 1503h113l485 -1693h-112z" />
<glyph unicode="]" horiz-adv-x="645" d="M141 0v119h138v1247h-138v119h271v-1485h-271z" />
<glyph unicode="^" horiz-adv-x="2048" d="M422 901l532 557h140l530 -557h-143l-457 455l-459 -455h-143z" />
<glyph unicode="_" d="M0 -383h1024v-100h-1024v100z" />
<glyph unicode="`" d="M262 1518h178l209 -351h-106z" />
<glyph unicode="a" horiz-adv-x="844" d="M90 244v139q0 131 70 198.5t205 67.5q84 0 140.5 -22t92.5 -68v162q0 133 -35.5 174t-142.5 41q-88 0 -125 -30.5t-37 -100.5v-49h-137v47q0 134 73 196t232 62q172 0 237.5 -65.5t65.5 -239.5v-756h-131v94q-35 -61 -93 -87.5t-157 -26.5q-130 0 -194 65t-64 199z M229 301q0 -108 39.5 -153.5t130.5 -45.5q111 0 157 49.5t46 172.5q0 118 -38.5 159t-147.5 41q-111 0 -149 -44.5t-38 -178.5z" />
<glyph unicode="b" horiz-adv-x="877" d="M121 0v1511h133v-585q42 65 104.5 98t143.5 33q150 0 216 -102t66 -341v-159q0 -260 -64 -366.5t-214 -106.5q-86 0 -148 33t-112 106v-121h-125zM254 436q0 -188 47 -257.5t164 -69.5q98 0 138 70t40 251v178q0 182 -40 252t-138 70q-117 0 -164 -69.5t-47 -258.5v-166z " />
<glyph unicode="c" horiz-adv-x="829" d="M96 397v246q0 231 76 322.5t268 91.5q161 0 231 -71.5t70 -235.5v-52h-133v19q0 113 -41 160t-141 47q-111 0 -149.5 -51t-38.5 -230v-248q0 -178 40 -230t154 -52q112 0 153.5 46.5t41.5 182.5v41h137v-43q0 -189 -77 -273.5t-249 -84.5q-190 0 -266 91.5t-76 323.5z " />
<glyph unicode="d" horiz-adv-x="877" d="M92 455v159q0 238 67 340.5t218 102.5q80 0 141.5 -33t104.5 -98v585h133v-1511h-123v121q-50 -72 -113 -105.5t-149 -33.5q-151 0 -215 106.5t-64 366.5zM236 430q0 -183 39.5 -252t136.5 -69q116 0 163.5 69.5t47.5 257.5v166q0 189 -47.5 258.5t-163.5 69.5 q-97 0 -136.5 -69.5t-39.5 -252.5v-178z" />
<glyph unicode="e" horiz-adv-x="858" d="M96 397v246q0 231 76 322.5t268 91.5q190 0 265 -91t75 -323v-149h-542v-99q0 -181 40 -230.5t160 -49.5q126 0 171.5 37t45.5 137v33h123v-35q0 -162 -79.5 -233.5t-260.5 -71.5q-189 0 -265.5 92t-76.5 323zM238 623h409v65q0 144 -43.5 195t-161.5 51 q-117 0 -160.5 -51.5t-43.5 -194.5v-65z" />
<glyph unicode="f" horiz-adv-x="494" d="M29 915v123h127v185q0 151 66.5 219.5t213.5 68.5q24 0 73 -3q5 -1 7 -1v-118q-14 2 -29.5 3t-44.5 1q-85 0 -119 -39t-34 -142v-174h227v-123h-227v-915h-133v915h-127z" />
<glyph unicode="g" horiz-adv-x="877" d="M92 483v101q0 260 64 366.5t215 106.5q85 0 148.5 -34.5t113.5 -107.5v123h123v-1075q0 -190 -75 -268t-257 -78q-155 0 -232 53.5t-77 161.5v53h137q0 -4 -1 -12t-1 -12q0 -65 40.5 -94t131.5 -29q117 0 159 46t42 216v172q-43 -66 -104.5 -98.5t-141.5 -32.5 q-151 0 -218 102.5t-67 339.5zM236 489q0 -182 39.5 -251.5t136.5 -69.5q116 0 163.5 69.5t47.5 258.5v106q0 189 -47.5 258.5t-163.5 69.5q-97 0 -136.5 -69.5t-39.5 -252.5v-119z" />
<glyph unicode="h" horiz-adv-x="887" d="M125 0v1511h133v-577q42 64 101 93.5t143 29.5q145 0 208.5 -83.5t63.5 -277.5v-696h-133v659q0 156 -38 216.5t-130 60.5q-116 0 -165.5 -79t-49.5 -275v-582h-133z" />
<glyph unicode="i" horiz-adv-x="350" d="M109 0v1038h133v-1038h-133zM109 1311v174h133v-174h-133z" />
<glyph unicode="j" horiz-adv-x="350" d="M0 -258h18q56 0 75.5 27t19.5 139v1130h133v-1128q0 -176 -43.5 -235.5t-157.5 -59.5q-9 0 -21 1.5t-24 5.5v120zM113 1311v174h133v-174h-133z" />
<glyph unicode="k" horiz-adv-x="750" d="M119 0v1511h133v-880h63l267 407h145l-307 -467l368 -571h-157l-316 494h-63v-494h-133z" />
<glyph unicode="l" horiz-adv-x="360" d="M115 0v1511h133v-1511h-133z" />
<glyph unicode="m" horiz-adv-x="1337" d="M121 0v1038h123v-120q38 70 98 104.5t143 34.5q93 0 152 -39t84 -115q38 78 99.5 116t150.5 38q138 0 198 -82.5t60 -278.5v-696h-131v659q0 154 -36.5 215.5t-123.5 61.5q-107 0 -152 -78t-45 -276v-582h-133v659q0 157 -35 217t-120 60q-108 0 -153.5 -79t-45.5 -275 v-582h-133z" />
<glyph unicode="n" horiz-adv-x="883" d="M121 0v1038h123v-120q39 70 102 104.5t152 34.5q145 0 208.5 -83.5t63.5 -277.5v-696h-133v659q0 156 -38 216.5t-130 60.5q-116 0 -165.5 -79t-49.5 -275v-582h-133z" />
<glyph unicode="o" horiz-adv-x="877" d="M96 397v246q0 231 76 322.5t268 91.5q190 0 265 -91t75 -323v-246q0 -232 -75.5 -323.5t-266.5 -91.5q-189 0 -265.5 92t-76.5 323zM238 395q0 -178 41 -230t159 -52t159.5 53t41.5 229v248q0 177 -41 229t-160 52q-118 0 -159 -53t-41 -228v-248z" />
<glyph unicode="p" horiz-adv-x="877" d="M121 -385v1423h125v-123q50 74 112.5 108t147.5 34q150 0 214 -106.5t64 -366.5v-160q0 -239 -66 -340.5t-216 -101.5q-81 0 -143.5 32.5t-104.5 98.5v-498h-133zM254 436q0 -188 47 -257.5t164 -69.5q98 0 138 70t40 251v178q0 182 -40 252t-138 70q-117 0 -164 -69.5 t-47 -258.5v-166z" />
<glyph unicode="q" horiz-adv-x="877" d="M90 424v160q0 261 63.5 367t213.5 106q85 0 148.5 -34.5t113.5 -107.5v123h123v-1423h-134v498q-42 -66 -103.5 -98.5t-141.5 -32.5q-151 0 -217 101.5t-66 340.5zM231 430q0 -183 40 -252t137 -69q116 0 163 69.5t47 257.5v166q0 189 -47 258.5t-163 69.5 q-97 0 -137 -69.5t-40 -252.5v-178z" />
<glyph unicode="r" horiz-adv-x="707" d="M117 0v1038h123v-135q37 79 96.5 116.5t146.5 37.5q114 0 164.5 -66.5t50.5 -216.5v-80h-123v49q0 109 -30 154t-101 45q-105 0 -149.5 -63.5t-44.5 -223.5v-655h-133z" />
<glyph unicode="s" horiz-adv-x="815" d="M84 225v107h131v-64q0 -104 28 -134t107 -30h92q82 0 115 29.5t33 102.5v98q0 110 -181 139q-31 5 -48 8q-181 31 -223 70t-42 129v139q0 121 68 179.5t207 58.5h92q144 0 199 -52t55 -192v-43h-131v29q0 76 -30 105.5t-105 29.5h-68q-82 0 -114.5 -28.5t-32.5 -100.5 v-100q0 -82 205 -112q56 -8 89 -13q107 -17 153 -68t46 -154v-139q0 -120 -67.5 -178.5t-206.5 -58.5h-117q-144 0 -199 52t-55 191z" />
<glyph unicode="t" horiz-adv-x="692" d="M37 915v123h108v252h134v-252h337v-123h-337v-593q0 -143 26 -181.5t98 -38.5q66 0 93.5 36t27.5 122v96h121v-73q0 -162 -60 -231.5t-198 -69.5q-134 0 -188 63.5t-54 235.5v634h-108z" />
<glyph unicode="u" horiz-adv-x="883" d="M113 342v696h133v-659q0 -154 38.5 -215.5t131.5 -61.5q115 0 164 78.5t49 276.5v581h133v-1038h-123v121q-40 -70 -103 -104.5t-151 -34.5q-145 0 -208.5 83t-63.5 277z" />
<glyph unicode="v" horiz-adv-x="793" d="M35 1038h139l225 -909l226 909h131l-267 -1038h-188z" />
<glyph unicode="w" horiz-adv-x="1255" d="M23 1038h137l182 -905l197 905h176l196 -905l183 905h137l-225 -1038h-179l-200 926l-199 -926h-178z" />
<glyph unicode="x" horiz-adv-x="772" d="M4 0l305 541l-278 497h151l205 -379l203 379h139l-274 -487l311 -551h-152l-235 418l-236 -418h-139z" />
<glyph unicode="y" horiz-adv-x="793" d="M35 1038h139l225 -909l226 909h131l-267 -1038q-57 -226 -120.5 -305.5t-169.5 -79.5q-21 0 -43.5 2.5t-46.5 7.5v125q19 -2 30 -3t19 -1q70 0 112 40.5t66 131.5l20 82h-55z" />
<glyph unicode="z" horiz-adv-x="678" d="M49 0v137l438 778h-393v123h527v-135l-439 -780h439v-123h-572z" />
<glyph unicode="{" d="M174 477v109q9 0 23.5 -1t21.5 -1q138 0 195 63t57 217v242q0 223 70 297t266 74h47v-107h-37q-131 0 -177 -49.5t-46 -204.5v-242q0 -168 -43.5 -240t-153.5 -104q110 -31 153.5 -103t43.5 -241v-241q0 -155 45 -204.5t170 -49.5q7 0 22 1t23 1v-107h-47 q-197 0 -266.5 72.5t-69.5 296.5v244q0 154 -57 217t-195 63q-7 0 -21.5 -1t-23.5 -1z" />
<glyph unicode="|" d="M459 -483v2048h108v-2048h-108z" />
<glyph unicode="}" d="M172 -307h39q130 0 175.5 49t45.5 203v241q0 171 43 242t154 102q-111 32 -154 103t-43 241v242q0 157 -45 206.5t-170 49.5q-7 0 -22 -1t-23 -1v107h47q196 0 266 -74t70 -297v-242q0 -154 57 -217t195 -63q7 0 22 1t23 1v-109q-8 0 -23 1t-22 1q-138 0 -195 -63 t-57 -217v-244q0 -223 -69.5 -296t-266.5 -73h-47v107z" />
<glyph unicode="~" horiz-adv-x="1706" d="M178 471v113q106 73 202 109t185 36q104 0 272 -61q11 -4 18 -7q9 -3 31 -11q167 -60 257 -60q85 0 177 38t210 122v-113q-102 -72 -198 -107.5t-189 -35.5q-99 0 -260 57q-20 7 -29 10q-5 2 -16 6q-176 64 -273 64q-83 0 -175 -38t-212 -122z" />
<glyph unicode="&#xa0;" />
<glyph unicode="&#xa1;" horiz-adv-x="512" d="M186 0v1094h140v-1094h-140zM186 1298v187h140v-187h-140z" />
<glyph unicode="&#xa2;" d="M176 397v246q0 225 75.5 320.5t252.5 95.5q17 0 40.5 -1.5t53.5 -4.5l61 229h101l-70 -256q69 -29 100 -94t31 -182v-52h-131v19q0 60 -10 98.5t-31 58.5l-200 -757q20 -1 44 -2.5t27 -1.5q104 0 146.5 51t42.5 178v41h137v-43q0 -194 -79 -277t-265 -83q-23 0 -44.5 2.5 t-43.5 7.5l-68 -252h-98l76 278q-76 36 -112 129.5t-36 251.5zM319 395q0 -111 10 -162t33 -69l203 758q-4 0 -12 1q-36 3 -51 3q-106 0 -144.5 -53.5t-38.5 -229.5v-248z" />
<glyph unicode="&#xa3;" d="M66 0v141q99 12 133 57t34 179v129l-6 84h-161v137h155l-12 315q0 11 -1 31t-1 29q0 208 77 295.5t259 87.5h65q174 0 247 -77t73 -267v-84h-137v57q0 139 -40.5 186.5t-150.5 47.5h-51q-113 0 -156 -54t-43 -209q0 -38 0.5 -59t1.5 -40l13 -259h378v-137h-372 q3 -87 4.5 -137.5t1.5 -65.5q0 -96 -21 -152.5t-69 -93.5h659v-141h-880z" />
<glyph unicode="&#xa4;" horiz-adv-x="1241" d="M90 420l205 207q-45 61 -67.5 125.5t-22.5 132.5t22.5 133.5t67.5 126.5l-205 205l66 65l204 -205q60 46 124.5 68t136.5 22t138.5 -22.5t123.5 -67.5l204 205l66 -65l-205 -205q44 -59 66 -125t22 -135t-22 -134t-66 -124l205 -207l-66 -66l-204 205q-59 -45 -125 -67.5 t-137 -22.5t-135 22t-126 68l-204 -205zM297 887q0 -134 96 -230t230 -96q133 0 227 96t94 230q0 133 -94 227t-227 94q-134 0 -230 -94.5t-96 -226.5z" />
<glyph unicode="&#xa5;" d="M33 557v86h403l-110 248h-293v86h254l-230 508h162l301 -717l297 717h150l-222 -508h246v-86h-280l-109 -248h389v-86h-399v-557h-146v557h-413z" />
<glyph unicode="&#xa6;" d="M459 -350v758h108v-758h-108zM459 674v758h108v-758h-108z" />
<glyph unicode="&#xa7;" d="M115 803q0 76 31.5 138t97.5 116q-33 47 -49.5 93.5t-16.5 94.5q0 128 86 193t254 65q153 0 226 -57t73 -176v-84h-129v51q0 73 -39 106t-125 33q-107 0 -157 -30.5t-50 -96.5q0 -59 37 -99t168 -103l150 -74q129 -64 181 -130t52 -161q0 -77 -31.5 -138.5t-97.5 -115.5 q33 -47 49.5 -94.5t16.5 -95.5q0 -127 -88 -195t-252 -68q-176 0 -255 56.5t-79 181.5v109h129v-76q0 -77 47 -113.5t145 -36.5q103 0 158 36t55 104q0 56 -34.5 95t-169.5 105l-150 74q-125 60 -179 128.5t-54 164.5zM248 811q0 -54 39 -96.5t141 -91.5l258 -127 q43 32 64.5 76.5t21.5 101.5q0 53 -36 92.5t-144 93.5l-262 127q-42 -32 -62 -75.5t-20 -100.5z" />
<glyph unicode="&#xa8;" d="M272 1233v186h160v-186h-160zM592 1233v186h160v-186h-160z" />
<glyph unicode="&#xa9;" horiz-adv-x="1706" d="M121 723q0 145 56.5 279.5t162.5 242.5q101 103 232 157t280 54t283.5 -55.5t238.5 -159.5q102 -102 156.5 -235.5t54.5 -282.5q0 -150 -53.5 -281t-157.5 -233q-107 -106 -242 -162.5t-280 -56.5t-278 55.5t-238 161.5q-105 104 -160 237t-55 279zM201 723 q0 -129 49.5 -247t142.5 -212q94 -93 212 -142.5t247 -49.5q130 0 250.5 50t216.5 144q91 89 138.5 206t47.5 251q0 132 -48.5 251t-139.5 210q-94 94 -213 143t-252 49q-132 0 -249 -48t-208 -140q-94 -96 -144 -215.5t-50 -249.5zM469 727q0 203 107.5 326t283.5 123 q135 0 226.5 -72t103.5 -189h-117q-18 80 -75 124t-142 44q-122 0 -190 -95t-68 -267q0 -166 69 -260t189 -94q89 0 151 50.5t78 137.5h115q-11 -125 -108.5 -205t-241.5 -80q-177 0 -279 122t-102 335z" />
<glyph unicode="&#xaa;" horiz-adv-x="633" d="M68 928v98q0 91 52.5 138.5t153.5 47.5q63 0 105.5 -15.5t69.5 -47.5v113q0 94 -26.5 122.5t-107.5 28.5q-66 0 -93 -21t-27 -71v-35h-105v33q0 95 55 138.5t174 43.5q129 0 178.5 -46t49.5 -169v-528h-98v65q-27 -42 -70.5 -61t-116.5 -19q-99 0 -146.5 45.5 t-47.5 139.5zM172 969q0 -76 29.5 -108t97.5 -32q84 0 119 35t35 121q0 82 -29.5 110.5t-112.5 28.5q-82 0 -110.5 -31t-28.5 -124z" />
<glyph unicode="&#xab;" horiz-adv-x="786" d="M96 518l178 324h144l-176 -324l176 -321h-144zM393 518l180 324h144l-178 -324l178 -321h-144z" />
<glyph unicode="&#xac;" horiz-adv-x="1706" d="M254 758v100h1198v-502h-96v402h-1102z" />
<glyph unicode="&#xad;" horiz-adv-x="616" d="M84 467v129h448v-129h-448z" />
<glyph unicode="&#xae;" horiz-adv-x="1706" d="M121 723q0 144 56.5 279.5t162.5 242.5q101 103 232 157t280 54q152 0 285.5 -55t236.5 -160q102 -102 156.5 -235.5t54.5 -282.5q0 -150 -53.5 -281t-157.5 -233q-107 -106 -242 -162.5t-280 -56.5q-147 0 -279.5 55.5t-236.5 161.5q-105 104 -160 237t-55 279zM201 723 q0 -129 49.5 -247t142.5 -212q94 -93 212 -142.5t247 -49.5q130 0 250.5 50t216.5 144q91 89 138.5 204.5t47.5 250.5q0 134 -48 253t-138 210q-94 93 -213.5 142.5t-253.5 49.5q-130 0 -246.5 -48t-208.5 -140q-95 -97 -145.5 -216.5t-50.5 -248.5zM565 313v844h309 q178 0 263.5 -57t85.5 -176q0 -89 -54 -149t-145 -73l188 -389h-145l-178 371h-197v-371h-127zM692 768h158q134 0 188 33.5t54 113.5q0 83 -57 119.5t-185 36.5h-158v-303z" />
<glyph unicode="&#xaf;" d="M254 1264v125h516v-125h-516z" />
<glyph unicode="&#xb0;" horiz-adv-x="674" d="M59 1174q0 116 81.5 197t197.5 81q115 0 195.5 -81.5t80.5 -196.5t-81.5 -197t-196.5 -82q-117 0 -197 81t-80 198zM129 1174q0 -87 61 -147t148 -60t147 60t60 147q0 86 -60.5 147t-146.5 61t-147.5 -61t-61.5 -147z" />
<glyph unicode="&#xb1;" horiz-adv-x="1706" d="M254 51v99h1198v-99h-1198zM254 723v98h551v348h98v-348h549v-98h-549v-348h-98v348h-551z" />
<glyph unicode="&#xb2;" horiz-adv-x="676" d="M72 594v117q0 70 9 114.5t28 69.5q18 27 55.5 48t135.5 55q15 5 43 15q108 37 128 62q11 14 17 44t6 77v70q0 79 -30 113t-99 34h-54q-76 0 -103.5 -32.5t-27.5 -147.5v-31h-96v27q0 150 49 208t168 58h78q119 0 167 -53t48 -195v-90q0 -45 -7.5 -74t-23.5 -51 q-40 -51 -186 -96l-75 -24q-79 -27 -107.5 -66.5t-28.5 -134.5v-33h422v-84h-516z" />
<glyph unicode="&#xb3;" horiz-adv-x="676" d="M74 850v37h96v-43q0 -113 27.5 -145.5t105.5 -32.5h53q71 0 101 33.5t30 113.5v68q0 75 -30 102t-113 27h-65v80h71q72 0 102.5 27.5t30.5 90.5v58q0 79 -28 113t-95 34h-53q-72 0 -97.5 -32.5t-25.5 -147.5v-16h-94v12q0 150 47 208t162 58h76q113 0 160 -54t47 -190 q0 -100 -27.5 -140.5t-95.5 -53.5q72 -25 102.5 -70.5t30.5 -130.5q0 -158 -48 -215t-171 -57h-80q-121 0 -170 57.5t-49 208.5z" />
<glyph unicode="&#xb4;" d="M375 1167l209 351h178l-281 -351h-106z" />
<glyph unicode="&#xb5;" horiz-adv-x="1110" d="M-111 -426l316 1491h139l-125 -592q-8 -39 -12 -73t-4 -66q0 -117 58 -180.5t167 -63.5q125 0 215 107.5t133 310.5l121 557h139l-164 -770q-12 -55 -17 -85t-5 -48q0 -33 17 -49.5t51 -16.5q7 0 16.5 0.5t19.5 1.5l-20 -110q-19 -5 -41 -8t-45 -3q-70 0 -103.5 36 t-33.5 110v14q-42 -77 -120 -119.5t-179 -42.5q-92 0 -161 40t-108 116l-114 -557h-140z" />
<glyph unicode="&#xb6;" d="M84 1130q0 157 107.5 253t285.5 96h463v-70h-127v-1409h-82v1409h-186v-1409h-84v782q-174 8 -275.5 102.5t-101.5 245.5z" />
<glyph unicode="&#xb7;" horiz-adv-x="512" d="M145 741q0 45 33 78t78 33q46 0 77.5 -32t31.5 -79q0 -46 -31.5 -77t-77.5 -31q-45 0 -78 31.5t-33 76.5z" />
<glyph unicode="&#xb8;" d="M299 -336q74 -17 136.5 -26t109.5 -9q60 0 90.5 20.5t30.5 61.5q0 52 -33 75.5t-107 23.5q-20 0 -30.5 -0.5t-20.5 -1.5v192h74v-106h22q112 0 169 -45t57 -132q0 -89 -62.5 -135.5t-183.5 -46.5q-45 0 -104.5 10t-147.5 33v86z" />
<glyph unicode="&#xb9;" horiz-adv-x="676" d="M94 1214l244 271h113v-891h-95v795l-202 -228z" />
<glyph unicode="&#xba;" horiz-adv-x="657" d="M72 1036v172q0 161 57 225t201 64q142 0 199 -63.5t57 -225.5v-172q0 -162 -57 -226.5t-199 -64.5q-143 0 -200.5 65t-57.5 226zM178 1034q0 -124 31 -160t121 -36q88 0 118.5 37t30.5 159v174q0 124 -30.5 160.5t-118.5 36.5q-90 0 -121 -37t-31 -160v-174z" />
<glyph unicode="&#xbb;" horiz-adv-x="786" d="M70 197l178 321l-178 324h145l178 -324l-178 -321h-145zM369 197l178 321l-178 324h143l180 -324l-180 -321h-143z" />
<glyph unicode="&#xbc;" horiz-adv-x="1632" d="M88 1233l231 252h109v-832h-88v742l-195 -211zM303 -18l897 1521h127l-895 -1521h-129zM1038 190v117l336 524h123v-563h88v-78h-88v-190h-84v190h-375zM1108 268h305v473z" />
<glyph unicode="&#xbd;" horiz-adv-x="1632" d="M88 1233l231 252h109v-832h-88v742l-195 -211zM303 -18l897 1521h127l-895 -1521h-129zM1055 0v109q0 64 8.5 106t26.5 66q18 25 53.5 45t128.5 51q10 3 29 10q115 38 135 64q11 13 16.5 39.5t5.5 70.5v66q0 74 -29 106.5t-96 32.5h-49q-73 0 -99 -31t-26 -139v-29h-92 v25q0 141 46.5 195.5t160.5 54.5h76q113 0 158.5 -50.5t45.5 -183.5v-84q0 -41 -7 -68t-23 -48q-36 -45 -171 -86q-51 -15 -79 -25q-75 -25 -102 -62t-27 -126v-29h403v-80h-493z" />
<glyph unicode="&#xbe;" horiz-adv-x="1632" d="M70 893v33h92v-39q0 -106 26.5 -137t100.5 -31h51q67 0 96 32t29 107v64q0 69 -28.5 93.5t-106.5 24.5h-64v76h68q69 0 99 26t30 85v53q0 74 -28 106.5t-91 32.5h-49q-69 0 -94 -30t-25 -140v-14h-90v10q0 141 45 195.5t154 54.5h73q108 0 153.5 -51t45.5 -176 q0 -92 -26.5 -130.5t-92.5 -52.5q69 -23 98 -65.5t29 -120.5q0 -148 -46 -202t-165 -54h-75q-116 0 -162.5 54t-46.5 196zM303 -18l897 1521h127l-895 -1521h-129zM1038 190v117l336 524h123v-563h88v-78h-88v-190h-84v190h-375zM1108 268h305v473z" />
<glyph unicode="&#xbf;" horiz-adv-x="930" d="M92 330v145q0 127 31 204t96 116q41 24 100 50t71 32q60 28 75.5 54t15.5 75v108h144v-125q0 -53 -8.5 -86t-26.5 -59q-35 -49 -150 -103q-41 -19 -63 -30q-90 -47 -117 -89.5t-27 -162.5v-119q0 -121 42 -161t163 -40h103q99 0 143.5 45.5t44.5 147.5v143h133v-125 q0 -183 -72 -266.5t-229 -83.5h-158q-164 0 -237.5 77t-73.5 253zM483 1317v186h140v-186h-140z" />
<glyph unicode="&#xc0;" horiz-adv-x="995" d="M-2 0l426 1485h172l401 -1485h-159l-84 319h-516l-93 -319h-147zM248 1964h178l209 -351h-106zM276 457h441l-211 827z" />
<glyph unicode="&#xc1;" horiz-adv-x="995" d="M-2 0l426 1485h172l401 -1485h-159l-84 319h-516l-93 -319h-147zM276 457h441l-211 827zM361 1613l209 351h178l-281 -351h-106z" />
<glyph unicode="&#xc2;" horiz-adv-x="995" d="M-2 0l426 1485h172l401 -1485h-159l-84 319h-516l-93 -319h-147zM211 1613l197 351h178l197 -351h-107l-178 244l-180 -244h-107zM276 457h441l-211 827z" />
<glyph unicode="&#xc3;" horiz-adv-x="995" d="M-2 0l426 1485h172l401 -1485h-159l-84 319h-516l-93 -319h-147zM207 1673q22 91 72.5 138.5t126.5 47.5q14 0 29 -2.5t30 -7.5l79 -27q16 -5 32 -7.5t28 -2.5q36 0 60.5 17.5t36.5 52.5h88q-24 -94 -75.5 -143.5t-123.5 -49.5q-16 0 -31.5 2.5t-33.5 7.5l-80 27 q-16 5 -29 7.5t-24 2.5q-35 0 -58.5 -15t-38.5 -48h-88zM276 457h441l-211 827z" />
<glyph unicode="&#xc4;" horiz-adv-x="995" d="M-2 0l426 1485h172l401 -1485h-159l-84 319h-516l-93 -319h-147zM258 1679v186h160v-186h-160zM276 457h441l-211 827zM578 1679v186h160v-186h-160z" />
<glyph unicode="&#xc5;" horiz-adv-x="995" d="M-2 0l418 1462h186l395 -1462h-159l-84 319h-516l-93 -319h-147zM276 457h441l-211 827zM283 1749q0 94 64.5 158.5t158.5 64.5q96 0 161.5 -64.5t65.5 -158.5q0 -95 -66 -161t-161 -66q-94 0 -158.5 66t-64.5 161zM379 1747q0 -55 37.5 -92t91.5 -37q55 0 92 37t37 92 q0 56 -37 93.5t-92 37.5q-54 0 -91.5 -38.5t-37.5 -92.5z" />
<glyph unicode="&#xc6;" horiz-adv-x="1380" d="M-49 0l555 1485h821v-144h-516v-501h479v-138h-479v-561h516v-141h-663v457h-396l-166 -457h-151zM317 596h347v745h-74z" />
<glyph unicode="&#xc7;" horiz-adv-x="1006" d="M109 449v51v499q0 268 90.5 386t294.5 118h77q202 0 289.5 -99.5t87.5 -328.5q0 -28 -0.5 -42.5t-1.5 -26.5h-158v18q0 193 -48 262.5t-173 69.5h-80q-127 0 -175 -72t-48 -285v-499q0 -250 43.5 -311.5t179.5 -61.5h80q134 0 177.5 59.5t43.5 276.5v37l156 -1 q1 -15 1.5 -33.5t0.5 -53.5q0 -220 -85 -325t-263 -105h-143q-95 0 -169 33.5t-114 95.5q-34 53 -48.5 123t-14.5 215zM309 -336q74 -17 136.5 -26t109.5 -9q60 0 90.5 20.5t30.5 61.5q0 52 -33 75.5t-107 23.5q-20 0 -30.5 -0.5t-20.5 -1.5v192h74v-106h22q112 0 169 -45 t57 -132q0 -89 -62.5 -135.5t-183.5 -46.5q-45 0 -104.5 10t-147.5 33v86z" />
<glyph unicode="&#xc8;" horiz-adv-x="840" d="M123 0v1485h663v-144h-516v-497h480v-144h-480v-557h516v-143h-663zM205 1964h178l209 -351h-106z" />
<glyph unicode="&#xc9;" horiz-adv-x="840" d="M123 0v1485h663v-144h-516v-497h480v-144h-480v-557h516v-143h-663zM318 1613l209 351h178l-281 -351h-106z" />
<glyph unicode="&#xca;" horiz-adv-x="840" d="M123 0v1485h663v-144h-516v-497h480v-144h-480v-557h516v-143h-663zM168 1613l197 351h178l197 -351h-107l-178 244l-180 -244h-107z" />
<glyph unicode="&#xcb;" horiz-adv-x="840" d="M123 0v1485h663v-144h-516v-497h480v-144h-480v-557h516v-143h-663zM215 1679v186h160v-186h-160zM535 1679v186h160v-186h-160z" />
<glyph unicode="&#xcc;" horiz-adv-x="403" d="M-47 1964h178l209 -351h-106zM127 0v1485h147v-1485h-147z" />
<glyph unicode="&#xcd;" horiz-adv-x="403" d="M66 1613l209 351h178l-281 -351h-106zM127 0v1485h147v-1485h-147z" />
<glyph unicode="&#xce;" horiz-adv-x="403" d="M-84 1613l197 351h178l197 -351h-107l-178 244l-180 -244h-107zM127 0v1485h147v-1485h-147z" />
<glyph unicode="&#xcf;" horiz-adv-x="403" d="M-37 1679v186h160v-186h-160zM127 0v1485h147v-1485h-147zM283 1679v186h160v-186h-160z" />
<glyph unicode="&#xd0;" horiz-adv-x="1124" d="M0 715v100h127v670h373q287 0 400.5 -118t113.5 -421v-409q0 -303 -113.5 -420t-400.5 -117h-373v715h-127zM274 137h197q131 0 205.5 20.5t114.5 65.5q36 44 51.5 108t15.5 212v399q0 147 -15.5 211.5t-51.5 108.5q-40 45 -114.5 65.5t-205.5 20.5h-197v-533h308v-100 h-308v-578z" />
<glyph unicode="&#xd1;" horiz-adv-x="1157" d="M123 0v1485h217l551 -1319v1319h143v-1485h-225l-543 1296v-1296h-143zM289 1673q22 91 72.5 138.5t126.5 47.5q14 0 29 -2.5t30 -7.5l79 -27q16 -5 32 -7.5t28 -2.5q36 0 60.5 17.5t36.5 52.5h88q-24 -94 -75.5 -143.5t-123.5 -49.5q-16 0 -31.5 2.5t-33.5 7.5l-80 27 q-16 5 -29 7.5t-24 2.5q-35 0 -58.5 -15t-38.5 -48h-88z" />
<glyph unicode="&#xd2;" horiz-adv-x="1114" d="M109 483v516q0 268 90.5 386t294.5 118h127q203 0 294 -118t91 -386v-516q0 -267 -91 -384t-294 -117h-127q-204 0 -294.5 117t-90.5 384zM266 483q0 -213 52.5 -284.5t193.5 -71.5h90q141 0 193.5 71.5t52.5 284.5v516q0 214 -52.5 285.5t-193.5 71.5h-90 q-141 0 -193.5 -71.5t-52.5 -285.5v-516zM307 1964h178l209 -351h-106z" />
<glyph unicode="&#xd3;" horiz-adv-x="1114" d="M109 483v516q0 268 90.5 386t294.5 118h127q203 0 294 -118t91 -386v-516q0 -267 -91 -384t-294 -117h-127q-204 0 -294.5 117t-90.5 384zM266 483q0 -213 52.5 -284.5t193.5 -71.5h90q141 0 193.5 71.5t52.5 284.5v516q0 214 -52.5 285.5t-193.5 71.5h-90 q-141 0 -193.5 -71.5t-52.5 -285.5v-516zM420 1613l209 351h178l-281 -351h-106z" />
<glyph unicode="&#xd4;" horiz-adv-x="1114" d="M109 483v516q0 268 90.5 386t294.5 118h127q203 0 294 -118t91 -386v-516q0 -267 -91 -384t-294 -117h-127q-204 0 -294.5 117t-90.5 384zM266 483q0 -213 52.5 -284.5t193.5 -71.5h90q141 0 193.5 71.5t52.5 284.5v516q0 214 -52.5 285.5t-193.5 71.5h-90 q-141 0 -193.5 -71.5t-52.5 -285.5v-516zM270 1613l197 351h178l197 -351h-107l-178 244l-180 -244h-107z" />
<glyph unicode="&#xd5;" horiz-adv-x="1114" d="M109 483v516q0 268 90.5 386t294.5 118h127q203 0 294 -118t91 -386v-516q0 -267 -91 -384t-294 -117h-127q-204 0 -294.5 117t-90.5 384zM266 483q0 -213 52.5 -284.5t193.5 -71.5h90q141 0 193.5 71.5t52.5 284.5v516q0 214 -52.5 285.5t-193.5 71.5h-90 q-141 0 -193.5 -71.5t-52.5 -285.5v-516zM266 1673q22 91 72.5 138.5t126.5 47.5q14 0 29 -2.5t30 -7.5l79 -27q16 -5 32 -7.5t28 -2.5q36 0 60.5 17.5t36.5 52.5h88q-24 -94 -75.5 -143.5t-123.5 -49.5q-16 0 -31.5 2.5t-33.5 7.5l-80 27q-16 5 -29 7.5t-24 2.5 q-35 0 -58.5 -15t-38.5 -48h-88z" />
<glyph unicode="&#xd6;" horiz-adv-x="1114" d="M109 483v516q0 268 90.5 386t294.5 118h127q203 0 294 -118t91 -386v-516q0 -267 -91 -384t-294 -117h-127q-204 0 -294.5 117t-90.5 384zM266 483q0 -213 52.5 -284.5t193.5 -71.5h90q141 0 193.5 71.5t52.5 284.5v516q0 214 -52.5 285.5t-193.5 71.5h-90 q-141 0 -193.5 -71.5t-52.5 -285.5v-516zM317 1679v186h160v-186h-160zM637 1679v186h160v-186h-160z" />
<glyph unicode="&#xd7;" horiz-adv-x="1706" d="M305 129l481 481l-481 482l70 69l481 -481l481 481l70 -69l-481 -482l481 -481l-70 -70l-481 482l-481 -482z" />
<glyph unicode="&#xd8;" horiz-adv-x="1114" d="M55 -84l115 221q-33 68 -47 143t-14 203v516q0 268 90.5 386t294.5 118h127q69 0 132 -17.5t111 -49.5l90 163l101 -43l-115 -217q35 -49 50.5 -126.5t15.5 -213.5v-516q0 -267 -91 -384t-294 -117h-127q-76 0 -137 17t-105 50l-96 -184zM260 481q0 -34 2.5 -73t7.5 -86 l521 976q-20 31 -69 47.5t-120 16.5h-90q-145 0 -198.5 -72t-53.5 -289v-520zM322 182q32 -32 77 -46.5t113 -14.5h90q146 0 199 72t53 288v520q0 40 -2 79.5t-6 78.5z" />
<glyph unicode="&#xd9;" horiz-adv-x="1063" d="M119 342v1143h147v-1071q0 -178 50 -232.5t198 -54.5h43q144 0 192 52t48 235v1071h147v-1143q0 -192 -92.5 -276t-302.5 -84h-35q-210 0 -302.5 84t-92.5 276zM282 1964h178l209 -351h-106z" />
<glyph unicode="&#xda;" horiz-adv-x="1063" d="M119 342v1143h147v-1071q0 -178 50 -232.5t198 -54.5h43q144 0 192 52t48 235v1071h147v-1143q0 -192 -92.5 -276t-302.5 -84h-35q-210 0 -302.5 84t-92.5 276zM395 1613l209 351h178l-281 -351h-106z" />
<glyph unicode="&#xdb;" horiz-adv-x="1063" d="M119 342v1143h147v-1071q0 -178 50 -232.5t198 -54.5h43q144 0 192 52t48 235v1071h147v-1143q0 -192 -92.5 -276t-302.5 -84h-35q-210 0 -302.5 84t-92.5 276zM245 1613l197 351h178l197 -351h-107l-178 244l-180 -244h-107z" />
<glyph unicode="&#xdc;" horiz-adv-x="1063" d="M119 342v1143h147v-1071q0 -178 50 -232.5t198 -54.5h43q144 0 192 52t48 235v1071h147v-1143q0 -192 -92.5 -276t-302.5 -84h-35q-210 0 -302.5 84t-92.5 276zM292 1679v186h160v-186h-160zM612 1679v186h160v-186h-160z" />
<glyph unicode="&#xdd;" horiz-adv-x="872" d="M-18 1485h161l299 -717l299 717h148l-373 -864v-621h-145v621zM299 1613l209 351h178l-281 -351h-106z" />
<glyph unicode="&#xde;" horiz-adv-x="1006" d="M123 0v1485h147v-289h252q256 0 339 -77.5t83 -291.5v-170q0 -214 -83 -291t-339 -77h-252v-289h-147zM270 426h230q181 0 232.5 40t51.5 150v254q0 109 -49 148t-235 39h-230v-631z" />
<glyph unicode="&#xdf;" horiz-adv-x="944" d="M125 0v1114q0 220 77 309.5t261 89.5q171 0 250.5 -89t79.5 -283q0 -146 -54 -219.5t-176 -96.5q149 -10 219 -90.5t70 -238.5v-154q0 -184 -76 -272t-233 -88q-48 0 -90.5 8t-81.5 24v129q41 -18 81 -27.5t78 -9.5q95 0 137 57t42 189v115q0 161 -67 222t-241 61h-30 v122q5 0 16 -1t16 -1q125 0 187.5 70.5t62.5 210.5q0 120 -46 179t-140 59q-115 0 -162 -68.5t-47 -247.5v-1073h-133z" />
<glyph unicode="&#xe0;" horiz-adv-x="844" d="M90 244v139q0 131 70 198.5t205 67.5q84 0 140.5 -22t92.5 -68v162q0 133 -35.5 174t-142.5 41q-88 0 -125 -30.5t-37 -100.5v-49h-137v47q0 134 73 196t232 62q172 0 237.5 -65.5t65.5 -239.5v-756h-131v94q-35 -61 -93 -87.5t-157 -26.5q-130 0 -194 65t-64 199z M188 1518h178l209 -351h-106zM229 301q0 -108 39.5 -153.5t130.5 -45.5q111 0 157 49.5t46 172.5q0 118 -38.5 159t-147.5 41q-111 0 -149 -44.5t-38 -178.5z" />
<glyph unicode="&#xe1;" horiz-adv-x="844" d="M90 244v139q0 131 70 198.5t205 67.5q84 0 140.5 -22t92.5 -68v162q0 133 -35.5 174t-142.5 41q-88 0 -125 -30.5t-37 -100.5v-49h-137v47q0 134 73 196t232 62q172 0 237.5 -65.5t65.5 -239.5v-756h-131v94q-35 -61 -93 -87.5t-157 -26.5q-130 0 -194 65t-64 199z M229 301q0 -108 39.5 -153.5t130.5 -45.5q111 0 157 49.5t46 172.5q0 118 -38.5 159t-147.5 41q-111 0 -149 -44.5t-38 -178.5zM301 1167l209 351h178l-281 -351h-106z" />
<glyph unicode="&#xe2;" horiz-adv-x="844" d="M90 244v139q0 131 70 198.5t205 67.5q84 0 140.5 -22t92.5 -68v162q0 133 -35.5 174t-142.5 41q-88 0 -125 -30.5t-37 -100.5v-49h-137v47q0 134 73 196t232 62q172 0 237.5 -65.5t65.5 -239.5v-756h-131v94q-35 -61 -93 -87.5t-157 -26.5q-130 0 -194 65t-64 199z M151 1167l197 351h178l197 -351h-107l-178 244l-180 -244h-107zM229 301q0 -108 39.5 -153.5t130.5 -45.5q111 0 157 49.5t46 172.5q0 118 -38.5 159t-147.5 41q-111 0 -149 -44.5t-38 -178.5z" />
<glyph unicode="&#xe3;" horiz-adv-x="844" d="M90 244v139q0 131 70 198.5t205 67.5q84 0 140.5 -22t92.5 -68v162q0 133 -35.5 174t-142.5 41q-88 0 -125 -30.5t-37 -100.5v-49h-137v47q0 134 73 196t232 62q172 0 237.5 -65.5t65.5 -239.5v-756h-131v94q-35 -61 -93 -87.5t-157 -26.5q-130 0 -194 65t-64 199z M147 1227q22 91 72.5 138.5t126.5 47.5q14 0 29 -2.5t30 -7.5l79 -27q16 -5 32 -7.5t28 -2.5q36 0 60.5 17.5t36.5 52.5h88q-24 -94 -75.5 -143.5t-123.5 -49.5q-16 0 -31.5 2.5t-33.5 7.5l-80 27q-16 5 -29 7.5t-24 2.5q-35 0 -58.5 -15t-38.5 -48h-88zM229 301 q0 -108 39.5 -153.5t130.5 -45.5q111 0 157 49.5t46 172.5q0 118 -38.5 159t-147.5 41q-111 0 -149 -44.5t-38 -178.5z" />
<glyph unicode="&#xe4;" horiz-adv-x="844" d="M90 244v139q0 131 70 198.5t205 67.5q84 0 140.5 -22t92.5 -68v162q0 133 -35.5 174t-142.5 41q-88 0 -125 -30.5t-37 -100.5v-49h-137v47q0 134 73 196t232 62q172 0 237.5 -65.5t65.5 -239.5v-756h-131v94q-35 -61 -93 -87.5t-157 -26.5q-130 0 -194 65t-64 199z M198 1233v186h160v-186h-160zM229 301q0 -108 39.5 -153.5t130.5 -45.5q111 0 157 49.5t46 172.5q0 118 -38.5 159t-147.5 41q-111 0 -149 -44.5t-38 -178.5zM518 1233v186h160v-186h-160z" />
<glyph unicode="&#xe5;" horiz-adv-x="844" d="M90 244v139q0 131 70 198.5t205 67.5q84 0 140.5 -22t92.5 -68v162q0 133 -35.5 174t-142.5 41q-88 0 -125 -30.5t-37 -100.5v-49h-137v47q0 134 73 196t232 62q172 0 237.5 -65.5t65.5 -239.5v-756h-131v94q-35 -61 -93 -87.5t-157 -26.5q-130 0 -194 65t-64 199z M188 1372q0 105 72 176.5t176 71.5q105 0 176.5 -71.5t71.5 -176.5q0 -104 -71.5 -176t-176.5 -72q-104 0 -176 72t-72 176zM229 301q0 -108 39.5 -153.5t130.5 -45.5q111 0 157 49.5t46 172.5q0 118 -38.5 159t-147.5 41q-111 0 -149 -44.5t-38 -178.5zM293 1370 q0 -59 41.5 -100t101.5 -41t101 40.5t41 100.5t-41 101.5t-101 41.5q-61 0 -102 -41t-41 -102z" />
<glyph unicode="&#xe6;" horiz-adv-x="1327" d="M92 244v139q0 131 68.5 198.5t201.5 67.5q83 0 138.5 -21.5t91.5 -68.5v162q0 132 -34.5 172.5t-139.5 40.5q-86 0 -123 -30.5t-37 -98.5v-49h-137v47q0 133 72 195.5t227 62.5q108 0 165.5 -23.5t90.5 -79.5q32 51 95 77t155 26q182 0 254.5 -92t72.5 -326v-149h-522 v-99q0 -179 39 -229.5t154 -50.5q119 0 164 38t45 136v33h118v-35q0 -163 -76.5 -235t-250.5 -72q-118 0 -187 35.5t-102 113.5q-45 -82 -108.5 -115.5t-178.5 -33.5q-131 0 -193.5 64t-62.5 200zM229 301q0 -107 39 -153t129 -46q110 0 154.5 49t44.5 173q0 118 -37.5 159 t-144.5 41q-110 0 -147.5 -44.5t-37.5 -178.5zM731 623h393v65q0 144 -42 195t-154 51q-113 0 -155 -51.5t-42 -194.5v-65z" />
<glyph unicode="&#xe7;" horiz-adv-x="829" d="M96 397v246q0 231 76 322.5t268 91.5q161 0 231 -71.5t70 -235.5v-52h-133v19q0 113 -41 160t-141 47q-111 0 -149.5 -51t-38.5 -230v-248q0 -178 40 -230t154 -52q112 0 153.5 46.5t41.5 182.5v41h137v-43q0 -189 -77 -273.5t-249 -84.5q-190 0 -266 91.5t-76 323.5z M213 -336q74 -17 136.5 -26t109.5 -9q60 0 90.5 20.5t30.5 61.5q0 52 -33 75.5t-107 23.5q-20 0 -30.5 -0.5t-20.5 -1.5v192h74v-106h22q112 0 169 -45t57 -132q0 -89 -62.5 -135.5t-183.5 -46.5q-45 0 -104.5 10t-147.5 33v86z" />
<glyph unicode="&#xe8;" horiz-adv-x="858" d="M96 397v246q0 231 76 322.5t268 91.5q190 0 265 -91t75 -323v-149h-542v-99q0 -181 40 -230.5t160 -49.5q126 0 171.5 37t45.5 137v33h123v-35q0 -162 -79.5 -233.5t-260.5 -71.5q-189 0 -265.5 92t-76.5 323zM201 1518h178l209 -351h-106zM238 623h409v65 q0 144 -43.5 195t-161.5 51q-117 0 -160.5 -51.5t-43.5 -194.5v-65z" />
<glyph unicode="&#xe9;" horiz-adv-x="858" d="M96 397v246q0 231 76 322.5t268 91.5q190 0 265 -91t75 -323v-149h-542v-99q0 -181 40 -230.5t160 -49.5q126 0 171.5 37t45.5 137v33h123v-35q0 -162 -79.5 -233.5t-260.5 -71.5q-189 0 -265.5 92t-76.5 323zM238 623h409v65q0 144 -43.5 195t-161.5 51 q-117 0 -160.5 -51.5t-43.5 -194.5v-65zM314 1167l209 351h178l-281 -351h-106z" />
<glyph unicode="&#xea;" horiz-adv-x="858" d="M96 397v246q0 231 76 322.5t268 91.5q190 0 265 -91t75 -323v-149h-542v-99q0 -181 40 -230.5t160 -49.5q126 0 171.5 37t45.5 137v33h123v-35q0 -162 -79.5 -233.5t-260.5 -71.5q-189 0 -265.5 92t-76.5 323zM164 1167l197 351h178l197 -351h-107l-178 244l-180 -244 h-107zM238 623h409v65q0 144 -43.5 195t-161.5 51q-117 0 -160.5 -51.5t-43.5 -194.5v-65z" />
<glyph unicode="&#xeb;" horiz-adv-x="858" d="M96 397v246q0 231 76 322.5t268 91.5q190 0 265 -91t75 -323v-149h-542v-99q0 -181 40 -230.5t160 -49.5q126 0 171.5 37t45.5 137v33h123v-35q0 -162 -79.5 -233.5t-260.5 -71.5q-189 0 -265.5 92t-76.5 323zM211 1233v186h160v-186h-160zM238 623h409v65 q0 144 -43.5 195t-161.5 51q-117 0 -160.5 -51.5t-43.5 -194.5v-65zM531 1233v186h160v-186h-160z" />
<glyph unicode="&#xec;" horiz-adv-x="350" d="M-74 1518h178l209 -351h-106zM113 0v1038h133v-1038h-133z" />
<glyph unicode="&#xed;" horiz-adv-x="350" d="M39 1167l209 351h178l-281 -351h-106zM113 0v1038h133v-1038h-133z" />
<glyph unicode="&#xee;" horiz-adv-x="350" d="M-111 1167l197 351h178l197 -351h-107l-178 244l-180 -244h-107zM113 0v1038h133v-1038h-133z" />
<glyph unicode="&#xef;" horiz-adv-x="350" d="M-64 1233v186h160v-186h-160zM113 0v1038h133v-1038h-133zM256 1233v186h160v-186h-160z" />
<glyph unicode="&#xf0;" horiz-adv-x="877" d="M96 397v246q0 221 72 317.5t233 96.5q74 0 121.5 -27.5t98.5 -99.5q-23 88 -62.5 176.5t-93.5 173.5l-297 -106l-43 104l270 98l-76 113h150l45 -66l184 68l45 -107l-153 -57q97 -157 143.5 -323.5t46.5 -352.5v-254q0 -232 -75.5 -323.5t-266.5 -91.5q-189 0 -265.5 92 t-76.5 323zM238 395q0 -178 41 -230t159 -52t159.5 53t41.5 229v248q0 177 -41 229t-160 52q-118 0 -159 -53t-41 -228v-248z" />
<glyph unicode="&#xf1;" horiz-adv-x="883" d="M121 0v1038h123v-120q39 70 102 104.5t152 34.5q145 0 208.5 -83.5t63.5 -277.5v-696h-133v659q0 156 -38 216.5t-130 60.5q-116 0 -165.5 -79t-49.5 -275v-582h-133zM151 1227q22 91 72.5 138.5t126.5 47.5q14 0 29 -2.5t30 -7.5l79 -27q16 -5 32 -7.5t28 -2.5 q36 0 60.5 17.5t36.5 52.5h88q-24 -94 -75.5 -143.5t-123.5 -49.5q-16 0 -31.5 2.5t-33.5 7.5l-80 27q-16 5 -29 7.5t-24 2.5q-35 0 -58.5 -15t-38.5 -48h-88z" />
<glyph unicode="&#xf2;" horiz-adv-x="877" d="M96 397v246q0 231 76 322.5t268 91.5q190 0 265 -91t75 -323v-246q0 -232 -75.5 -323.5t-266.5 -91.5q-189 0 -265.5 92t-76.5 323zM188 1518h178l209 -351h-106zM238 395q0 -178 41 -230t159 -52t159.5 53t41.5 229v248q0 177 -41 229t-160 52q-118 0 -159 -53t-41 -228 v-248z" />
<glyph unicode="&#xf3;" horiz-adv-x="877" d="M96 397v246q0 231 76 322.5t268 91.5q190 0 265 -91t75 -323v-246q0 -232 -75.5 -323.5t-266.5 -91.5q-189 0 -265.5 92t-76.5 323zM238 395q0 -178 41 -230t159 -52t159.5 53t41.5 229v248q0 177 -41 229t-160 52q-118 0 -159 -53t-41 -228v-248zM301 1167l209 351h178 l-281 -351h-106z" />
<glyph unicode="&#xf4;" horiz-adv-x="877" d="M96 397v246q0 231 76 322.5t268 91.5q190 0 265 -91t75 -323v-246q0 -232 -75.5 -323.5t-266.5 -91.5q-189 0 -265.5 92t-76.5 323zM151 1167l197 351h178l197 -351h-107l-178 244l-180 -244h-107zM238 395q0 -178 41 -230t159 -52t159.5 53t41.5 229v248q0 177 -41 229 t-160 52q-118 0 -159 -53t-41 -228v-248z" />
<glyph unicode="&#xf5;" horiz-adv-x="877" d="M96 397v246q0 231 76 322.5t268 91.5q190 0 265 -91t75 -323v-246q0 -232 -75.5 -323.5t-266.5 -91.5q-189 0 -265.5 92t-76.5 323zM147 1227q22 91 72.5 138.5t126.5 47.5q14 0 29 -2.5t30 -7.5l79 -27q16 -5 32 -7.5t28 -2.5q36 0 60.5 17.5t36.5 52.5h88 q-24 -94 -75.5 -143.5t-123.5 -49.5q-16 0 -31.5 2.5t-33.5 7.5l-80 27q-16 5 -29 7.5t-24 2.5q-35 0 -58.5 -15t-38.5 -48h-88zM238 395q0 -178 41 -230t159 -52t159.5 53t41.5 229v248q0 177 -41 229t-160 52q-118 0 -159 -53t-41 -228v-248z" />
<glyph unicode="&#xf6;" horiz-adv-x="877" d="M96 397v246q0 231 76 322.5t268 91.5q190 0 265 -91t75 -323v-246q0 -232 -75.5 -323.5t-266.5 -91.5q-189 0 -265.5 92t-76.5 323zM198 1233v186h160v-186h-160zM238 395q0 -178 41 -230t159 -52t159.5 53t41.5 229v248q0 177 -41 229t-160 52q-118 0 -159 -53t-41 -228 v-248zM518 1233v186h160v-186h-160z" />
<glyph unicode="&#xf7;" horiz-adv-x="1706" d="M254 561v98h1198v-98h-1198zM748 258q0 44 31 75.5t75 31.5q45 0 76 -31t31 -76q0 -44 -31 -75t-76 -31t-75.5 31t-30.5 75zM748 963q0 44 31.5 76t74.5 32q44 0 75.5 -32t31.5 -76q0 -45 -31 -76t-76 -31t-75.5 30.5t-30.5 76.5z" />
<glyph unicode="&#xf8;" horiz-adv-x="877" d="M29 -68l112 189q-21 38 -33 111.5t-12 164.5v246q0 231 76 322.5t268 91.5q75 0 130.5 -13.5t99.5 -42.5l78 127l75 -45l-92 -157q24 -42 36.5 -114.5t12.5 -168.5v-246q0 -232 -75.5 -323.5t-266.5 -91.5q-84 0 -143.5 15.5t-95.5 47.5l-95 -160zM231 279l367 602 q-22 25 -59.5 36t-104.5 11q-118 0 -160.5 -55t-42.5 -230v-364zM272 166q21 -28 61.5 -41.5t104.5 -13.5q122 0 164.5 53t42.5 231v248q0 32 -1 62t-3 63z" />
<glyph unicode="&#xf9;" horiz-adv-x="883" d="M113 342v696h133v-659q0 -154 38.5 -215.5t131.5 -61.5q115 0 164 78.5t49 276.5v581h133v-1038h-123v121q-40 -70 -103 -104.5t-151 -34.5q-145 0 -208.5 83t-63.5 277zM192 1518h178l209 -351h-106z" />
<glyph unicode="&#xfa;" horiz-adv-x="883" d="M113 342v696h133v-659q0 -154 38.5 -215.5t131.5 -61.5q115 0 164 78.5t49 276.5v581h133v-1038h-123v121q-40 -70 -103 -104.5t-151 -34.5q-145 0 -208.5 83t-63.5 277zM305 1167l209 351h178l-281 -351h-106z" />
<glyph unicode="&#xfb;" horiz-adv-x="883" d="M113 342v696h133v-659q0 -154 38.5 -215.5t131.5 -61.5q115 0 164 78.5t49 276.5v581h133v-1038h-123v121q-40 -70 -103 -104.5t-151 -34.5q-145 0 -208.5 83t-63.5 277zM155 1167l197 351h178l197 -351h-107l-178 244l-180 -244h-107z" />
<glyph unicode="&#xfc;" horiz-adv-x="883" d="M113 342v696h133v-659q0 -154 38.5 -215.5t131.5 -61.5q115 0 164 78.5t49 276.5v581h133v-1038h-123v121q-40 -70 -103 -104.5t-151 -34.5q-145 0 -208.5 83t-63.5 277zM202 1233v186h160v-186h-160zM522 1233v186h160v-186h-160z" />
<glyph unicode="&#xfd;" horiz-adv-x="793" d="M35 1038h139l225 -909l226 909h131l-267 -1038q-57 -226 -120.5 -305.5t-169.5 -79.5q-21 0 -43.5 2.5t-46.5 7.5v125q19 -2 30 -3t19 -1q70 0 112 40.5t66 131.5l20 82h-55zM260 1167l209 351h178l-281 -351h-106z" />
<glyph unicode="&#xfe;" horiz-adv-x="877" d="M121 -385v1896h133v-585q42 64 105.5 97.5t146.5 33.5q150 0 214 -106.5t64 -366.5v-160q0 -238 -66 -340t-216 -102q-80 0 -143.5 33t-104.5 98v-498h-133zM254 436q0 -188 47 -257.5t164 -69.5q98 0 138 70t40 251v178q0 182 -40 252t-138 70q-117 0 -164 -69.5 t-47 -258.5v-166z" />
<glyph unicode="&#xff;" horiz-adv-x="793" d="M35 1038h139l225 -909l226 909h131l-267 -1038q-57 -226 -120.5 -305.5t-169.5 -79.5q-21 0 -43.5 2.5t-46.5 7.5v125q19 -2 30 -3t19 -1q70 0 112 40.5t66 131.5l20 82h-55zM157 1233v186h160v-186h-160zM477 1233v186h160v-186h-160z" />
<glyph unicode="&#x152;" horiz-adv-x="1427" d="M109 483v516q0 267 78.5 385.5t252.5 118.5h103q78 0 141 -33t102 -96v111h588v-144h-459v-501h420v-138h-420v-561h459v-141h-588v106q-39 -60 -101.5 -92t-141.5 -32h-103q-175 0 -253 117.5t-78 383.5zM266 483q0 -215 44.5 -285.5t162.5 -70.5h74q118 0 162.5 70.5 t44.5 285.5v516q0 215 -44.5 286t-162.5 71h-74q-118 0 -162.5 -70.5t-44.5 -286.5v-516z" />
<glyph unicode="&#x153;" horiz-adv-x="1352" d="M96 397v246q0 230 73.5 322t256.5 92q98 0 161.5 -24t100.5 -75q35 52 97.5 75.5t162.5 23.5q184 0 257 -91.5t73 -322.5v-149h-522v-99q0 -179 39 -229.5t153 -50.5q120 0 164.5 38t44.5 136v33h119v-35q0 -162 -77 -233.5t-253 -71.5q-99 0 -161.5 23t-100.5 75 q-35 -51 -97 -74.5t-163 -23.5q-182 0 -255 91.5t-73 323.5zM231 395q0 -178 40 -230t153 -52t152.5 53t39.5 229v248q0 177 -39.5 229t-152.5 52t-153 -53t-40 -228v-248zM754 623h395v65q0 145 -42 195.5t-155 50.5t-155.5 -52t-42.5 -194v-65z" />
<glyph unicode="&#x178;" horiz-adv-x="872" d="M-18 1485h161l299 -717l299 717h148l-373 -864v-621h-145v621zM196 1679v186h160v-186h-160zM516 1679v186h160v-186h-160z" />
<glyph unicode="&#x2c6;" d="M225 1167l197 351h178l197 -351h-107l-178 244l-180 -244h-107z" />
<glyph unicode="&#x2dc;" d="M221 1227q22 91 72.5 138.5t126.5 47.5q14 0 29 -2.5t30 -7.5l79 -27q16 -5 32 -7.5t28 -2.5q36 0 60.5 17.5t36.5 52.5h88q-24 -94 -75.5 -143.5t-123.5 -49.5q-16 0 -31.5 2.5t-33.5 7.5l-80 27q-16 5 -29 7.5t-24 2.5q-35 0 -58.5 -15t-38.5 -48h-88z" />
<glyph unicode="&#x2000;" horiz-adv-x="986" />
<glyph unicode="&#x2001;" horiz-adv-x="1972" />
<glyph unicode="&#x2002;" horiz-adv-x="986" />
<glyph unicode="&#x2003;" horiz-adv-x="1972" />
<glyph unicode="&#x2004;" horiz-adv-x="657" />
<glyph unicode="&#x2005;" horiz-adv-x="493" />
<glyph unicode="&#x2006;" horiz-adv-x="328" />
<glyph unicode="&#x2007;" horiz-adv-x="328" />
<glyph unicode="&#x2008;" horiz-adv-x="246" />
<glyph unicode="&#x2009;" horiz-adv-x="394" />
<glyph unicode="&#x200a;" horiz-adv-x="109" />
<glyph unicode="&#x2010;" horiz-adv-x="616" d="M84 467v129h448v-129h-448z" />
<glyph unicode="&#x2011;" horiz-adv-x="616" d="M84 467v129h448v-129h-448z" />
<glyph unicode="&#x2012;" horiz-adv-x="616" d="M84 467v129h448v-129h-448z" />
<glyph unicode="&#x2013;" d="M0 481v101h1024v-101h-1024z" />
<glyph unicode="&#x2014;" horiz-adv-x="2048" d="M0 481v101h2048v-101h-2048z" />
<glyph unicode="&#x2018;" horiz-adv-x="512" d="M176 1061v256q0 100 30 143t99 43q9 0 16.5 -0.5t14.5 -1.5v-79q-37 -2 -52.5 -17.5t-15.5 -52.5v-92h58v-199h-150z" />
<glyph unicode="&#x2019;" horiz-adv-x="512" d="M176 1045v79q37 2 51.5 17t14.5 53v90h-56v201h150v-256q0 -100 -30 -143.5t-99 -43.5q-9 0 -16 0.5t-15 2.5z" />
<glyph unicode="&#x201a;" horiz-adv-x="512" d="M170 -160q38 2 53 16.5t15 51.5v92h-58v199h150v-256q0 -101 -30.5 -144t-98.5 -43q-10 0 -16.5 0.5t-14.5 2.5v81z" />
<glyph unicode="&#x201c;" horiz-adv-x="797" d="M176 1061v256q0 100 30 143t99 43q9 0 16.5 -0.5t14.5 -1.5v-79q-37 -2 -52.5 -17.5t-15.5 -52.5v-92h58v-199h-150zM461 1061v256q0 101 29.5 143.5t97.5 42.5q10 0 18 -0.5t14 -1.5v-80q-38 -2 -52.5 -17t-14.5 -52v-92h57v-199h-149z" />
<glyph unicode="&#x201d;" horiz-adv-x="797" d="M176 1045v79q37 2 51.5 17t14.5 53v90h-56v201h150v-256q0 -100 -30 -143.5t-99 -43.5q-9 0 -16 0.5t-15 2.5zM461 1045v79q37 2 51 17t14 53v90h-57v201h152v-256q0 -100 -30.5 -143.5t-98.5 -43.5q-10 0 -16.5 0.5t-14.5 2.5z" />
<glyph unicode="&#x201e;" horiz-adv-x="797" d="M170 -160q38 2 53 16.5t15 51.5v92h-58v199h150v-256q0 -101 -30.5 -144t-98.5 -43q-10 0 -16.5 0.5t-14.5 2.5v81zM455 -160q37 2 51 16t14 52v92h-55v199h149v-256q0 -101 -30 -144t-99 -43q-9 0 -16 0.5t-14 1.5v82z" />
<glyph unicode="&#x2022;" horiz-adv-x="1208" d="M307 762q0 123 87 209t210 86q122 0 208.5 -86.5t86.5 -208.5t-87.5 -209.5t-209.5 -87.5q-123 0 -209 87t-86 210z" />
<glyph unicode="&#x2026;" horiz-adv-x="2048" d="M266 0v199h152v-199h-152zM948 0v199h152v-199h-152zM1632 0v199h152v-199h-152z" />
<glyph unicode="&#x202f;" horiz-adv-x="394" />
<glyph unicode="&#x2039;" horiz-adv-x="487" d="M96 518l178 324h144l-176 -324l176 -321h-144z" />
<glyph unicode="&#x203a;" horiz-adv-x="487" d="M70 197l178 321l-178 324h145l178 -324l-178 -321h-145z" />
<glyph unicode="&#x205f;" horiz-adv-x="493" />
<glyph unicode="&#x2122;" horiz-adv-x="1706" d="M264 1397v57h430v-57h-172v-473h-82v473h-176zM821 924v530h117l166 -422l156 422h116v-530h-71v467l-177 -467h-49l-186 467v-467h-72z" />
<glyph unicode="&#x25fc;" horiz-adv-x="1040" d="M0 0v1040h1040v-1040h-1040z" />
</font>
</defs>
</svg>
