<?xml version="1.0" standalone="no"?>
<!DOCTYPE svg PUBLIC "-//W3C//DTD SVG 1.1//EN" "http://www.w3.org/Graphics/SVG/1.1/DTD/svg11.dtd" >
<svg xmlns="http://www.w3.org/2000/svg">
<metadata>Generated by IcoMoon</metadata>
<defs>
<font id="icomoon" horiz-adv-x="1024">
<font-face units-per-em="1024" ascent="960" descent="-64" />
<missing-glyph horiz-adv-x="1024" />
<glyph unicode="&#x20;" horiz-adv-x="512" d="" />
<glyph unicode="&#xe900;" glyph-name="s-Unlink_16" d="M256 972.8v-128h-128v-128h256v256h-128zM748.8 966.4c-25.6 0-44.8-6.4-70.4-12.8-32-12.8-70.4-32-96-57.6l-51.2-57.6c-19.2-12.8-32-38.4-25.6-64s25.6-44.8 51.2-51.2c19.2-6.4 51.2 6.4 64 32l57.6 57.6c12.8 12.8 32 19.2 51.2 25.6 38.4 12.8 96 6.4 128-32 51.2-51.2 51.2-134.4 0-185.6l-192-192c-19.2-12.8-32-38.4-25.6-64s25.6-44.8 51.2-51.2c25.6-6.4 51.2 6.4 64 25.6l192 192c102.4 102.4 102.4 262.4 0 358.4-38.4 38.4-76.8 57.6-121.6 70.4-25.6 6.4-51.2 6.4-76.8 6.4v0zM294.4 595.2c-12.8-6.4-19.2-12.8-25.6-19.2l-192-192c-102.4-102.4-102.4-262.4 0-358.4 70.4-70.4 172.8-89.6 262.4-57.6 32 12.8 70.4 32 96 57.6l57.6 57.6c19.2 12.8 32 38.4 25.6 64s-25.6 44.8-51.2 51.2c-25.6 6.4-51.2-6.4-64-25.6l-57.6-57.6c-12.8-12.8-32-19.2-51.2-25.6-38.4-19.2-96-12.8-134.4 25.6-51.2 51.2-51.2 134.4 0 185.6l192 192c19.2 19.2 25.6 51.2 12.8 76.8-12.8 19.2-38.4 32-70.4 25.6 0 0 0 0 0 0v0zM640 204.8v-256h128v128h128v128h-256z" />
<glyph unicode="&#xe901;" glyph-name="s-Search_16" d="M998.4 96l-294.4 300.8c32 57.6 51.2 121.6 51.2 192 0 211.2-166.4 384-377.6 384s-377.6-172.8-377.6-384 166.4-384 377.6-384c64 0 128 19.2 185.6 51.2l300.8-307.2 134.4 147.2zM102.4 588.8c0 153.6 121.6 281.6 275.2 281.6s275.2-128 275.2-281.6-121.6-281.6-275.2-281.6-275.2 128-275.2 281.6v0z" />
<glyph unicode="&#xe902;" glyph-name="s-Refresh_16" d="M1024 460.8h-128c0-108.8-44.8-204.8-115.2-268.8-70.4-70.4-166.4-115.2-268.8-115.2-108.8 0-204.8 44.8-275.2 108.8l-64 64 89.6 89.6h-262.4v-262.4l83.2 83.2 64-64c96-89.6 224-147.2 364.8-147.2s268.8 57.6 364.8 153.6c89.6 89.6 147.2 217.6 147.2 358.4v0zM512 972.8c-140.8 0-268.8-57.6-358.4-153.6s-153.6-217.6-153.6-358.4h128c0 108.8 44.8 204.8 115.2 268.8 70.4 70.4 166.4 115.2 268.8 115.2 108.8 0 204.8-44.8 275.2-108.8l64-64-89.6-89.6h262.4v256l-83.2-83.2-64 64c-96 96-224 153.6-364.8 153.6v0z" />
<glyph unicode="&#xe903;" glyph-name="s-RadioButton2_16" d="M512 908.8c249.6 0 448-198.4 448-448s-198.4-448-448-448-448 198.4-448 448 198.4 448 448 448zM512 972.8c-281.6 0-512-230.4-512-512s230.4-512 512-512 512 230.4 512 512-230.4 512-512 512v0z" />
<glyph unicode="&#xe904;" glyph-name="s-RadioButton1_16" d="M512 972.8c-281.6 0-512-230.4-512-512s230.4-512 512-512 512 230.4 512 512-230.4 512-512 512zM512 268.8c-108.8 0-192 83.2-192 192s83.2 192 192 192 192-83.2 192-192-83.2-192-192-192z" />
<glyph unicode="&#xe905;" glyph-name="s-Ok2_32" d="M512-51.2c281.6 0 512 230.4 512 512s-230.4 512-512 512-512-230.4-512-512 230.4-512 512-512zM691.2 652.8l73.6-60.8c3.2-3.2 3.2-6.4 0-9.6l-297.6-352c0-3.2-3.2-3.2-6.4-3.2h-3.2l-198.4 166.4c-3.2 3.2-3.2 6.4-3.2 9.6l60.8 73.6c3.2 3.2 6.4 3.2 9.6 0l121.6-99.2 233.6 275.2c3.2 0 6.4 0 9.6 0z" />
<glyph unicode="&#xe906;" glyph-name="s-Ok1_16" d="M870.4 876.8l147.2-121.6c2.869-2.246 4.696-5.71 4.696-9.6s-1.827-7.354-4.67-9.58l-595.227-704.020c0-6.4-6.4-6.4-12.8-6.4h-6.4l-396.8 332.8c-4.411 4.305-7.147 10.309-7.147 16.953 0 0.791 0.039 1.574 0.115 2.345l121.592 147.102c2.246 2.869 5.71 4.696 9.6 4.696s7.354-1.827 9.58-4.67l243.22-198.427 467.2 550.4h19.2z" />
<glyph unicode="&#xe907;" glyph-name="s-Edit_16" d="M64 281.6v-192h185.6zM934.4 780.8l-185.6 192-620.8-627.2 185.6-192zM64 12.8h704v-64h-704v64z" />
<glyph unicode="&#xe908;" glyph-name="s-Dropdown_16" d="M512 268.8l384 384h-768z" />
<glyph unicode="&#xe909;" glyph-name="s-Delete_16" d="M576 652.8h64v-448h-64v448zM384 652.8h64v-448h-64v448zM768 140.8c0-38.4-25.6-64-64-64h-384c-38.4 0-64 25.6-64 64v576h-64v-576c0-70.4 57.6-128 128-128h384c70.4 0 128 57.6 128 128v576h-64v-576zM640 844.8c0 70.4-57.6 128-128 128s-128-57.6-128-128h-256v-64h768v64h-256zM448 844.8c0 38.4 25.6 64 64 64s64-25.6 64-64h-128z" />
<glyph unicode="&#xe90a;" glyph-name="s-Date_16" d="M211.2 870.4h-44.8c-57.6 0-102.4-44.8-102.4-102.4v-716.8c0-57.6 44.8-102.4 102.4-102.4h697.6c57.6 0 102.4 44.8 102.4 102.4v716.8c0 57.6-44.8 102.4-102.4 102.4h-51.2v102.4h-102.4v-102.4h-396.8v102.4h-102.4v-102.4zM857.6 51.2h-691.2v563.2h697.6v-563.2h-6.4zM512 409.6h249.6v-256h-249.6v256z" />
<glyph unicode="&#xe90b;" glyph-name="s-ClosePopup_16" d="M601.6 454.4l313.6 313.6-89.6 89.6-307.2-313.6-313.6 320-96-96 313.6-313.6-313.6-313.6 89.6-89.6 313.6 313.6 313.6-313.6 89.6 89.6-313.6 313.6z" />
<glyph unicode="&#xe90c;" glyph-name="s-Checkbox2_16" d="M960 908.8v-896h-896v896h896zM1024 972.8h-1024v-1024h1024v1024z" />
<glyph unicode="&#xe90d;" glyph-name="s-Checkbox1_16" d="M0 972.8v-1024h1024v1024h-1024zM467.2 460.8l-403.2-403.2v806.4l403.2-403.2zM108.8 908.8h806.4l-403.2-403.2-403.2 403.2zM512 416l403.2-403.2h-806.4l403.2 403.2zM556.8 460.8l403.2 403.2v-806.4l-403.2 403.2z" />
<glyph unicode="&#xe90e;" glyph-name="s-Cancel_16" d="M185.6 908.8c-6.4 0-12.8 0-19.2-6.4l-102.4-102.4c-6.4-6.4-6.4-25.6 6.4-38.4l300.8-300.8-300.8-300.8c-12.8-12.8-12.8-25.6-6.4-38.4l102.4-102.4c6.4-6.4 25.6-6.4 38.4 6.4l300.8 300.8 300.8-300.8c12.8-12.8 25.6-12.8 38.4-6.4l102.4 102.4c6.4 6.4 6.4 25.6-6.4 38.4l-294.4 300.8 300.8 300.8c12.8 12.8 12.8 25.6 6.4 38.4l-102.4 102.4c-6.4 6.4-25.6 6.4-38.4-6.4l-300.8-300.8-300.8 300.8c-6.4 6.4-12.8 12.8-25.6 12.8v0z" />
<glyph unicode="&#xe90f;" glyph-name="s-BackButton_28" d="M1005.714 533.943h-720.457l292.571 292.571-102.4 106.057-365.714-369.371-106.057-102.4 475.429-475.429 102.4 106.057-296.229 296.229h720.457z" />
<glyph unicode="&#xe910;" glyph-name="s-Arrow3_16" d="M736 729.6l-89.6 89.6-358.4-358.4 358.4-358.4 89.6 89.6-268.8 268.8z" />
<glyph unicode="&#xe911;" glyph-name="s-Arrow2_16" d="M780.8 684.8l-268.8-268.8-268.8 268.8-89.6-89.6 358.4-358.4 358.4 358.4z" />
<glyph unicode="&#xe912;" glyph-name="s-Arrow1_16" d="M288 192l89.6-89.6 358.4 358.4-358.4 358.4-89.6-89.6 268.8-268.8z" />
<glyph unicode="&#xe913;" glyph-name="canto-eye-16" d="M608 460.8c0-53.019-42.981-96-96-96s-96 42.981-96 96c0 53.019 42.981 96 96 96s96-42.981 96-96zM512 716.8c-140.8 0-256-115.2-256-256s115.2-256 256-256 256 115.2 256 256-115.2 256-256 256zM512 268.8c-108.8 0-192 83.2-192 192s83.2 192 192 192 192-83.2 192-192-83.2-192-192-192zM512 844.8c-320 0-512-384-512-384s192-384 512-384 512 384 512 384-192 384-512 384zM512 140.8c-230.4 0-390.4 236.8-441.6 320 51.2 83.2 211.2 320 441.6 320s390.4-236.8 441.6-320c-51.2-83.2-211.2-320-441.6-320z" />
<glyph unicode="&#xe914;" glyph-name="s-box-56" d="M188.891 514.743c-0.043 0-0.095 0-0.147 0-31.294 0-60.371-9.494-84.507-25.76l0.539 164.914c0.001 0.109 0.002 0.238 0.002 0.368 0 18.582-15.064 33.646-33.646 33.646-0.129 0-0.258-0.001-0.387-0.002-0.144 0.003-0.336 0.005-0.529 0.005-18.582 0-33.646-15.064-33.646-33.646 0-0.066 0-0.132 0.001-0.197v-283.784s0-1.829 0-2.56 0-3.474 0-5.303c0-84.124 68.196-152.32 152.32-152.32s152.32 68.196 152.32 152.32c0 84.124-68.196 152.32-152.32 152.32zM188.891 278.309c-46.455 0-84.114 37.659-84.114 84.114s37.659 84.114 84.114 84.114c46.455 0 84.114-37.659 84.114-84.114 0-0.054 0-0.119 0-0.183 0-46.492-37.637-84.193-84.105-84.297zM515.474 514.743c-84.124 0-152.32-68.196-152.32-152.32s68.196-152.32 152.32-152.32c84.124 0 152.32 68.196 152.32 152.32-0.104 84.082-68.238 152.216-152.31 152.32zM515.474 446.72c0 0 0 0 0 0 46.455 0 84.114-37.659 84.114-84.114s-37.659-84.114-84.114-84.114c-46.455 0-84.114 37.659-84.114 84.114 0.207 46.335 37.765 83.828 84.104 83.931zM972.251 268.434l-94.537 95.086 94.72 94.72c6.369 6.028 10.354 14.519 10.423 23.942 0.001 0.105 0.001 0.215 0.001 0.325 0 9.512-3.843 18.126-10.060 24.375-6.237 5.888-14.672 9.508-23.953 9.508s-17.716-3.62-23.971-9.525l-95.252-95.253-95.269 95.269c-6.238 5.889-14.673 9.509-23.954 9.509s-17.716-3.62-23.971-9.525c-6.091-6.186-9.862-14.703-9.862-24.101 0-0.2 0.002-0.4 0.005-0.599 0.005-9.234 3.857-17.597 10.046-23.548l95.096-95.096-95.086-95.086c-6.164-6.184-9.975-14.716-9.975-24.138 0-18.792 15.158-34.043 33.915-34.193 0.14-0.002 0.289-0.003 0.438-0.003 9.247 0 17.593 3.856 23.519 10.048l95.28 95.281 94.537-94.537c6.074-6.64 14.777-10.789 24.45-10.789 0.083 0 0.166 0 0.249 0.001 0.113-0.002 0.262-0.003 0.411-0.003 9.247 0 17.593 3.856 23.519 10.048 6.049 6.119 9.778 14.519 9.778 23.79 0 9.631-4.025 18.323-10.485 24.483z" />
<glyph unicode="&#xe915;" glyph-name="s-Integrations-56" d="M896 678.4c-3.657 0-7.314 0-10.971 0-7.314-1.829-16.457 3.657-18.286 10.971-5.486 20.114-12.8 38.4-21.943 54.857-3.657 7.314-1.829 16.457 3.657 20.114l3.657 3.657c7.314 7.314 10.971 16.457 10.971 27.429s-3.657 20.114-10.971 27.429c-16.457 14.629-40.229 14.629-54.857 0l-1.829-3.657c-5.486-5.486-12.8-7.314-20.114-3.657-16.457 10.971-34.743 18.286-54.857 21.943-7.314 1.829-12.8 9.143-10.971 16.457 0 1.829 0 3.657 0 5.486 0 21.943-18.286 40.229-40.229 40.229s-40.229-18.286-40.229-40.229c0-1.829 0-1.829 0-3.657 1.829-7.314-3.657-16.457-10.971-18.286-20.114-5.486-38.4-12.8-54.857-21.943-7.314-3.657-14.629-1.829-20.114 3.657l-3.657 5.486c-14.629 14.629-40.229 14.629-54.857 0-7.314-7.314-10.971-18.286-10.971-27.429 0-10.971 3.657-20.114 10.971-27.429 1.829-1.829 3.657-1.829 3.657-1.829 5.486-5.486 7.314-14.629 3.657-20.114-10.971-16.457-18.286-34.743-21.943-54.857-1.829-7.314-9.143-12.8-16.457-12.8h-5.486c-21.943 1.829-40.229-16.457-42.057-38.4s16.457-40.229 38.4-42.057c1.829 0 3.657 0 7.314 0 7.314 0 14.629-3.657 18.286-10.971 5.486-20.114 12.8-38.4 21.943-54.857 3.657-7.314 1.829-16.457-3.657-20.114-1.829 0-3.657-1.829-3.657-3.657-7.314-7.314-10.971-16.457-10.971-27.429s3.657-20.114 10.971-27.429c16.457-14.629 40.229-14.629 54.857 0 1.829 1.829 1.829 3.657 3.657 5.486 3.657 3.657 7.314 5.486 12.8 5.486 3.657 0 5.486 0 7.314-1.829 16.457-10.971 34.743-18.286 54.857-21.943 7.314-1.829 12.8-9.143 10.971-16.457 0-1.829 0-3.657 0-5.486 0-21.943 18.286-40.229 40.229-40.229s40.229 18.286 40.229 40.229c0 1.829 0 1.829 0 3.657 0 7.314 3.657 14.629 10.971 18.286 20.114 5.486 38.4 12.8 54.857 21.943 7.314 3.657 16.457 1.829 20.114-3.657l1.829-3.657c14.629-14.629 40.229-14.629 54.857 0 7.314 7.314 10.971 18.286 10.971 27.429 0 10.971-3.657 20.114-10.971 27.429-1.829 0-3.657 1.829-3.657 1.829-7.314 3.657-9.143 12.8-5.486 20.114 10.971 16.457 18.286 34.743 21.943 54.857 1.829 7.314 9.143 12.8 16.457 10.971h5.486c21.943-1.829 40.229 14.629 43.886 34.743s-12.8 42.057-34.743 43.886zM667.429 554.057c-47.543 0-84.114 38.4-84.114 84.114s38.4 84.114 84.114 84.114 84.114-38.4 84.114-84.114-36.571-84.114-84.114-84.114zM473.6 208.457h-3.657c-7.314 0-12.8 7.314-12.8 14.629 0 14.629-1.829 29.257-5.486 43.886-1.829 7.314 1.829 14.629 9.143 18.286l3.657 1.829c5.486 3.657 10.971 9.143 10.971 16.457 1.829 7.314 1.829 14.629-1.829 21.943-7.314 12.8-23.771 18.286-36.571 10.971l-1.829-3.657c-7.314-5.486-14.629-3.657-20.114 1.829-10.971 10.971-21.943 20.114-34.743 27.429-7.314 3.657-9.143 12.8-7.314 20.114l1.829 3.657c1.829 7.314 1.829 14.629-1.829 20.114s-9.143 10.971-16.457 12.8c-14.629 3.657-29.257-3.657-32.914-18.286v-3.657c0-7.314-7.314-14.629-16.457-12.8h-5.486c-12.8 0-27.429-1.829-40.229-5.486-7.314-1.829-14.629 1.829-18.286 9.143 0 1.829-1.829 3.657-1.829 5.486-7.314 12.8-23.771 16.457-36.571 9.143s-18.286-23.771-10.971-36.571c1.829 0 1.829-1.829 1.829-1.829 3.657-5.486 3.657-14.629-1.829-20.114-10.971-10.971-20.114-21.943-27.429-34.743-3.657-7.314-12.8-9.143-20.114-5.486-1.829 0-1.829 1.829-3.657 1.829s-5.486 0-7.314 0c-14.629 0-27.429-10.971-27.429-27.429 0-12.8 7.314-23.771 20.114-25.6h3.657c9.143-5.486 14.629-10.971 14.629-20.114 0-14.629 1.829-29.257 5.486-43.886 1.829-7.314-1.829-14.629-9.143-18.286-1.829-1.829-3.657-1.829-5.486-1.829-5.486-3.657-10.971-9.143-10.971-16.457-1.829-7.314-1.829-14.629 1.829-20.114 7.314-12.8 23.771-16.457 36.571-10.971 0 1.829 1.829 1.829 3.657 3.657 7.314 3.657 14.629 3.657 20.114-1.829 10.971-10.971 21.943-20.114 34.743-27.429 7.314-3.657 9.143-12.8 5.486-20.114l-1.829-3.657c-3.657-14.629 3.657-29.257 18.286-32.914s29.257 3.657 32.914 18.286c0 0 0 3.657 0 3.657 1.829 7.314 9.143 12.8 16.457 12.8h5.486c12.8 0 27.429 1.829 40.229 5.486 7.314 1.829 16.457-1.829 18.286-9.143 0 0 0-3.657 1.829-3.657 7.314-12.8 23.771-16.457 36.571-9.143s18.286 23.771 10.971 36.571l-1.829 1.829c-3.657 7.314-3.657 14.629 1.829 20.114 10.971 9.143 20.114 21.943 27.429 34.743 3.657 7.314 12.8 9.143 20.114 7.314l3.657-1.829c14.629-1.829 29.257 7.314 31.086 23.771 1.829 10.971-5.486 23.771-16.457 29.257zM369.371 208.457c-9.143-29.257-36.571-51.2-67.657-51.2-5.486 0-12.8 1.829-18.286 3.657-36.571 10.971-58.514 49.371-47.543 85.943 0 0 0 0 0 0 10.971 36.571 49.371 58.514 85.943 47.543s56.686-49.371 47.543-85.943z" />
<glyph unicode="&#xe916;" glyph-name="s-CustomFields-56" d="M219.429 533.943h-54.857v-54.857h-54.857v-54.857h54.857v-54.857h54.857v54.857h54.857v54.857h-54.857v54.857zM219.429 296.229h-54.857v-54.857h-54.857v-54.857h54.857v-54.857h54.857v54.857h54.857v54.857h-54.857v54.857zM219.429 771.657h-54.857v-54.857h-54.857v-54.857h54.857v-54.857h54.857v54.857h54.857v54.857h-54.857v54.857zM402.286 259.657h512v-91.429h-512v91.429zM402.286 497.371h512v-91.429h-512v91.429zM402.286 735.086h512v-91.429h-512v91.429z" />
<glyph unicode="&#xe917;" glyph-name="s-Keywords-56" d="M872.96 449.28l-368.274 368.091c-2.831 2.805-6.678 4.59-10.941 4.753l-330.819 4.39c-0.071 0.001-0.155 0.002-0.238 0.002-4.536 0-8.648-1.815-11.65-4.759l0.003 0.003c-2.941-2.972-4.757-7.061-4.757-11.574 0-0.11 0.001-0.219 0.003-0.328l4.388-330.772c0-0.007 0-0.016 0-0.025 0-4.488 1.817-8.551 4.755-11.496l368.274-367.543c2.976-2.963 7.080-4.795 11.611-4.795s8.636 1.832 11.612 4.795l326.034 325.851c3.018 2.985 4.886 7.125 4.886 11.703s-1.869 8.718-4.885 11.701zM372.297 600.503c-11.914-11.919-28.375-19.291-46.559-19.291-36.356 0-65.829 29.472-65.829 65.829s29.472 65.829 65.829 65.829c18.183 0 34.645-7.372 46.558-19.291 11.906-11.912 19.27-28.365 19.27-46.537s-7.364-34.626-19.27-46.537z" />
<glyph unicode="&#xe918;" glyph-name="s-DigitalRights-56" d="M512 844.8c-212.077 0-384-171.923-384-384s171.923-384 384-384c212.077 0 384 171.923 384 384s-171.923 384-384 384zM721.189 251.611c-53.519-53.574-127.483-86.714-209.188-86.714-163.3 0-295.68 132.38-295.68 295.68s132.38 295.68 295.68 295.68c163.221 0 295.553-132.254 295.68-295.445 0.001-0.303 0.002-0.647 0.002-0.991 0-81.356-33.062-154.991-86.483-208.2zM633.234 418.377c-19.878-42.546-62.31-71.497-111.504-71.497-67.764 0-122.697 54.933-122.697 122.697s54.933 122.697 122.697 122.697c49.194 0 91.626-28.951 111.188-70.745l93.574-0.753c-23.708 92.42-106.266 159.634-204.523 159.634-116.441 0-210.834-94.394-210.834-210.834s94.394-210.834 210.834-210.834c98.257 0 180.815 67.214 204.204 158.172l-92.938 1.462z" />
<glyph unicode="&#xe919;" glyph-name="s-Dropbox-56" d="M145.189 443.794l225.646-146.651 141.166 116.297-227.474 141.349-139.337-110.994zM650.057 226.56c-4.31 0.026-8.261 1.538-11.372 4.050l-126.685 104.567-126.72-104.411c-3.113-2.535-7.128-4.071-11.502-4.071-3.599 0-6.955 1.040-9.784 2.835l-93.731 60.847v-36.571l241.737-150.674 241.737 151.223v36.571l-93.806-60.891c-2.744-2.015-6.144-3.29-9.831-3.473zM356.389 826.514l-228.389-141.349 156.526-130.377 227.474 146.834-155.611 124.891zM512 413.44l141.166-116.297 225.646 146.651-139.337 110.994-227.474-141.349zM896 685.166l-228.389 141.349-155.611-124.891 227.474-146.834 156.526 130.377z" />
<glyph unicode="&#xe91a;" glyph-name="s-DuplicateCheck-56" d="M822.857 696.686v-546.743h-548.571v-54.857h603.429v601.6zM768 826.514h-621.714v-621.714h621.714v621.714zM400.457 363.886l-135.314 135.314 38.4 38.4 96.914-96.914 219.429 219.429 38.4-40.229-257.829-256z" />
<glyph unicode="&#xe91b;" glyph-name="s-CrewSettings-56" d="M658.286 643.657c0-100.989-81.868-182.857-182.857-182.857s-182.857 81.868-182.857 182.857c0 100.989 81.868 182.857 182.857 182.857s182.857-81.868 182.857-182.857zM850.286 391.314l-5.486-3.657-38.4-38.4c-12.8-12.8-29.257-18.286-45.714-18.286-34.743 0-64 29.257-65.829 64 0 18.286 5.486 34.743 18.286 47.543l42.057 42.057-29.257 31.086c-23.771-5.486-47.543-18.286-64-34.743-32.914-32.914-43.886-80.457-32.914-124.343l-171.886-171.886c-25.6-25.6-23.771-67.657 3.657-93.257 25.6-23.771 64-23.771 89.6 0l170.057 170.057c43.886-10.971 91.429 1.829 124.343 32.914 18.286 18.286 31.086 40.229 34.743 64l-29.257 32.914zM347.429 387.657c-100.571 0-182.857-82.286-182.857-182.857v-109.714h128l292.571 292.571h-237.714z" />
<glyph unicode="&#xe91c;" glyph-name="s-Portal-56" d="M128 808.229v-694.857h768v694.857h-768zM402.286 753.371h73.143v-73.143h-73.143v73.143zM292.571 753.371h73.143v-73.143h-73.143v73.143zM182.857 753.371h73.143v-73.143h-73.143v73.143zM841.143 168.229h-658.286v457.143h658.286v-457.143zM310.857 296.229h91.429v-36.571h-91.429v36.571zM310.857 442.514h91.429v-36.571h-91.429v36.571zM310.857 369.371h91.429v-36.571h-91.429v36.571zM310.857 515.657h91.429v-36.571h-91.429v36.571zM475.611 515.657h109.531v-109.714h-109.531v109.714zM475.429 369.371h109.531v-109.714h-109.531v109.714zM621.714 515.657h109.531v-109.714h-109.531v109.714zM621.714 369.371h109.531v-109.714h-109.531v109.714z" />
<glyph unicode="&#xe91d;" glyph-name="s-Metadata-56" d="M512 442.514h256v-36.571h-256v36.571zM512 351.086h256v-36.571h-256v36.571zM512 259.657h256v-36.571h-256v36.571zM642.194 735.086c-31.758 65.389-97.665 109.666-173.912 109.666-105.59 0-191.347-84.912-192.715-190.177 0.037-37.158 10.798-71.666 29.341-100.725l-180.931-182.101c-5.037-6.707-8.066-15.173-8.066-24.346 0-12.716 5.82-24.073 14.943-31.551 7.472-9.173 18.678-14.951 31.234-14.951 8.915 0 17.15 2.913 23.804 7.839l179.823 182.049v-413.989h548.571v658.286h-272.091zM468.114 768.914c0.053 0 0.116 0 0.178 0 31.974 0 60.93-12.924 81.928-33.833l-0.004 0.004 2.56-2.377q3.657-4.023 7.131-8.229l0.914-1.28c2.011-2.743 3.84-5.486 5.669-8.229l1.097-1.829c1.646-2.743 3.109-5.486 4.389-8.229l1.28-2.56c1.28-2.743 2.377-5.486 3.291-8.229l1.097-3.109c0.914-2.743 1.646-5.486 2.377-8.411v-3.291c0-2.926 1.097-6.034 1.463-9.143s0-1.829 0-2.926c0.108-1.858 0.17-4.030 0.17-6.217s-0.062-4.36-0.183-6.516c-0.297-63.088-51.754-114.354-115.185-114.354-0.193 0-0.387 0-0.58 0.001h0.030c-1.802-0.099-3.912-0.155-6.034-0.155s-4.232 0.056-6.327 0.167l-2.999-0.012-8.594 1.463h-3.109l-8.411 2.377-2.56 0.914-7.131 4.754h-1.829l-8.777 4.571h-1.097c-3.109 1.829-6.034 3.657-8.96 5.669v0c-2.926 2.194-5.851 4.571-8.594 6.949v0q-4.206 3.84-8.046 7.863c-18.906 20.192-30.522 47.412-30.537 77.345-0.007 0.493-0.012 1.070-0.012 1.649 0 63.623 51.577 115.2 115.2 115.2 0.068 0 0.137 0 0.205 0zM841.143 149.943h-402.286v316.526c8.755-1.454 18.881-2.316 29.197-2.377 0.333-0.002 0.655-0.002 0.978-0.002 105.351 0 190.827 85.093 191.448 190.297 0 2.619 0 4.996 0 7.556h180.663v-512zM548.571 735.086h1.463c-2.011 2.011-3.84 3.84-6.034 5.669z" />
<glyph unicode="&#xe91e;" glyph-name="s-NewPortal-56" d="M292.571 405.943h91.429v-36.571h-91.429v36.571zM292.571 332.8h91.429v-36.571h-91.429v36.571zM292.571 552.229h91.429v-36.571h-91.429v36.571zM292.571 479.086h91.429v-36.571h-91.429v36.571zM457.326 552.229h91.246v-91.429h-91.246v91.429zM859.429 405.943v402.286h-731.429v-658.286h475.429c33.715-44.612 86.668-73.143 146.286-73.143 100.989 0 182.857 81.868 182.857 182.857 0 59.617-28.531 112.571-72.683 145.952zM402.286 753.371h73.143v-73.143h-73.143v73.143zM292.571 753.371h73.143v-73.143h-73.143v73.143zM182.857 753.371h73.143v-73.143h-73.143v73.143zM566.857 259.657c0-0.010 0-0.023 0-0.035 0-19.576 3.076-38.434 8.772-56.116l-392.772 1.294v420.571h621.714v-191.269c-16.398 5.342-35.268 8.423-54.857 8.423-100.989 0-182.857-81.868-182.857-182.857 0-0.004 0-0.008 0-0.012zM749.714 131.657c-70.692 0-128 57.308-128 128s57.308 128 128 128c70.692 0 128-57.308 128-128s-57.308-128-128-128zM768 314.514h-36.571v-36.571h-36.571v-36.571h36.571v-36.571h36.571v36.571h36.571v36.571h-36.571v36.571z" />
<glyph unicode="&#xe91f;" glyph-name="s-NewUser-56" d="M621.714 643.657c0-100.989-81.868-182.857-182.857-182.857s-182.857 81.868-182.857 182.857c0 100.989 81.868 182.857 182.857 182.857s182.857-81.868 182.857-182.857zM731.429 351.086h-36.571v-36.571h-36.571v-36.571h36.571v-36.571h36.571v36.571h36.571v36.571h-36.571zM713.143 497.371c-78.629 0-146.286-43.886-179.2-109.714h-223.086c-100.571 0-182.857-82.286-182.857-182.857v-109.714h585.143c111.543 0 201.143 89.6 201.143 201.143s-89.6 201.143-201.143 201.143zM713.143 168.229c-71.314 0-128 56.686-128 128s56.686 128 128 128 128-56.686 128-128-56.686-128-128-128z" />
<glyph unicode="&#xe920;" glyph-name="s-Account-56" d="M808.046 460.8c-0.242 14.791-1.496 29.080-3.699 43.053l91.653 51.484-110.994 194.743-91.429-53.211c-20.448 16.296-43.84 30.235-69.004 40.785l-1.944 107.146h-221.623v-106.24c-27.109-11.271-50.501-25.211-71.548-41.969l-90.829 53.672-110.629-194.743 91.429-53.211c-2.016-12.449-3.169-26.798-3.169-41.417s1.152-28.969 3.37-42.963l-91.631-51.848 110.994-194.743 91.429 53.211c20.448-16.368 43.838-30.366 69.011-40.967l1.937-106.781h221.623v106.24c27.11 11.261 50.503 25.201 71.544 41.967l90.833-53.67 110.629 194.743-91.429 53.211c1.989 12.31 3.244 26.663 3.471 41.266l0.003 0.243zM512 302.811c-0.598-0.008-1.304-0.012-2.011-0.012-89.476 0-162.011 72.535-162.011 162.011s72.535 162.011 162.011 162.011c89.472 0 162.004-72.528 162.011-161.998 0.002-0.273 0.003-0.596 0.003-0.919 0-88.587-71.503-160.473-159.944-161.093h-0.059z" />
<glyph unicode="&#xe921;" glyph-name="s-Reports-56" d="M420.571 826.514h182.857v-603.429h-182.857v603.429zM658.286 479.086h182.857v-256h-182.857v256zM182.857 625.371h182.857v-402.286h-182.857v402.286zM146.286 168.229h731.429v-73.143h-731.429v73.143z" />
<glyph unicode="&#xe922;" glyph-name="s-UsersAccounts-56" d="M694.857 643.657c0-100.989-81.868-182.857-182.857-182.857s-182.857 81.868-182.857 182.857c0 100.989 81.868 182.857 182.857 182.857s182.857-81.868 182.857-182.857zM640 387.657h-256c-100.571 0-182.857-82.286-182.857-182.857v-109.714h621.714v109.714c0 100.571-82.286 182.857-182.857 182.857z" />
<glyph unicode="&#xe923;" glyph-name="s-Workflow-56" d="M859.429 405.943v146.286h-54.857v109.714h-274.286v91.429h54.857v146.286h-146.286v-146.286h54.857v-91.429h-274.286v-109.714h-54.857v-146.286h54.857v-128h128v-109.714h-54.857v-146.286h146.286v146.286h-54.857v109.714h146.286v128h54.857v146.286h-54.857v73.143h237.714v-73.143h-54.857v-146.286h54.857v-128h-54.857v-146.286h146.286v146.286h-54.857v128h54.857zM493.714 552.229h-54.857v-146.286h54.857v-91.429h-237.714v91.429h54.857v146.286h-54.857v73.143h237.714v-73.143z" />
<glyph unicode="&#xe924;" glyph-name="s-Google-56" d="M914.286 373.029l-256 435.2h-266.971l256-435.2h266.971zM365.714 789.943l-256-435.2 135.314-230.4 256 437.029-135.314 228.571zM274.286 113.371h508.343l131.657 228.571h-508.343l-131.657-228.571z" />
<glyph unicode="&#xe925;" glyph-name="s-Defaults-56" d="M643.657 402.286l-107.886-111.543 175.543-195.657c14.629-14.629 34.743-23.771 53.029-23.771s38.4 9.143 53.029 23.771c29.257 29.257 29.257 82.286 0 111.543l-173.714 195.657zM351.086 495.543c9.143-14.629 58.514-64 58.514-64l23.771 29.257-38.4 43.886 78.629 87.771c0 0-12.8 12.8-20.114 20.114 14.629 58.514 0 122.514-38.4 166.4s-96.914 58.514-151.771 43.886l87.771-96.914-23.771-96.914-87.771-21.943-87.771 96.914c-14.629-58.514 0-122.514 38.4-166.4 43.886-47.543 107.886-62.171 160.914-42.057zM877.714 729.6l-111.543 120.686-330.971-365.714 38.4-43.886-195.657-219.429-43.886-23.771-62.171-111.543 14.629-14.629 102.4 67.657 23.771 49.371 199.314 219.429 34.743-43.886z" />
<glyph unicode="&#xe926;" glyph-name="s-Branding-56" d="M845.714 794.514c-19.831 19.717-47.167 31.904-77.349 31.904s-57.517-12.187-77.354-31.909l-51.012-51.926-52.846 51.931-51.749-51.749 51.566-51.566-440.686-440.869v-155.246h154.88l440.869 441.051 51.931-51.931 51.749 51.749-51.931 51.931 51.931 51.931c19.717 19.831 31.904 47.167 31.904 77.349s-12.187 57.517-31.909 77.354zM526.811 424.229h-103.314l163.474 163.474 51.749-51.749z" />
<glyph unicode="&#xe927;" glyph-name="s-Groups-56" d="M658.286 625.371c0-80.791-65.494-146.286-146.286-146.286s-146.286 65.494-146.286 146.286c0 80.791 65.494 146.286 146.286 146.286s146.286-65.494 146.286-146.286zM310.857 607.086c0-60.594-49.121-109.714-109.714-109.714s-109.714 49.121-109.714 109.714c0 60.594 49.121 109.714 109.714 109.714s109.714-49.121 109.714-109.714zM512 405.943c-118.857 0-221.257-67.657-274.286-164.571v-91.429h548.571v91.429c-53.029 96.914-155.429 164.571-274.286 164.571zM932.571 607.086c0-60.594-49.121-109.714-109.714-109.714s-109.714 49.121-109.714 109.714c0 60.594 49.121 109.714 109.714 109.714s109.714-49.121 109.714-109.714zM323.657 407.771c-36.571 21.943-76.8 34.743-122.514 34.743-84.114 0-159.086-43.886-201.143-111.543v-71.314h186.514l3.657 7.314c31.086 58.514 76.8 107.886 133.486 140.8zM822.857 442.514c-45.714 0-85.943-12.8-122.514-34.743 54.857-32.914 102.4-82.286 133.486-142.629l3.657-7.314h186.514v71.314c-42.057 69.486-117.029 113.371-201.143 113.371z" />
<glyph unicode="&#xe928;" glyph-name="s-Error-24" d="M512-51.2c282.77 0 512 229.23 512 512s-229.23 512-512 512c-282.77 0-512-229.23-512-512s229.23-512 512-512zM469.333 716.8h85.333v-341.333h-85.333v341.333zM469.333 290.133h85.333v-85.333h-85.333v85.333z" />
<glyph unicode="&#xe929;" glyph-name="s-PassengerSettings-56" d="M996.571 420.571l-38.4-38.4c-10.971-10.971-27.429-16.457-42.057-16.457-16.457 0-31.086 7.314-42.057 18.286s-18.286 25.6-18.286 42.057c0 16.457 5.486 31.086 16.457 42.057l38.4 38.4-27.429 27.429c-21.943-3.657-42.057-16.457-58.514-32.914-29.257-29.257-40.229-73.143-31.086-113.371l-155.429-155.429c-21.943-23.771-21.943-60.343 1.829-84.114 10.971-10.971 25.6-16.457 40.229-16.457 16.457 0 31.086 5.486 42.057 16.457l155.429 153.6c40.229-10.971 82.286 1.829 113.371 31.086 16.457 16.457 27.429 36.571 32.914 58.514l-27.429 29.257zM457.143 643.657c0-80.791-65.494-146.286-146.286-146.286s-146.286 65.494-146.286 146.286c0 80.791 65.494 146.286 146.286 146.286s146.286-65.494 146.286-146.286zM310.857 424.229c-118.857 0-221.257-67.657-274.286-164.571v-91.429h548.571v91.429c-53.029 96.914-155.429 164.571-274.286 164.571zM822.857 643.657c0-80.791-65.494-146.286-146.286-146.286s-146.286 65.494-146.286 146.286c0 80.791 65.494 146.286 146.286 146.286s146.286-65.494 146.286-146.286zM544.914 394.971c32.914-27.429 60.343-58.514 82.286-96.914l109.714 109.714c0 3.657 0 7.314 0 10.971-18.286 3.657-38.4 5.486-58.514 5.486-49.371 0-93.257-10.971-133.486-29.257z" />
<glyph unicode="&#xe92a;" glyph-name="s-Portal-22" d="M0 926.255v-930.909h1024v930.909h-1024zM325.818 833.164h93.091v-93.091h-93.091v93.091zM186.182 833.164h93.091v-93.091h-93.091v93.091zM46.545 833.164h93.091v-93.091h-93.091v93.091zM977.455 41.891h-930.909v651.636h930.909v-651.636zM512 553.891h139.636v-139.636h-139.636v139.636zM698.182 553.891h139.636v-139.636h-139.636v139.636zM512 367.709h139.636v-139.636h-139.636v139.636zM698.182 367.709h139.636v-139.636h-139.636v139.636zM186.182 553.891h139.636v-46.545h-139.636v46.545zM186.182 460.8h139.636v-46.545h-139.636v46.545zM186.182 367.709h139.636v-46.545h-139.636v46.545zM186.182 274.618h139.636v-46.545h-139.636v46.545z" />
<glyph unicode="&#xe92b;" glyph-name="s-UnrelateFile-22" d="M465.455 466.385c0 128.532-104.196 232.727-232.727 232.727s-232.727-104.196-232.727-232.727c0-128.532 104.196-232.727 232.727-232.727s232.727 104.196 232.727 232.727zM232.727 326.749c-77.119 0-139.636 62.517-139.636 139.636s62.517 139.636 139.636 139.636c77.119 0 139.636-62.517 139.636-139.636s-62.517-139.636-139.636-139.636zM791.273 699.113c-128.532 0-232.727-104.196-232.727-232.727s104.196-232.727 232.727-232.727c128.532 0 232.727 104.196 232.727 232.727s-104.196 232.727-232.727 232.727zM791.273 326.749c-77.119 0-139.636 62.517-139.636 139.636s62.517 139.636 139.636 139.636c77.119 0 139.636-62.517 139.636-139.636s-62.517-139.636-139.636-139.636c0 0 0 0 0 0zM643.724 778.705l-66.095 66.095-65.629-66.095-65.629 66.095-66.095-66.095 131.724-131.724 131.724 131.724zM380.276 142.895l66.095-66.095 65.629 66.095 65.629-66.095 66.095 66.095-131.724 131.258-131.724-131.258z" />
<glyph unicode="&#xe92c;" glyph-name="s-RelateFile-22" d="M698.182 786.618c-69.703-0.067-134.267-22.012-187.211-59.335-50.967 37.381-115.649 59.335-185.457 59.335-179.944 0-325.818-145.874-325.818-325.818s145.874-325.818 325.818-325.818c69.809 0 134.49 21.954 187.516 59.335 50.967-37.381 115.648-59.335 185.457-59.335 179.944 0 325.818 145.874 325.818 325.818s-145.874 325.818-325.818 325.818c-0.107 0-0.214 0-0.321 0zM441.716 260.189c-33.143-19.959-73.104-31.863-115.827-32.116-128.603 0-232.798 104.195-232.798 232.727s104.196 232.727 232.727 232.727c42.794-0.253 82.755-12.157 116.938-32.696-44.113-54.138-70.123-124.047-70.123-200.032s26.010-145.893 69.613-201.309zM512 321.164c-29.703 38.186-47.62 86.819-47.62 139.636s17.917 101.45 48.006 140.152c29.317-38.701 47.234-87.334 47.234-140.152s-17.917-101.45-48.006-140.152zM698.182 228.073c-42.794 0.253-82.755 12.157-116.938 32.696 44.113 54.138 70.123 124.047 70.123 200.032s-26.010 145.893-69.613 201.309c33.673 19.261 73.634 31.165 116.357 31.417 128.603 0 232.798-104.195 232.798-232.727s-104.196-232.727-232.727-232.727z" />
<glyph unicode="&#xe92d;" glyph-name="s-Portal-32" d="M0 940.8v-960h1024v960h-1024zM384 876.8h96v-96h-96v96zM224 876.8h96v-96h-96v96zM64 876.8h96v-96h-96v96zM960 44.8h-896v672h896v-672zM192 268.8h128v-64h-128v64zM192 460.8h128v-64h-128v64zM192 364.8h128v-64h-128v64zM192 556.8h128v-64h-128v64zM480 556.8h160v-160h-160v160zM480 364.8h160v-160h-160v160zM672 556.8h160v-160h-160v160zM672 364.8h160v-160h-160v160z" />
<glyph unicode="&#xe92e;" glyph-name="s-InfoPage-56" d="M54.857 808.229h182.857v-694.857h-182.857v694.857zM310.857 808.229h182.857v-694.857h-182.857v694.857zM749.714 808.229h-182.857v-457.143l182.857 201.143v256zM944.091 401.737l-4.023-4.023-35.474-35.109c-10.91-10.308-25.668-16.644-41.905-16.644-0.246 0-0.492 0.001-0.738 0.004-32.763 0.704-59.156 27.161-59.756 59.92-0.003 0.265-0.005 0.511-0.005 0.758 0 16.237 6.336 30.995 16.671 41.934l35.081 35.445 4.023 4.023-27.794 27.611c-23.449-4.917-43.669-16.443-59.215-32.517-21.236-21.867-34.31-51.699-34.31-84.585 0-10.363 1.298-20.422 3.741-30.024l-156.524-155.503c-10.857-10.857-17.572-25.856-17.572-42.423 0-33.134 26.861-59.995 59.995-59.995 16.567 0 31.566 6.715 42.423 17.572l156.343 156.526c9.172-2.488 19.703-3.917 30.567-3.917 32.58 0 62.159 12.852 83.943 33.762 16.055 15.543 27.578 35.76 32.375 58.459z" />
<glyph unicode="&#xe92f;" glyph-name="s-NewUploadLink-56" d="M347.429 277.943h182.857v274.286h182.857l-274.286 274.286-274.286-274.286h182.857zM768 460.8c-100.571 0-182.857-82.286-182.857-182.857 0-32.914 9.143-64 25.6-91.429h-446.171v137.143h-91.429v-228.571h694.857c100.571 0 182.857 82.286 182.857 182.857s-82.286 182.857-182.857 182.857zM768 149.943c-71.314 0-128 56.686-128 128s56.686 128 128 128 128-56.686 128-128-56.686-128-128-128zM786.286 332.8h-36.571v-36.571h-36.571v-36.571h36.571v-36.571h36.571v36.571h36.571v36.571h-36.571z" />
<glyph unicode="&#xe930;" glyph-name="s-UploadLinks-56" d="M420.571 277.943h182.857v274.286h182.857l-274.286 274.286-274.286-274.286h182.857zM786.286 323.657v-137.143h-548.571v137.143h-91.429v-228.571h731.429v228.571z" />
<glyph unicode="&#xe931;" glyph-name="s-Comment-22" d="M873.658 680.029c-40.027 48.884-91.179 87.18-149.682 111.256-62.798 26.835-132.959 41.906-206.64 41.906-1.876 0-3.75-0.010-5.622-0.029-0.48 0.006-1.386 0.008-2.293 0.008-57.063 0-112.059-8.852-163.689-25.259-47.311-14.362-91.865-36.756-131.535-65.482-34.726-25.026-64.568-57.094-87.251-94.031-21.573-35.551-33.864-76.825-33.864-120.97 0-0.679 0.003-1.356 0.009-2.034 0.108-50.403 15.943-97.189 42.864-135.644 29.65-42.768 68.28-78.276 113.23-103.998-2.23-15.508-6.363-27.588-11.176-39.317q-6.212-15.104-11.798-26.274c-4.99-9.486-10.085-17.556-15.731-25.194q-9.404-12.973-14.058-18.558l-16.291-18.153-14.429-16.756-3.724-6.516h-3.258l-2.793-4.189c-0.188-0.698-0.296-1.5-0.296-2.327s0.108-1.629 0.31-2.392c0.119-0.635 0.195-1.44 0.195-2.262s-0.076-1.628-0.222-2.408c-0.384-0.737-0.616-1.697-0.616-2.712s0.232-1.975 0.646-2.832l-0.017 0.039c1.197-5.648 4.188-10.46 8.339-13.932 3.195-2.752 7.334-4.409 11.861-4.409 0.92 0 1.824 0.068 2.707 0.2 20.003 2.448 37.981 6.202 55.384 11.301 81.1 21.431 153.304 61.797 212.527 116.094 19.876-2.709 43.338-4.062 67.115-4.063 1.723-0.020 3.756-0.032 5.792-0.032 73.685 0 143.85 15.072 207.58 42.302 57.575 23.684 108.726 61.981 148.221 110.194 35.39 42.195 56.565 96.225 56.565 155.201s-21.175 113.006-56.337 154.903z" />
<glyph unicode="&#xe932;" glyph-name="s-Delete-22" d="M828.044 243.433l-217.367 217.367 215.971 215.971-98.676 98.676-215.971-215.971-215.971 215.971-98.676-98.676 215.971-215.971-217.367-217.367 98.676-98.676 217.367 217.367 217.367-217.367 98.676 98.676z" />
<glyph unicode="&#xe933;" glyph-name="s-SelfRegistration-56" d="M749.714 113.371h-530.286v438.857h219.429v219.429h146.286l36.571 54.857h-219.429l-237.714-237.714v-530.286h640v530.286l-54.857-73.143v-402.286zM384 735.086v-128h-128l128 128zM433.371 283.429l102.4 23.771 241.371 358.4-118.857 82.286-241.371-360.229zM688.725 792.783l47.129 69.672 119.654-80.939-47.129-69.672-119.654 80.939z" />
<glyph unicode="&#xe934;" glyph-name="s-Warning-16" d="M1019.52 66.56l-475.52 823.68c-6.57 11.032-18.435 18.308-32 18.308s-25.43-7.276-31.906-18.138l-475.614-823.85c-3.081-5.125-4.903-11.31-4.903-17.92s1.822-12.795 4.992-18.080c6.528-10.654 18.274-17.761 31.68-17.761 0.081 0 0.162 0 0.243 0.001h950.388c0.069 0 0.15-0.001 0.231-0.001 13.406 0 25.152 7.107 31.677 17.759 3.375 5.413 5.322 11.79 5.322 18.623 0 6.391-1.703 12.384-4.68 17.55zM571.52 118.4h-118.4v104.96h117.76v-105.6zM571.52 302.72h-118.4v316.16h117.76v-316.16z" />
<glyph unicode="&#xe935;" glyph-name="s-Arrow001-56" d="M382.903-51.2c-3.028 0.032-5.859 0.842-8.313 2.239-5.415 3.177-9.051 9.058-9.051 15.787 0 3.176 0.81 6.164 2.235 8.767l253.941 485.208-253.989 485.486c-1.285 2.437-2.039 5.326-2.039 8.392 0 6.67 3.571 12.505 8.905 15.699 2.525 1.533 5.479 2.414 8.638 2.414 6.452 0 12.046-3.672 14.807-9.040l258.238-493.808c1.351-2.488 2.146-5.449 2.146-8.594s-0.794-6.106-2.193-8.691l-258.146-493.618c-2.819-5.572-8.501-9.326-15.060-9.326-0.041 0-0.082 0-0.123 0z" />
<glyph unicode="&#xe936;" glyph-name="s-Arrow002-56" d="M641.097-51.2c3.028 0.032 5.859 0.842 8.313 2.239 5.415 3.177 9.051 9.058 9.051 15.787 0 3.176-0.81 6.164-2.235 8.767l-253.941 485.208 253.989 485.486c1.285 2.437 2.039 5.326 2.039 8.392 0 6.67-3.571 12.505-8.905 15.699-2.525 1.533-5.479 2.414-8.638 2.414-6.452 0-12.046-3.672-14.807-9.040l-258.238-493.808c-1.351-2.488-2.146-5.449-2.146-8.594s0.794-6.106 2.193-8.691l258.146-493.618c2.819-5.572 8.501-9.326 15.060-9.326 0.041 0 0.082 0 0.123 0z" />
<glyph unicode="&#xe937;" glyph-name="s-Slack-56" d="M874.057 433.371c-10.971 34.743-47.543 53.029-82.286 42.057l-65.829-21.943c-14.629 43.886-29.257 93.257-43.886 137.143 40.229 12.8 65.829 21.943 65.829 21.943 34.743 10.971 53.029 47.543 42.057 82.286s-47.543 53.029-82.286 42.057l-65.829-21.943c-12.8 40.229-21.943 65.829-21.943 65.829-10.971 34.743-47.543 53.029-82.286 42.057s-53.029-47.543-42.057-82.286l21.943-65.829-137.143-43.886c-12.8 40.229-21.943 65.829-21.943 65.829-10.971 34.743-47.543 53.029-82.286 42.057s-53.029-47.543-42.057-82.286l21.943-65.829-67.657-21.943c-31.086-10.971-49.371-45.714-40.229-78.629 9.143-34.743 47.543-54.857 80.457-43.886 0 0 27.429 9.143 67.657 21.943l43.886-137.143-65.829-23.771c-31.086-10.971-49.371-45.714-40.229-78.629 9.143-34.743 47.543-54.857 80.457-43.886 0 0 27.429 9.143 67.657 21.943l21.943-67.657c10.971-31.086 45.714-49.371 78.629-40.229 34.743 9.143 54.857 47.543 43.886 80.457 0 0-9.143 27.429-21.943 67.657 45.714 14.629 93.257 29.257 137.143 43.886l21.943-67.657c10.971-31.086 45.714-49.371 78.629-40.229 34.743 9.143 54.857 47.543 43.886 80.457 0 0-9.143 27.429-21.943 67.657 40.229 12.8 65.829 21.943 65.829 21.943 36.571 10.971 54.857 47.543 43.886 80.457zM420.571 506.514c43.886 14.629 93.257 29.257 137.143 43.886l43.886-137.143-135.314-43.886c-14.629 45.714-31.086 93.257-45.714 137.143z" />
<glyph unicode="&#xe938;" glyph-name="s-Add_Section-32" d="M352 460.8h64v96h96v64h-96v96h-64v-96h-96v-64h96zM768 716.8v256h-768v-768h256v-256h768v768h-256zM640 332.8h-512v512h512v-512z" />
<glyph unicode="&#xe939;" glyph-name="W-MasonryGridView-20" d="M153.6 512h256c87.040 0 153.6 66.56 153.6 153.6v153.6c0 87.040-66.56 153.6-153.6 153.6h-409.6v-307.2c0-87.040 66.56-153.6 153.6-153.6zM870.4 972.8h-51.2c-87.040 0-153.6-66.56-153.6-153.6v-153.6c0-87.040 66.56-153.6 153.6-153.6h51.2c87.040 0 153.6 66.56 153.6 153.6v307.2h-153.6zM204.8 409.6h-51.2c-87.040 0-153.6-66.56-153.6-153.6v-307.2h204.8c87.040 0 153.6 66.56 153.6 153.6v153.6c0 87.040-71.68 153.6-153.6 153.6zM870.4 409.6h-256c-87.040 0-153.6-66.56-153.6-153.6v-153.6c0-87.040 66.56-153.6 153.6-153.6h409.6v307.2c0 87.040-66.56 153.6-153.6 153.6z" />
<glyph unicode="&#xe93a;" glyph-name="W-Edit-20" d="M870.4 563.2v-358.4c0-56.32-46.080-102.4-102.4-102.4h-512c-56.32 0-102.4 46.080-102.4 102.4v512c0 56.32 46.080 102.4 102.4 102.4h358.4v153.6h-409.6c-112.64 0-204.8-92.16-204.8-204.8v-614.4c0-112.64 92.16-204.8 204.8-204.8h614.4c112.64 0 204.8 92.16 204.8 204.8v409.6h-153.6zM337.92 424.96c-40.96-40.96-66.56-117.76-61.44-174.080l5.12-30.72h25.6c56.32-5.12 133.12 20.48 174.080 61.44l35.84 35.84-148.48 143.36-30.72-35.84zM406.804 498.526l296.869 296.869 144.814-144.814-296.869-296.869-144.814 144.814zM967.68 762.88c40.96 40.96 40.96 102.4 0 143.36s-102.4 40.96-143.36 0l-81.92-81.92 143.36-143.36 81.92 81.92z" />
<glyph unicode="&#xe93b;" glyph-name="W-Search-20" d="M706.56 450.56l-56.32-56.32-51.2 51.2c40.96 51.2 66.56 122.88 66.56 194.56 0 184.32-148.48 332.8-332.8 332.8s-332.8-148.48-332.8-332.8 148.48-332.8 332.8-332.8c71.68 0 143.36 25.6 194.56 66.56l51.2-51.2-56.32-56.32 307.2-307.2 179.2 179.2-302.080 312.32zM102.4 640c0 128 102.4 230.4 230.4 230.4s230.4-102.4 230.4-230.4-102.4-230.4-230.4-230.4-230.4 102.4-230.4 230.4zM670.72 266.24l35.84 35.84 163.84-163.84-35.84-35.84-163.84 163.84z" />
<glyph unicode="&#xe93c;" glyph-name="W-ThumbnailView-20" d="M307.2 972.8h-307.2v-307.2c0-87.040 66.56-153.6 153.6-153.6h153.6c87.040 0 153.6 66.56 153.6 153.6v153.6c0 87.040-66.56 153.6-153.6 153.6zM870.4 972.8h-153.6c-87.040 0-153.6-66.56-153.6-153.6v-153.6c0-87.040 66.56-153.6 153.6-153.6h153.6c87.040 0 153.6 66.56 153.6 153.6v307.2h-153.6zM307.2 409.6h-153.6c-87.040 0-153.6-66.56-153.6-153.6v-307.2h307.2c87.040 0 153.6 66.56 153.6 153.6v153.6c0 87.040-66.56 153.6-153.6 153.6zM870.4 409.6h-153.6c-87.040 0-153.6-66.56-153.6-153.6v-153.6c0-87.040 66.56-153.6 153.6-153.6h307.2v307.2c0 87.040-66.56 153.6-153.6 153.6z" />
<glyph unicode="&#xe93d;" glyph-name="W-GEOView-20" d="M102.4 204.8h-102.4v-256h307.2v102.4h-204.8zM921.6 204.8v-153.6h-204.8v-102.4h307.2v256zM860.16 527.36c5.12 25.6 10.24 46.080 10.24 66.56 0 15.36 0 20.48 0 20.48 0 199.68-158.72 358.4-358.4 358.4s-358.4-158.72-358.4-358.4c0 0 0-5.12 0-20.48 0-20.48 5.12-46.080 10.24-66.56 10.24-56.32 35.84-138.24 92.16-220.16 102.4-153.6 256-358.4 256-358.4s153.6 204.8 256 358.4c56.32 81.92 81.92 163.84 92.16 220.16zM512 460.8c-87.040 0-153.6 66.56-153.6 153.6s66.56 153.6 153.6 153.6 153.6-66.56 153.6-153.6-66.56-153.6-153.6-153.6z" />
<glyph unicode="&#xe93e;" glyph-name="W-ListView-20" d="M102.4 716.8c56.32 0 102.4 46.080 102.4 102.4s-46.080 102.4-102.4 102.4-102.4-46.080-102.4-102.4 46.080-102.4 102.4-102.4zM256 819.2c0 56.32 46.080 102.4 102.4 102.4h563.2c56.32 0 102.4-46.080 102.4-102.4s-46.080-102.4-102.4-102.4h-563.2c-56.32 0-102.4 46.080-102.4 102.4zM102.4 358.4c56.32 0 102.4 46.080 102.4 102.4s-46.080 102.4-102.4 102.4-102.4-46.080-102.4-102.4c0-56.32 46.080-102.4 102.4-102.4zM256 460.8c0 56.32 46.080 102.4 102.4 102.4h563.2c56.32 0 102.4-46.080 102.4-102.4s-46.080-102.4-102.4-102.4h-563.2c-56.32 0-102.4 46.080-102.4 102.4zM102.4 0c56.32 0 102.4 46.080 102.4 102.4s-46.080 102.4-102.4 102.4-102.4-46.080-102.4-102.4 46.080-102.4 102.4-102.4zM256 102.4c0 56.32 46.080 102.4 102.4 102.4h563.2c56.32 0 102.4-46.080 102.4-102.4s-46.080-102.4-102.4-102.4h-563.2c-56.32 0-102.4 46.080-102.4 102.4z" />
<glyph unicode="&#xe93f;" glyph-name="W-Filter-20" d="M1024 256l-512 614.4-512-614.4h409.6v-102.4c0-56.32 46.080-102.4 102.4-102.4s102.4 46.080 102.4 102.4v102.4h409.6z" />
<glyph unicode="&#xe940;" glyph-name="W-Date-20" d="M870.4 819.2h-102.4v76.8c0 40.96-35.84 76.8-76.8 76.8s-76.8-35.84-76.8-76.8v-76.8h-204.8v76.8c0 40.96-35.84 76.8-76.8 76.8s-76.8-35.84-76.8-76.8v-76.8h-102.4c-87.040 0-153.6-66.56-153.6-153.6v-563.2c0-87.040 66.56-153.6 153.6-153.6h716.8c87.040 0 153.6 66.56 153.6 153.6v563.2c0 87.040-66.56 153.6-153.6 153.6zM230.4 153.6c-40.96 0-76.8 35.84-76.8 76.8s35.84 76.8 76.8 76.8 76.8-35.84 76.8-76.8-35.84-76.8-76.8-76.8zM230.4 460.8c-40.96 0-76.8 35.84-76.8 76.8s35.84 76.8 76.8 76.8 76.8-35.84 76.8-76.8-35.84-76.8-76.8-76.8zM793.6 153.6h-307.2c-40.96 0-76.8 35.84-76.8 76.8s35.84 76.8 76.8 76.8h307.2c40.96 0 76.8-35.84 76.8-76.8s-35.84-76.8-76.8-76.8zM793.6 460.8h-307.2c-40.96 0-76.8 35.84-76.8 76.8s35.84 76.8 76.8 76.8h307.2c40.96 0 76.8-35.84 76.8-76.8s-35.84-76.8-76.8-76.8z" />
<glyph unicode="&#xe941;" glyph-name="W-more-24" d="M512 716.8c72.533 0 128 55.467 128 128s-55.467 128-128 128-128-55.467-128-128 55.467-128 128-128zM512 588.8c-72.533 0-128-55.467-128-128s55.467-128 128-128 128 55.467 128 128-55.467 128-128 128zM512 204.8c-72.533 0-128-55.467-128-128s55.467-128 128-128 128 55.467 128 128-55.467 128-128 128z" />
<glyph unicode="&#xe942;" glyph-name="W-TypeASC-20" d="M819.2 921.6h-614.4c-112.64 0-204.8-102.4-204.8-230.4v-465.92c0-122.88 92.16-225.28 204.8-225.28h614.4c112.64 0 204.8 102.4 204.8 230.4v460.8c0 128-92.16 230.4-204.8 230.4zM716.8 153.6h-409.6c-87.040 0-153.6 66.56-153.6 153.6s66.56 153.6 153.6 153.6h409.6c87.040 0 153.6-66.56 153.6-153.6s-66.56-153.6-153.6-153.6zM768 563.2h-512c-56.32 0-102.4 46.080-102.4 102.4s46.080 102.4 102.4 102.4h512c56.32 0 102.4-46.080 102.4-102.4s-46.080-102.4-102.4-102.4zM716.8 358.4h-409.6c-30.72 0-51.2-20.48-51.2-51.2s20.48-51.2 51.2-51.2h409.6c30.72 0 51.2 20.48 51.2 51.2s-20.48 51.2-51.2 51.2z" />
<glyph unicode="&#xe943;" glyph-name="W-TypeDESC-20" d="M819.2 921.6h-614.4c-112.64 0-204.8-102.4-204.8-230.4v-465.92c0-122.88 92.16-225.28 204.8-225.28h614.4c112.64 0 204.8 102.4 204.8 230.4v460.8c0 128-92.16 230.4-204.8 230.4zM307.2 768h409.6c87.040 0 153.6-66.56 153.6-153.6s-66.56-153.6-153.6-153.6h-409.6c-87.040 0-153.6 66.56-153.6 153.6s66.56 153.6 153.6 153.6zM768 153.6h-512c-56.32 0-102.4 46.080-102.4 102.4s46.080 102.4 102.4 102.4h512c56.32 0 102.4-46.080 102.4-102.4s-46.080-102.4-102.4-102.4zM307.2 563.2h409.6c30.72 0 51.2 20.48 51.2 51.2s-20.48 51.2-51.2 51.2h-409.6c-30.72 0-51.2-20.48-51.2-51.2s20.48-51.2 51.2-51.2z" />
<glyph unicode="&#xe944;" glyph-name="W-AllFiles-32" d="M576 748.8h-224v-64h-64v-512h384v64h64v384l-128 128h-32zM640 204.8h-320v448h32v-416h288v-32zM704 268.8h-320v448h192v-128h128v-320zM608 620.8v83.2l83.2-83.2h-83.2z" />
<glyph unicode="&#xe945;" glyph-name="W-Audio-32" d="M416 684.8v0-240c-12.8 9.6-28.8 16-48 16-44.8 0-80-35.2-80-80s35.2-80 80-80 80 35.2 80 80v169.6l224-51.2v-118.4c-12.8 9.6-28.8 16-48 16-44.8 0-80-35.2-80-80s35.2-80 80-80 80 35.2 80 80v304l-288 64zM624 268.8c-25.6 0-48 22.4-48 48s22.4 48 48 48 48-22.4 48-48-22.4-48-48-48zM368 332.8c-25.6 0-48 22.4-48 48s22.4 48 48 48 48-22.4 48-48-22.4-48-48-48zM672 595.2v-64l-224 51.2v64l224-51.2z" />
<glyph unicode="&#xe946;" glyph-name="W-Documents-32" d="M544 716.8h-224v-512h384v384l-128 128h-32zM672 236.8h-320v448h192v-128h128v-320zM576 588.8v83.2l83.2-83.2h-83.2zM624 332.8h-224c-9.6 0-16-6.4-16-16s6.4-16 16-16h224c9.6 0 16 6.4 16 16s-6.4 16-16 16zM624 428.8h-224c-9.6 0-16-6.4-16-16s6.4-16 16-16h224c9.6 0 16 6.4 16 16s-6.4 16-16 16zM384 508.8c0-9.6 6.4-16 16-16h224c9.6 0 16 6.4 16 16s-6.4 16-16 16h-224c-9.6 0-16-6.4-16-16zM396.8 588.8h105.6c6.4 0 12.8 6.4 12.8 12.8v9.6c0 6.4-6.4 12.8-12.8 12.8h-105.6c-6.4 0-12.8-6.4-12.8-12.8v-9.6c0-6.4 6.4-12.8 12.8-12.8z" />
<glyph unicode="&#xe947;" glyph-name="W-Images-32" d="M720 684.8h-416c-25.6 0-48-22.4-48-48v-352c0-25.6 22.4-48 48-48h416c25.6 0 48 22.4 48 48v352c0 25.6-22.4 48-48 48zM460.8 268.8v0h-156.8c0 0 0 0-3.2 0l115.2 115.2 115.2-115.2h-70.4zM736 284.8c0-9.6-6.4-16-16-16h-144l-57.6 57.6 89.6 89.6 128-131.2zM736 332.8l-128 128-112-112-80 80-128-128v336c0 9.6 6.4 16 16 16h416c9.6 0 16-6.4 16-16v-304zM400 588.8c-25.6 0-48-22.4-48-48s22.4-48 48-48 48 22.4 48 48-22.4 48-48 48zM400 524.8c-9.6 0-16 6.4-16 16s6.4 16 16 16 16-6.4 16-16-6.4-16-16-16z" />
<glyph unicode="&#xe948;" glyph-name="W-DateASC-20" d="M870.4 819.2h-102.4v76.8c0 40.96-35.84 76.8-76.8 76.8s-76.8-35.84-76.8-76.8v-76.8h-204.8v76.8c0 40.96-35.84 76.8-76.8 76.8s-76.8-35.84-76.8-76.8v-76.8h-102.4c-87.040 0-153.6-66.56-153.6-153.6v-563.2c0-87.040 66.56-153.6 153.6-153.6h716.8c87.040 0 153.6 66.56 153.6 153.6v563.2c0 87.040-66.56 153.6-153.6 153.6zM230.4 153.6c-40.96 0-76.8 35.84-76.8 76.8s35.84 76.8 76.8 76.8 76.8-35.84 76.8-76.8-35.84-76.8-76.8-76.8zM230.4 460.8c-40.96 0-76.8 35.84-76.8 76.8s35.84 76.8 76.8 76.8 76.8-35.84 76.8-76.8-35.84-76.8-76.8-76.8zM793.6 153.6h-307.2c-40.96 0-76.8 35.84-76.8 76.8s35.84 76.8 76.8 76.8h307.2c40.96 0 76.8-35.84 76.8-76.8s-35.84-76.8-76.8-76.8zM640 460.8h-153.6c-40.96 0-76.8 35.84-76.8 76.8s35.84 76.8 76.8 76.8h153.6c40.96 0 76.8-35.84 76.8-76.8s-35.84-76.8-76.8-76.8z" />
<glyph unicode="&#xe949;" glyph-name="W-DateDESC-20" d="M870.4 819.2h-102.4v76.8c0 40.96-35.84 76.8-76.8 76.8s-76.8-35.84-76.8-76.8v-76.8h-204.8v76.8c0 40.96-35.84 76.8-76.8 76.8s-76.8-35.84-76.8-76.8v-76.8h-102.4c-87.040 0-153.6-66.56-153.6-153.6v-563.2c0-87.040 66.56-153.6 153.6-153.6h716.8c87.040 0 153.6 66.56 153.6 153.6v563.2c0 87.040-66.56 153.6-153.6 153.6zM230.4 153.6c-40.96 0-76.8 35.84-76.8 76.8s35.84 76.8 76.8 76.8 76.8-35.84 76.8-76.8-35.84-76.8-76.8-76.8zM230.4 460.8c-40.96 0-76.8 35.84-76.8 76.8s35.84 76.8 76.8 76.8 76.8-35.84 76.8-76.8-35.84-76.8-76.8-76.8zM640 153.6h-153.6c-40.96 0-76.8 35.84-76.8 76.8s35.84 76.8 76.8 76.8h153.6c40.96 0 76.8-35.84 76.8-76.8s-35.84-76.8-76.8-76.8zM793.6 460.8h-307.2c-40.96 0-76.8 35.84-76.8 76.8s35.84 76.8 76.8 76.8h307.2c40.96 0 76.8-35.84 76.8-76.8s-35.84-76.8-76.8-76.8z" />
<glyph unicode="&#xe94a;" glyph-name="W-NameASC" d="M271.36 593.92v0c-10.24-25.6-15.36-56.32-20.48-76.8l-25.6-92.16h81.92l-20.48 92.16c-5.12 20.48-10.24 56.32-15.36 76.8zM819.2 921.6h-614.4c-112.64 0-204.8-102.4-204.8-230.4v-465.92c0-122.88 92.16-225.28 204.8-225.28h614.4c112.64 0 204.8 102.4 204.8 230.4v460.8c0 128-92.16 230.4-204.8 230.4zM348.16 266.24l-25.6 102.4h-107.52l-25.6-102.4h-76.8l112.64 394.24h97.28l112.64-394.24h-87.040zM599.040 394.24h-138.24v51.2h138.24v-51.2zM896 266.24h-266.24v40.96l174.080 286.72h-158.72v61.44h250.88v-46.080l-168.96-281.6h168.96v-61.44z" />
<glyph unicode="&#xe94b;" glyph-name="W-NameDESC" d="M747.52 593.92v0c-5.12-25.6-15.36-56.32-20.48-81.92l-25.6-92.16h81.92l-25.6 92.16c0 25.6-5.12 61.44-10.24 81.92zM819.2 921.6h-614.4c-112.64 0-204.8-102.4-204.8-230.4v-465.92c0-122.88 92.16-225.28 204.8-225.28h614.4c112.64 0 204.8 102.4 204.8 230.4v460.8c0 128-92.16 230.4-204.8 230.4zM389.12 266.24h-271.36v40.96l174.080 286.72h-158.72v61.44h250.88v-46.080l-168.96-281.6h168.96v-61.44zM563.2 394.24h-143.36v51.2h143.36v-51.2zM824.32 266.24l-25.6 102.4h-107.52l-25.6-102.4h-76.8l112.64 394.24h97.28l107.52-394.24h-81.92z" />
<glyph unicode="&#xe94c;" glyph-name="W-Others-32" d="M544 716.8h-224v-512h384v384l-128 128h-32zM672 236.8h-320v448h192v-128h128v-320zM659.2 588.8h-83.2v83.2l83.2-83.2z" />
<glyph unicode="&#xe94d;" glyph-name="W-Presentations-32" d="M688 684.8h-352c-25.6 0-48-22.4-48-48v-224c0-25.6 22.4-48 48-48h352c25.6 0 48 22.4 48 48v224c0 25.6-22.4 48-48 48zM704 412.8c0-9.6-6.4-16-16-16h-352c-9.6 0-16 6.4-16 16v224c0 9.6 6.4 16 16 16h352c9.6 0 16-6.4 16-16v-224zM576 300.8v32h-32v-41.6l16-22.4h-96l16 22.4v41.6h-32v-32l-28.8-35.2c-9.6-12.8 0-28.8 12.8-28.8h156.8c16 0 22.4 16 12.8 28.8l-25.6 35.2z" />
<glyph unicode="&#xe94e;" glyph-name="W-Workspace-20" d="M512 972.8c-281.6 0-512-230.4-512-512s230.4-512 512-512 512 230.4 512 512-230.4 512-512 512zM889.6 524.8c0 0 6.4 0 0 0 44.8 0 70.4-25.6 70.4-64s-25.6-64-64-64c0 0-6.4 0-6.4 0 6.4 19.2 6.4 44.8 6.4 64s0 44.8-6.4 64zM940.8 582.4c-12.8 0-25.6 6.4-44.8 6.4-6.4 0-12.8 0-19.2 0-38.4 108.8-128 198.4-236.8 236.8 0 6.4 0 12.8 0 19.2 0 19.2-6.4 32-6.4 44.8 147.2-38.4 268.8-160 307.2-307.2zM384 268.8c-38.4 0-64 25.6-64 64s25.6 64 64 64h256c38.4 0 64-25.6 64-64s-25.6-64-64-64h-256zM640 524.8h-256c-38.4 0-64 25.6-64 64s25.6 64 64 64h256c38.4 0 64-25.6 64-64s-25.6-64-64-64zM512 908.8c38.4 0 64-25.6 64-64 0 0 0-6.4 0-6.4-19.2 6.4-44.8 6.4-64 6.4s-44.8 0-64-6.4c0 0 0 6.4 0 6.4 0 38.4 25.6 64 64 64zM390.4 889.6c0-12.8-6.4-25.6-6.4-44.8 0-6.4 0-12.8 0-19.2-108.8-38.4-198.4-128-236.8-236.8-6.4 0-12.8 0-19.2 0-19.2 0-32-6.4-44.8-6.4 38.4 147.2 160 268.8 307.2 307.2zM128 524.8c0 0 6.4 0 0 0 0-19.2 0-44.8 0-64s0-44.8 6.4-64c0 0-6.4 0-6.4 0-38.4 0-64 25.6-64 64s25.6 64 64 64zM83.2 339.2c12.8 0 25.6-6.4 44.8-6.4 6.4 0 12.8 0 19.2 0 38.4-108.8 128-198.4 236.8-236.8 0-6.4 0-12.8 0-19.2 0-19.2 6.4-32 6.4-44.8-147.2 38.4-268.8 160-307.2 307.2zM512 12.8c-38.4 0-64 25.6-64 64 0 0 0 6.4 0 6.4 19.2-6.4 44.8-6.4 64-6.4s44.8 0 64 6.4c0 0 0-6.4 0-6.4 0-38.4-25.6-64-64-64zM633.6 32c0 12.8 6.4 25.6 6.4 44.8 0 6.4 0 12.8 0 19.2 108.8 38.4 198.4 128 236.8 236.8 6.4 0 12.8 0 19.2 0 19.2 0 32 6.4 44.8 6.4-38.4-147.2-160-268.8-307.2-307.2z" />
<glyph unicode="&#xe94f;" glyph-name="s-Workspace-56" d="M822.857 259.657h-36.571v-36.571h-36.571v-36.571h36.571v-36.571h36.571v36.571h36.571v36.571h-36.571zM804.571 387.657c-100.571 0-182.857-82.286-182.857-182.857s82.286-182.857 182.857-182.857 182.857 82.286 182.857 182.857-82.286 182.857-182.857 182.857zM804.571 76.8c-71.314 0-128 56.686-128 128s56.686 128 128 128 128-56.686 128-128-56.686-128-128-128zM420.571 570.514c0-20.198-16.374-36.571-36.571-36.571s-36.571 16.374-36.571 36.571c0 20.198 16.374 36.571 36.571 36.571s36.571-16.374 36.571-36.571zM640 607.086h-146.286c-20.114 0-36.571-16.457-36.571-36.571s16.457-36.571 36.571-36.571h146.286c20.114 0 36.571 16.457 36.571 36.571s-16.457 36.571-36.571 36.571zM420.571 424.229c0-20.198-16.374-36.571-36.571-36.571s-36.571 16.374-36.571 36.571c0 20.198 16.374 36.571 36.571 36.571s36.571-16.374 36.571-36.571zM640 460.8h-146.286c-20.114 0-36.571-16.457-36.571-36.571s16.457-36.571 36.571-36.571h146.286c20.114 0 36.571 16.457 36.571 36.571s-16.457 36.571-36.571 36.571zM237.714 497.371c0-40.396-32.747-73.143-73.143-73.143s-73.143 32.747-73.143 73.143c0 40.396 32.747 73.143 73.143 73.143s73.143-32.747 73.143-73.143zM932.571 497.371c0-40.396-32.747-73.143-73.143-73.143s-73.143 32.747-73.143 73.143c0 40.396 32.747 73.143 73.143 73.143s73.143-32.747 73.143-73.143zM585.143 844.8c0-40.396-32.747-73.143-73.143-73.143s-73.143 32.747-73.143 73.143c0 40.396 32.747 73.143 73.143 73.143s73.143-32.747 73.143-73.143zM585.143 149.943c0-40.396-32.747-73.143-73.143-73.143s-73.143 32.747-73.143 73.143c0 40.396 32.747 73.143 73.143 73.143s73.143-32.747 73.143-73.143zM215.771 594.286c31.086 93.257 104.229 168.229 199.314 199.314-7.314 14.629-12.8 32.914-12.8 51.2 0 7.314 0 14.629 1.829 20.114-126.171-36.571-224.914-135.314-261.486-261.486 7.314 3.657 14.629 3.657 21.943 3.657 18.286 0 36.571-5.486 51.2-12.8zM808.229 594.286c14.629 7.314 32.914 12.8 51.2 12.8 7.314 0 14.629 0 20.114-1.829-36.571 126.171-135.314 224.914-261.486 261.486 3.657-7.314 3.657-14.629 3.657-21.943 0-18.286-5.486-36.571-12.8-51.2 93.257-31.086 168.229-106.057 199.314-199.314zM215.771 400.457c-14.629-7.314-32.914-12.8-51.2-12.8-7.314 0-14.629 0-20.114 1.829 36.571-126.171 135.314-224.914 261.486-261.486-3.657 7.314-3.657 14.629-3.657 21.943 0 18.286 5.486 36.571 12.8 51.2-93.257 31.086-168.229 106.057-199.314 199.314z" />
<glyph unicode="&#xe950;" glyph-name="T-Type-16" d="M768 908.8h-512c-70.4 0-128-57.6-128-128v-128c0-70.4 57.6-128 128-128h512c70.4 0 128 57.6 128 128v128c0 70.4-57.6 128-128 128zM768 396.8h-512c-70.4 0-128-57.6-128-128v-128c0-70.4 57.6-128 128-128h512c70.4 0 128 57.6 128 128v128c0 70.4-57.6 128-128 128zM832 140.8c0-38.4-25.6-64-64-64h-512c-38.4 0-64 25.6-64 64v128c0 38.4 25.6 64 64 64h512c38.4 0 64-25.6 64-64v-128z" />
<glyph unicode="&#xe951;" glyph-name="T-Name-16" d="M960 780.8h-409.6v-102.4h262.4l-256-416-153.6 518.4h-153.6l-185.6-640h121.6l38.4 166.4h172.8l51.2-166.4h512v102.4h-275.2l275.2 460.8v76.8zM249.6 396.8l38.4 147.2c6.4 38.4 19.2 89.6 32 128 6.4-32 19.2-89.6 25.6-121.6l32-153.6h-128z" />
<glyph unicode="&#xe952;" glyph-name="T-Custom-16" d="M192 652.8h640c70.4 0 128 57.6 128 128s-57.6 128-128 128h-640c-70.4 0-128-57.6-128-128s57.6-128 128-128zM832 588.8h-640c-70.4 0-128-57.6-128-128s57.6-128 128-128h640c70.4 0 128 57.6 128 128s-57.6 128-128 128zM832 396.8h-640c-38.4 0-64 25.6-64 64s25.6 64 64 64h640c38.4 0 64-25.6 64-64s-25.6-64-64-64zM832 268.8h-640c-70.4 0-128-57.6-128-128s57.6-128 128-128h640c70.4 0 128 57.6 128 128s-57.6 128-128 128z" />
<glyph unicode="&#xe953;" glyph-name="T-Date-16" d="M832 780.8h-64v64c0 32-32 64-64 64h-64c-32 0-64-32-64-64v-64h-128v64c0 32-32 64-64 64h-64c-32 0-64-32-64-64v-64h-64c-32 0-64-32-64-64v-640c0-32 32-64 64-64h640c32 0 64 32 64 64v640c0 32-32 64-64 64zM640 844.8h64v-192h-64v192zM320 844.8h64v-192h-64v192zM832 76.8h-640v512h640v-512z" />
<glyph unicode="&#xe954;" glyph-name="W-Videos-32" d="M742.4 489.6l-345.6 172.8c-3.2 3.2-9.6 3.2-12.8 3.2-19.2 0-32-12.8-32-32v-345.6c0-6.4 0-9.6 3.2-12.8 6.4-9.6 16-19.2 28.8-19.2 3.2 0 9.6 0 12.8 3.2l345.6 172.8c6.4 3.2 12.8 9.6 12.8 12.8 3.2 6.4 3.2 16 3.2 25.6-3.2 9.6-6.4 16-16 19.2zM384 288v345.6c0 0 0 0 0 0v0l345.6-172.8-345.6-172.8z" />
<glyph unicode="&#xe955;" glyph-name="W-Treemenu-24" d="M128 674.133h768c46.933 0 85.333 38.4 85.333 85.333s-38.4 85.333-85.333 85.333h-768c-46.933 0-85.333-38.4-85.333-85.333s38.4-85.333 85.333-85.333zM896 247.467h-768c-46.933 0-85.333-38.4-85.333-85.333s38.4-85.333 85.333-85.333h768c46.933 0 85.333 38.4 85.333 85.333s-38.4 85.333-85.333 85.333zM896 546.133h-768c-46.933 0-85.333-38.4-85.333-85.333s38.4-85.333 85.333-85.333h768c46.933 0 85.333 38.4 85.333 85.333s-38.4 85.333-85.333 85.333z" />
<glyph unicode="&#xe956;" glyph-name="W-arrow-24" d="M938.667 546.133h-704l200.533 200.533c25.6 25.6 25.6 68.267 0 93.867s-68.267 25.6-93.867 0l-320-320c-4.267-4.267-8.533-12.8-12.8-25.6-4.267-8.533-8.533-21.333-8.533-34.133s4.267-25.6 8.533-34.133c4.267-8.533 8.533-17.067 12.8-25.6l320-320c25.6-25.6 68.267-25.6 93.867 0s25.6 68.267 0 93.867l-196.267 200.533h699.733c46.933 0 85.333 38.4 85.333 85.333s-38.4 85.333-85.333 85.333z" />
<glyph unicode="&#xe957;" glyph-name="W-profile-24" d="M853.333 136.533c21.333 21.333 38.4 42.667 55.467 68.267 0 0 0 0 0 0 8.533 12.8 17.067 25.6 21.333 38.4 0 0 0 0 0 4.267 4.267 12.8 12.8 25.6 17.067 38.4 0 4.267 0 4.267 4.267 8.533 4.267 12.8 8.533 21.333 12.8 34.133 0 4.267 4.267 8.533 4.267 12.8 4.267 8.533 4.267 21.333 8.533 29.867 0 8.533 4.267 17.067 4.267 21.333 0 8.533 4.267 12.8 4.267 21.333 0 17.067 4.267 29.867 4.267 46.933 0 260.267-209.067 469.333-469.333 469.333s-477.867-209.067-477.867-469.333c0-17.067 0-29.867 4.267-46.933 0-8.533 4.267-17.067 4.267-21.333 0-8.533 0-17.067 4.267-21.333 0-8.533 4.267-21.333 8.533-29.867 0-4.267 4.267-8.533 4.267-12.8 4.267-12.8 8.533-21.333 12.8-34.133 0-4.267 0-4.267 4.267-8.533 4.267-12.8 12.8-25.6 17.067-38.4 0 0 0 0 0-4.267 8.533-12.8 12.8-25.6 21.333-38.4 0 0 0 0 0 0 17.067-25.6 34.133-46.933 55.467-68.267 0 0 0 0 0 0v0c85.333-89.6 204.8-145.067 341.333-145.067 123.733 0 247.467 55.467 332.8 145.067v0c0 0 0 0 0 0zM512 34.133c-132.267 0-256 64-332.8 157.867 25.6 123.733 119.467 217.6 238.933 251.733-46.933 34.133-76.8 85.333-76.8 145.067 0 93.867 76.8 170.667 170.667 170.667s170.667-76.8 170.667-170.667c0-59.733-29.867-110.933-76.8-140.8 119.467-34.133 209.067-132.267 238.933-251.733-76.8-98.133-196.267-162.133-332.8-162.133z" />
<glyph unicode="&#xe958;" glyph-name="W-settings-24" d="M896 546.133h-8.533c-8.533 42.667-25.6 81.067-51.2 119.467l8.533 8.533c34.133 34.133 34.133 85.333 0 119.467s-85.333 34.133-119.467 0l-8.533-8.533c-38.4 25.6-76.8 38.4-119.467 51.2v8.533c0 46.933-38.4 85.333-85.333 85.333s-85.333-38.4-85.333-85.333v-8.533c-42.667-12.8-81.067-25.6-119.467-51.2l-8.533 8.533c-34.133 34.133-85.333 34.133-119.467 0s-34.133-89.6 0-119.467l8.533-8.533c-25.6-38.4-38.4-76.8-51.2-119.467h-8.533c-46.933 0-85.333-38.4-85.333-85.333s38.4-85.333 85.333-85.333h8.533c8.533-42.667 25.6-81.067 51.2-119.467l-8.533-8.533c-34.133-34.133-34.133-85.333 0-119.467s85.333-34.133 119.467 0l8.533 8.533c34.133-21.333 76.8-38.4 119.467-51.2v-8.533c0-46.933 38.4-85.333 85.333-85.333s85.333 38.4 85.333 85.333v8.533c42.667 8.533 81.067 25.6 119.467 51.2l8.533-8.533c34.133-34.133 85.333-34.133 119.467 0s34.133 85.333 0 119.467l-8.533 8.533c21.333 34.133 38.4 76.8 51.2 119.467h8.533c46.933 0 85.333 38.4 85.333 85.333s-38.4 85.333-85.333 85.333zM512 332.8c-72.533 0-128 55.467-128 128s55.467 128 128 128 128-55.467 128-128-55.467-128-128-128z" />
<glyph unicode="&#xe959;" glyph-name="W-advanceduploader-24" d="M640 76.8h-469.333c-25.6 0-42.667-17.067-42.667-42.667s17.067-42.667 42.667-42.667h469.333c25.6 0 42.667 17.067 42.667 42.667s-17.067 42.667-42.667 42.667zM853.333 76.8h-42.667c-25.6 0-42.667-17.067-42.667-42.667s17.067-42.667 42.667-42.667h42.667c25.6 0 42.667 17.067 42.667 42.667s-17.067 42.667-42.667 42.667zM896 802.133h-426.667v42.667c0 46.933-38.4 85.333-85.333 85.333h-256c-46.933 0-85.333-38.4-85.333-85.333v-512c0-46.933 38.4-85.333 85.333-85.333h298.667v128h-128l213.333 285.867 213.333-285.867h-128v-128h298.667c46.933 0 85.333 38.4 85.333 85.333v384c0 46.933-38.4 85.333-85.333 85.333zM554.667 162.133v256h85.333l-128 170.667-128-170.667h85.333v-256z" />
<glyph unicode="&#xe95a;" glyph-name="W-mycollections-24" d="M512-8.533l-72.533 72.533c-264.533 234.667-439.467 392.533-439.467 584.533 0 157.867 123.733 281.6 281.6 281.6 85.333 0 174.933-42.667 230.4-106.667 55.467 64 145.067 106.667 230.4 106.667 157.867 0 281.6-123.733 281.6-281.6 0-192-174.933-349.867-439.467-584.533l-72.533-72.533z" />
<glyph unicode="&#xe95b;" glyph-name="W-logoout-24" d="M640 913.067v-136.533c123.733-51.2 209.067-170.667 209.067-315.733 0-187.733-153.6-337.067-337.067-337.067s-337.067 149.333-337.067 337.067c0 140.8 85.333 264.533 209.067 315.733v136.533c-196.267-55.467-341.333-238.933-341.333-452.267 0-260.267 209.067-469.333 469.333-469.333s469.333 209.067 469.333 469.333c0 213.333-145.067 396.8-341.333 452.267zM512 674.133c25.6 0 42.667 17.067 42.667 42.667v213.333c0 25.6-17.067 42.667-42.667 42.667s-42.667-17.067-42.667-42.667v-213.333c0-25.6 17.067-42.667 42.667-42.667z" />
<glyph unicode="&#xe95c;" glyph-name="W-help-24" d="M512 930.133c-260.267 0-469.333-209.067-469.333-469.333s209.067-469.333 469.333-469.333 469.333 209.067 469.333 469.333-209.067 469.333-469.333 469.333zM507.733 132.267c-42.667 0-72.533 34.133-72.533 72.533 0 42.667 29.867 76.8 72.533 76.8s72.533-29.867 72.533-76.8c0-38.4-25.6-72.533-72.533-72.533zM605.867 473.6c-42.667-55.467-42.667-85.333-42.667-140.8h-102.4c0 25.6-4.267 29.867-4.267 34.133 0 46.933 17.067 89.6 51.2 136.533 29.867 38.4 51.2 72.533 51.2 106.667 0 38.4-21.333 64-68.267 64-25.6 0-59.733-8.533-81.067-25.6l-25.6 85.333c29.867 17.067 76.8 34.133 132.267 34.133 119.467 4.267 166.4-64 166.4-136.533 0-64-38.4-110.933-76.8-157.867z" />
<glyph unicode="&#xe95d;" glyph-name="W-gotoportal-24" d="M896 930.133h-768c-46.933 0-85.333-38.4-85.333-85.333v-768c0-46.933 38.4-85.333 85.333-85.333h768c46.933 0 85.333 38.4 85.333 85.333v768c0 46.933-38.4 85.333-85.333 85.333zM234.667 162.133c-34.133 0-64 29.867-64 64s29.867 64 64 64 64-29.867 64-64-29.867-64-64-64zM234.667 418.133c-34.133 0-64 29.867-64 64s29.867 64 64 64 64-29.867 64-64-29.867-64-64-64zM789.333 162.133h-341.333c-34.133 0-64 29.867-64 64s29.867 64 64 64h341.333c34.133 0 64-29.867 64-64s-29.867-64-64-64zM789.333 418.133h-341.333c-34.133 0-64 29.867-64 64s29.867 64 64 64h341.333c34.133 0 64-29.867 64-64s-29.867-64-64-64zM789.333 674.133h-554.667c-34.133 0-64 29.867-64 64s29.867 64 64 64h554.667c34.133 0 64-29.867 64-64s-29.867-64-64-64z" />
<glyph unicode="&#xe95e;" glyph-name="W-aboutus-24" d="M512 930.133c-260.267 0-469.333-209.067-469.333-469.333s209.067-469.333 469.333-469.333 469.333 209.067 469.333 469.333-209.067 469.333-469.333 469.333zM597.333 204.8c0-46.933-38.4-85.333-85.333-85.333s-85.333 38.4-85.333 85.333v256c0 46.933 38.4 85.333 85.333 85.333s85.333-38.4 85.333-85.333v-256zM512 631.467c-46.933 0-85.333 38.4-85.333 85.333s38.4 85.333 85.333 85.333 85.333-38.4 85.333-85.333-38.4-85.333-85.333-85.333z" />
<glyph unicode="&#xe95f;" glyph-name="W-PageDown-32" d="M320-35.2c-12.8 0-25.6 3.2-35.2 12.8-19.2 19.2-19.2 48 0 67.2l416 416-416 412.8c-19.2 19.2-19.2 48 0 67.2s48 19.2 67.2 0l448-448c19.2-19.2 19.2-48 0-67.2l-448-448c-6.4-9.6-19.2-12.8-32-12.8z" />
<glyph unicode="&#xe960;" glyph-name="W-PageUp-32" d="M704-35.2c-12.8 0-25.6 3.2-35.2 12.8l-448 448c-19.2 19.2-19.2 48 0 67.2l448 448c19.2 19.2 48 19.2 67.2 0s19.2-48 0-67.2l-412.8-412.8 412.8-412.8c19.2-19.2 19.2-48 0-67.2-6.4-12.8-19.2-16-32-16z" />
<glyph unicode="&#xe961;" glyph-name="Uploadicon-56" d="M1024 479.086h-493.714v493.714h-36.571v-493.714h-493.714v-36.571h493.714v-493.714h36.571v493.714h493.714z" />
<glyph unicode="&#xe962;" glyph-name="s-UnselectedCheck_32" d="M512 876.8c230.4 0 416-185.6 416-416s-185.6-416-416-416-416 185.6-416 416 185.6 416 416 416zM512 972.8c-281.6 0-512-230.4-512-512s230.4-512 512-512 512 230.4 512 512-230.4 512-512 512v0z" />
<glyph unicode="&#xe963;" glyph-name="s-importicon-56" d="M548.571 533.943v73.143l-164.571-146.286 164.571-146.286v73.143h292.571v146.286zM512 168.229c-160.914 0-292.571 131.657-292.571 292.571s131.657 292.571 292.571 292.571c84.114 0 159.086-34.743 212.114-91.429h93.257c-65.829 98.743-177.371 164.571-305.371 164.571-201.143 0-365.714-164.571-365.714-365.714s164.571-365.714 365.714-365.714c128 0 239.543 65.829 305.371 164.571h-93.257c-53.029-56.686-128-91.429-212.114-91.429z" />
<glyph unicode="&#xe964;" glyph-name="s-PasswordPolicy-56" d="M733.257 533.943h-21.943c0 5.486 1.829 12.8 1.829 18.286v73.143c0 109.714-91.429 201.143-201.143 201.143s-201.143-91.429-201.143-201.143v-73.143c0-5.486 0-12.8 1.829-18.286h-21.943c-38.4 0-71.314-31.086-71.314-71.314v-296.229c0-38.4 31.086-71.314 71.314-71.314h442.514c38.4 0 71.314 31.086 71.314 71.314v296.229c0 40.229-31.086 71.314-71.314 71.314zM585.143 186.514h-146.286l31.086 122.514c-18.286 12.8-31.086 34.743-31.086 60.343 0 40.229 32.914 73.143 73.143 73.143s73.143-32.914 73.143-73.143c0-23.771-12.8-45.714-31.086-60.343l31.086-122.514zM603.429 552.229c0-5.486 0-12.8-1.829-18.286h-179.2c-1.829 5.486-1.829 12.8-1.829 18.286v73.143c0 51.2 40.229 91.429 91.429 91.429s91.429-40.229 91.429-91.429v-73.143z" />
<glyph unicode="&#xe965;" glyph-name="s--SmartTags-56" d="M256 479.086c0 20.114-16.457 36.571-36.571 36.571h-109.714c-20.114 0-36.571-16.457-36.571-36.571s16.457-36.571 36.571-36.571h109.714c20.114 0 36.571 16.457 36.571 36.571zM914.286 515.657h-109.714c-20.114 0-36.571-16.457-36.571-36.571s16.457-36.571 36.571-36.571h109.714c20.114 0 36.571 16.457 36.571 36.571s-16.457 36.571-36.571 36.571zM512 735.086c20.114 0 36.571 16.457 36.571 36.571v109.714c0 20.114-16.457 36.571-36.571 36.571s-36.571-16.457-36.571-36.571v-109.714c0-20.114 16.457-36.571 36.571-36.571zM279.771 298.057l-78.629-76.8c-14.629-14.629-14.629-38.4 0-51.2 14.629-14.629 38.4-14.629 51.2 0l76.8 76.8c14.629 14.629 14.629 38.4 0 51.2-12.8 14.629-36.571 14.629-49.371 0zM744.229 660.114l76.8 76.8c14.629 14.629 14.629 38.4 0 51.2-14.629 14.629-38.4 14.629-51.2 0l-76.8-76.8c-14.629-14.629-14.629-38.4 0-51.2 14.629-14.629 38.4-14.629 51.2 0zM744.229 298.057c-14.629 14.629-38.4 14.629-51.2 0-14.629-14.629-14.629-38.4 0-51.2l76.8-76.8c14.629-14.629 38.4-14.629 51.2 0 14.629 14.629 14.629 38.4 0 51.2l-76.8 76.8zM279.771 660.114c14.629-14.629 38.4-14.629 51.2 0 14.629 14.629 14.629 38.4 0 51.2l-76.8 78.629c-14.629 14.629-38.4 14.629-51.2 0-14.629-14.629-14.629-38.4 0-51.2l76.8-78.629zM585.143 186.514h-146.286c-20.114 0-36.571-16.457-36.571-36.571v-36.571c0-20.114 16.457-36.571 36.571-36.571h21.943c7.314-21.943 27.429-36.571 51.2-36.571s43.886 14.629 51.2 36.571h21.943c20.114 0 36.571 16.457 36.571 36.571v36.571c0 20.114-16.457 36.571-36.571 36.571zM512 698.514c-120.686 0-219.429-98.743-219.429-219.429 0-80.457 43.886-151.771 109.714-190.171v-29.257c0-20.114 16.457-36.571 36.571-36.571h146.286c20.114 0 36.571 16.457 36.571 36.571v29.257c65.829 38.4 109.714 109.714 109.714 190.171 0 120.686-98.743 219.429-219.429 219.429zM548.571 607.086c-98.743 0-179.2-69.486-197.486-162.743-1.829 10.971-3.657 21.943-3.657 34.743 0 91.429 73.143 164.571 164.571 164.571 49.371 0 93.257-21.943 124.343-56.686-27.429 12.8-56.686 20.114-87.771 20.114z" />
<glyph unicode="&#xe966;" glyph-name="s-Approval-56" d="M438.857 588.8c0-40.396-32.747-73.143-73.143-73.143s-73.143 32.747-73.143 73.143c0 40.396 32.747 73.143 73.143 73.143s73.143-32.747 73.143-73.143zM713.143 243.2l-34.743 36.571-40.229-40.229 74.971-73.143 111.543 109.714-40.229 40.229zM455.314 345.6l-89.6 115.2-128-164.571h281.6c20.114 76.8 78.629 137.143 155.429 157.257l-71.314 98.743-148.114-206.629zM877.714 351.086v438.857h-731.429v-658.286h438.857c0 0 0 0 0 0 32.914-43.886 85.943-73.143 146.286-73.143s113.371 29.257 146.286 73.143c0 0 0 0 0 0v0 0c23.771 31.086 36.571 67.657 36.571 109.714s-12.8 78.629-36.571 109.714zM548.571 241.371c0-18.286 3.657-38.4 9.143-54.857h-356.571v548.571h621.714v-334.629c-27.429 16.457-58.514 23.771-91.429 23.771-100.571 0-182.857-82.286-182.857-182.857zM731.429 113.371c-71.314 0-128 56.686-128 128s56.686 128 128 128 128-56.686 128-128-56.686-128-128-128z" />
<glyph unicode="&#xe967;" glyph-name="folder-01-20px" d="M204.8 614.4v-512l-51.2 25.6v547.84l665.6 143.36v51.2l-307.2-66.56v66.56l-256-51.2-40.96-76.8-112.64-25.6v-614.4l102.4-51.2 716.8 153.6v563.2z" />
<glyph unicode="&#xe968;" glyph-name="s-lock_16" d="M768 569.6v83.2c0 140.8-115.2 256-256 256s-256-115.2-256-256v-83.2c-38.4-19.2-64-64-64-108.8v-320c0-70.4 57.6-128 128-128h384c70.4 0 128 57.6 128 128v320c0 44.8-25.6 89.6-64 108.8zM576 140.8h-128l32 134.4c-19.2 12.8-32 32-32 57.6 0 38.4 25.6 64 64 64s64-25.6 64-64c0-25.6-12.8-44.8-32-57.6l32-134.4zM640 588.8h-256v64c0 70.4 57.6 128 128 128s128-57.6 128-128v-64z" />
<glyph unicode="&#xe969;" glyph-name="s-notlock_16" d="M761.6 576v0c76.8 128 32 288-89.6 358.4-121.6 64-281.6 25.6-352-96l-32-57.6 108.8-64 32 57.6c38.4 64 115.2 83.2 172.8 44.8 64-38.4 83.2-115.2 44.8-172.8l-25.6-57.6h-300.8c-70.4 0-128-57.6-128-128v-320c0-70.4 57.6-128 128-128h384c70.4 0 128 57.6 128 128v320c0 51.2-32 89.6-70.4 115.2zM576 140.8h-128l32 134.4c-19.2 12.8-32 32-32 57.6 0 38.4 25.6 64 64 64s64-25.6 64-64c0-25.6-12.8-44.8-32-57.6l32-134.4z" />
<glyph unicode="&#xe96a;" glyph-name="W-dashboard_24" d="M896 930.133h-768c-46.933 0-85.333-38.4-85.333-85.333v-768c0-46.933 38.4-85.333 85.333-85.333h768c46.933 0 85.333 38.4 85.333 85.333v768c0 46.933-38.4 85.333-85.333 85.333zM896 76.8h-768v768h768v-768zM384 418.133l-170.667-85.333v-170.667h170.667zM426.667 332.8h170.667v-170.667h-170.667v170.667zM640 162.133h170.667v341.333l-170.667-85.333zM256 418.133c12.8 0 21.333 4.267 29.867 12.8l140.8 140.8 128-128 200.533 200.533 55.467-55.467v170.667h-170.667l55.467-55.467-140.8-140.8-128 128-200.533-200.533c-17.067-17.067-17.067-42.667 0-59.733 8.533-8.533 17.067-12.8 29.867-12.8z" />
<glyph unicode="&#xe96b;" glyph-name="t-Album_locked-20px" d="M51.2 716.8l460.8 204.8 460.8-204.8-460.8-204.8-460.8 204.8zM460.8 102.4v51.2l-265.728 115.2-143.872-64 460.8-204.8 14.336 6.144c-38.668 15.219-65.539 52.239-65.539 95.535 0 0.253 0.001 0.507 0.003 0.76v-0.039zM873.984 358.4v17.92c0 84.831-68.769 153.6-153.6 153.6s-153.6-68.769-153.6-153.6v0-17.92h-3.584c-28.277 0-51.2-22.923-51.2-51.2v0-204.8c0-28.277 22.923-51.2 51.2-51.2v0h307.2c28.277 0 51.2 22.923 51.2 51.2v0 204.8c0 0.037 0 0.081 0 0.126 0 27.016-20.924 49.145-47.45 51.065l-0.166 0.010zM768 102.4h-102.4l22.528 112.128c-13.419 9.157-22.197 24.255-22.527 41.422l-0.001 0.050c0 28.277 22.923 51.2 51.2 51.2s51.2-22.923 51.2-51.2v0c-0.331-17.217-9.109-32.315-22.352-41.358l-0.176-0.114zM822.784 358.4h-204.8v16.896c0 56.554 45.846 102.4 102.4 102.4s102.4-45.846 102.4-102.4v0zM916.48 435.712l56.32 25.088-91.136 40.448c14.87-18.614 26.739-40.406 34.41-64.087l0.406-1.449zM460.8 307.2c0.429 33.355 16.74 62.812 41.702 81.21l0.282 0.198-307.2 137.216-144.384-65.024 409.6-182.272z" />
<glyph unicode="&#xe96c;" glyph-name="t-Album-20px" d="M51.2 716.8l460.8 204.8 460.8-204.8-460.8-204.8-460.8 204.8zM512 384l-316.928 140.8-143.872-64 460.8-204.8 460.8 204.8-143.872 64-316.928-140.8zM512 128l-316.928 140.8-143.872-64 460.8-204.8 460.8 204.8-143.872 64-316.928-140.8z" />
<glyph unicode="&#xe96d;" glyph-name="t-Folder_locked-20px" d="M873.984 358.4v17.92c0 84.831-68.769 153.6-153.6 153.6s-153.6-68.769-153.6-153.6v0-17.92h-3.584c-28.277 0-51.2-22.923-51.2-51.2v0-204.8c0-28.277 22.923-51.2 51.2-51.2v0h307.2c28.277 0 51.2 22.923 51.2 51.2v0 204.8c0 0.037 0 0.081 0 0.126 0 27.016-20.924 49.145-47.45 51.065l-0.166 0.010zM768 102.4h-102.4l22.528 112.128c-13.419 9.157-22.197 24.255-22.527 41.422l-0.001 0.050c0 28.277 22.923 51.2 51.2 51.2s51.2-22.923 51.2-51.2v0c-0.331-17.217-9.109-32.315-22.352-41.358l-0.176-0.114zM822.784 358.4h-204.8v16.896c0 56.554 45.846 102.4 102.4 102.4s102.4-45.846 102.4-102.4v0zM460.8 307.2c0 0.060 0 0.131 0 0.202 0 39.749 22.648 74.208 55.743 91.178l0.577 0.269c13.547 101.158 99.301 178.358 203.086 178.358 99.957 0 183.189-71.61 201.192-166.328l0.202-1.278v358.4l-716.8-153.6v-512l-51.2 25.6v547.84l665.6 143.36v51.2l-307.2-66.56v66.56l-256-51.2-40.96-76.8-112.64-25.6v-614.4l102.4-51.2 256 54.784z" />
<glyph unicode="&#xe96e;" glyph-name="t-Folder_open_locked-20px" d="M307.2 614.4l-102.4-512-51.2 25.6v547.84l665.6 143.36v51.2l-307.2-66.56v66.56l-256-51.2-40.96-76.8-112.64-25.6v-614.4l102.4-51.2 256 54.784v201.216c0 0.060 0 0.131 0 0.202 0 39.749 22.648 74.208 55.743 91.178l0.577 0.269c1.445 112.010 92.583 202.256 204.8 202.256 113.117 0 204.816-91.699 204.816-204.816 0-0.9-0.006-1.799-0.017-2.696l0.001 0.136c10.442-6.848 19.263-15.18 26.43-24.815l0.194-0.273 70.656 399.36zM873.984 358.4v17.92c0 84.831-68.769 153.6-153.6 153.6s-153.6-68.769-153.6-153.6v0-17.92h-3.584c-28.277 0-51.2-22.923-51.2-51.2v0-204.8c0-28.277 22.923-51.2 51.2-51.2v0h307.2c28.277 0 51.2 22.923 51.2 51.2v0 204.8c0 0.037 0 0.081 0 0.126 0 27.016-20.924 49.145-47.45 51.065l-0.166 0.010zM768 102.4h-102.4l22.528 112.128c-13.419 9.157-22.197 24.255-22.527 41.422l-0.001 0.050c0 28.277 22.923 51.2 51.2 51.2s51.2-22.923 51.2-51.2v0c-0.331-17.217-9.109-32.315-22.352-41.358l-0.176-0.114zM822.784 358.4h-204.8v16.896c0 56.554 45.846 102.4 102.4 102.4s102.4-45.846 102.4-102.4v0z" />
<glyph unicode="&#xe96f;" glyph-name="t-Folder_open-20px" d="M307.2 614.4l-102.4-512-51.2 25.6v547.84l665.6 143.36v51.2l-307.2-66.56v66.56l-256-51.2-40.96-76.8-112.64-25.6v-614.4l102.4-51.2 716.8 153.6 102.4 563.2-716.8-153.6z" />
<glyph unicode="&#xe970;" glyph-name="closeicon-16px" d="M512 531.2l-294.4 294.4c-19.2 19.2-51.2 12.8-70.4 0-19.2-19.2-12.8-51.2 0-70.4l294.4-294.4-294.4-294.4c-19.2-19.2-19.2-51.2 0-70.4s51.2-19.2 70.4 0l294.4 294.4 294.4-294.4c19.2-19.2 51.2-19.2 70.4 0s19.2 51.2 0 70.4l-294.4 294.4 294.4 294.4c19.2 19.2 19.2 51.2 0 70.4s-51.2 19.2-70.4 0l-294.4-294.4z" />
<glyph unicode="&#xe971;" glyph-name="refreshicon-16px" d="M896 492.8c19.2 0 32-12.8 32-38.4 0-153.6-89.6-294.4-224-364.8-134.4-57.6-352-89.6-524.8 115.2l12.8-102.4c0-19.2-6.4-38.4-38.4-38.4-19.2 0-32 12.8-32 32l-25.6 211.2c-6.4 32 25.6 38.4 38.4 38.4l211.2-44.8c19.2-6.4 32-25.6 25.6-38.4-6.4-19.2-25.6-32-38.4-25.6l-108.8 19.2c76.8-115.2 275.2-198.4 448-102.4 115.2 64 185.6 179.2 185.6 300.8 0 19.2 19.2 38.4 38.4 38.4zM128 428.8c-19.2 0-32 12.8-32 38.4 0 153.6 89.6 294.4 224 364.8 134.4 57.6 352 89.6 524.8-115.2l-12.8 102.4c0 19.2 6.4 38.4 38.4 38.4 19.2 0 32-12.8 32-32l25.6-211.2c6.4-32-25.6-44.8-38.4-38.4l-211.2 44.8c-19.2 6.4-32 25.6-25.6 38.4 6.4 19.2 25.6 32 38.4 25.6l108.8-19.2c-76.8 115.2-275.2 198.4-448 102.4-115.2-64-185.6-179.2-185.6-300.8 0-19.2-19.2-38.4-38.4-38.4z" />
<glyph unicode="&#xe972;" glyph-name="refresh-20px" d="M588.8 921.6c-240.64 0-435.2-194.56-435.2-435.2 0-5.12 0-5.12 0-10.24l-117.76 117.76-35.84-35.84 179.2-179.2 179.2 179.2-30.72 35.84-122.88-117.76c0 5.12 0 10.24 0 10.24 0 209.92 168.96 384 384 384s384-174.080 384-384-174.080-384-384-384c-87.040 0-163.84 30.72-225.28 76.8l-46.080-25.6c76.8-61.44 168.96-97.28 276.48-97.28 240.64 0 435.2 194.56 435.2 435.2s-199.68 430.080-440.32 430.080z" />
<glyph unicode="&#xe973;" glyph-name="home-20px" d="M1018.88 465.92l-506.88 506.88-506.88-506.88 35.84-35.84 112.64 112.64v-512c0-15.36 15.36-30.72 30.72-30.72h194.56c15.36 0 30.72 15.36 30.72 30.72v276.48c0 25.6 25.6 51.2 51.2 51.2h102.4c25.6 0 51.2-25.6 51.2-51.2v-276.48c0-15.36 15.36-30.72 30.72-30.72h194.56c15.36 0 30.72 15.36 30.72 30.72v512l112.64-112.64 35.84 35.84zM819.2 51.2h-153.6v256c0 56.32-46.080 102.4-102.4 102.4h-102.4c-56.32 0-102.4-46.080-102.4-102.4v-256h-153.6v542.72l307.2 307.2 307.2-307.2v-542.72z" />
<glyph unicode="&#xe974;" glyph-name="filter-20px" d="M916.48 921.6c30.72 0 51.2-20.48 56.32-46.080-10.24-20.48-66.56-107.52-358.4-471.040-5.12-10.24-10.24-20.48-10.24-35.84 0 0 0-5.12 0-5.12v-276.48c0-51.2-40.96-92.16-92.16-92.16s-92.16 40.96-92.16 92.16v281.6c0 0 0 5.12 0 5.12 0 10.24-5.12 25.6-10.24 35.84-286.72 358.4-348.16 445.44-358.4 465.92 5.12 25.6 25.6 46.080 56.32 46.080h808.96zM916.48 972.8h-808.96c-61.44 0-107.52-46.080-107.52-102.4 0 0 0 0 0-5.12v0 0c0-25.6 220.16-302.080 373.76-491.52 0 0 0 0 0-5.12v-281.6c0-76.8 61.44-143.36 143.36-143.36s143.36 61.44 143.36 143.36v281.6c0 0 0 0 0 5.12 143.36 189.44 363.52 465.92 363.52 491.52v0 0c0 0 0 0 0 5.12 0 56.32-46.080 102.4-107.52 102.4v0z" />
<glyph unicode="&#xe975;" glyph-name="logout-20px" d="M209.92 51.2c-56.32 0-102.4 46.080-102.4 102.4v665.6c0 56.32 46.080 102.4 102.4 102.4h302.080c0 0 0 0 0 0v51.2c0 0 0 0 0 0h-302.080c-87.040 0-153.6-71.68-153.6-153.6v-665.6c0-87.040 71.68-153.6 153.6-153.6h302.080c0 0 0 0 0 0v51.2c0 0 0 0 0 0h-302.080zM972.8 486.4l-35.84 35.84-256 250.88-35.84-35.84 230.4-225.28h-619.52v-51.2h619.52l-230.4-230.4 35.84-35.84 256 256z" />
<glyph unicode="&#xe976;" glyph-name="search-20px" d="M942.080 174.080l-225.28 225.28c30.72 56.32 51.2 117.76 51.2 189.44 0 209.92-174.080 384-384 384s-384-174.080-384-384 174.080-384 384-384c66.56 0 133.12 20.48 189.44 51.2l225.28-225.28c20.48-20.48 46.080-30.72 71.68-30.72s51.2 10.24 71.68 30.72c40.96 40.96 40.96 102.4 0 143.36zM51.2 588.8c0 184.32 148.48 332.8 332.8 332.8s332.8-148.48 332.8-332.8-148.48-332.8-332.8-332.8-332.8 148.48-332.8 332.8zM906.24 66.56c-10.24-10.24-20.48-15.36-35.84-15.36s-25.6 5.12-35.84 15.36l-220.16 215.040c25.6 20.48 51.2 46.080 71.68 71.68l215.040-215.040c10.24-10.24 15.36-20.48 15.36-35.84s0-25.6-10.24-35.84z" />
<glyph unicode="&#xe977;" glyph-name="more-20px" d="M512 972.8c56.32 0 102.4-46.080 102.4-102.4s-46.080-102.4-102.4-102.4-102.4 46.080-102.4 102.4 46.080 102.4 102.4 102.4zM512 204.8c56.32 0 102.4-46.080 102.4-102.4s-46.080-102.4-102.4-102.4-102.4 46.080-102.4 102.4 46.080 102.4 102.4 102.4zM512 563.2c56.32 0 102.4-46.080 102.4-102.4s-46.080-102.4-102.4-102.4-102.4 46.080-102.4 102.4 46.080 102.4 102.4 102.4z" />
<glyph unicode="&#xe978;" glyph-name="s-RequestAccessUser-16" d="M512 972.8c-281.6 0-512-230.4-512-512s230.4-512 512-512 512 230.4 512 512-230.4 512-512 512zM563.2 147.2l-51.2-64-51.2 64c-153.6 25.6-268.8 153.6-268.8 313.6 0 179.2 140.8 320 320 320s320-140.8 320-320c0-160-115.2-288-268.8-313.6zM505.6 345.6c-12.8 0-19.2-6.4-32-12.8-6.4-6.4-12.8-19.2-12.8-25.6 0-12.8 6.4-19.2 12.8-25.6 12.8-6.4 19.2-12.8 32-12.8s19.2 6.4 32 12.8c6.4 6.4 12.8 19.2 12.8 32s-6.4 19.2-12.8 25.6c-6.4 6.4-19.2 6.4-32 6.4zM518.4 652.8c-44.8 0-76.8-12.8-96-32-25.6-25.6-38.4-51.2-38.4-96h64c0 19.2 6.4 38.4 12.8 51.2 12.8 19.2 32 25.6 51.2 25.6s32-6.4 44.8-12.8c12.8-12.8 19.2-25.6 19.2-44.8 0-12.8-6.4-25.6-12.8-38.4l-12.8-6.4c-38.4-32-57.6-51.2-64-64-6.4-19.2-12.8-32-12.8-51.2v-6.4h64v6.4c0 12.8 0 25.6 6.4 32s12.8 19.2 19.2 25.6c25.6 19.2 44.8 38.4 51.2 44.8 19.2 12.8 25.6 38.4 25.6 64 0 32-12.8 57.6-32 76.8-25.6 19.2-51.2 25.6-89.6 25.6z" />
<glyph unicode="&#xe979;" glyph-name="LandingPageTempl08-32" d="M0 908.8h1024v-256h-1024v256zM160 588.8h128v-128h-128v128zM160 396.8h128v-128h-128v128zM352 588.8h128v-128h-128v128zM352 396.8h128v-128h-128v128zM544 588.8h320v-512h-320v512zM160 204.8h128v-128h-128v128zM352 204.8h128v-128h-128v128z" />
<glyph unicode="&#xe97a;" glyph-name="LandingPageTempl07-32" d="M0 908.8h1024v-256h-1024v256zM544 588.8h128v-128h-128v128zM544 396.8h128v-128h-128v128zM736 588.8h128v-128h-128v128zM736 396.8h128v-128h-128v128zM160 588.8h320v-320h-320v320zM160 204.8h128v-128h-128v128zM352 204.8h128v-128h-128v128zM544 204.8h128v-128h-128v128zM736 204.8h128v-128h-128v128z" />
<glyph unicode="&#xe97b;" glyph-name="LandingPageTempl06-32" d="M0 908.8h1024v-256h-1024v256zM160 588.8h128v-128h-128v128zM160 396.8h128v-128h-128v128zM352 588.8h128v-128h-128v128zM352 396.8h128v-128h-128v128zM544 588.8h320v-320h-320v320zM160 204.8h128v-128h-128v128zM352 204.8h128v-128h-128v128zM544 204.8h128v-128h-128v128zM736 204.8h128v-128h-128v128z" />
<glyph unicode="&#xe97c;" glyph-name="LandingPageTempl05-32" d="M0 908.8h1024v-256h-1024v256zM160 588.8h192v-160h-192v160zM416 588.8h192v-160h-192v160zM672 588.8h192v-160h-192v160zM160 364.8h128v-128h-128v128zM160 172.8h128v-128h-128v128zM352 364.8h128v-128h-128v128zM352 172.8h128v-128h-128v128zM544 364.8h128v-128h-128v128zM544 172.8h128v-128h-128v128zM736 364.8h128v-128h-128v128zM736 172.8h128v-128h-128v128z" />
<glyph unicode="&#xe97d;" glyph-name="LandingPageTempl04-32" d="M0 908.8h1024v-256h-1024v256zM160 588.8h320v-320h-320v320zM544 588.8h320v-320h-320v320zM160 204.8h128v-128h-128v128zM352 204.8h128v-128h-128v128zM544 204.8h128v-128h-128v128zM736 204.8h128v-128h-128v128z" />
<glyph unicode="&#xe97e;" glyph-name="LandingPageTempl03-32" d="M0 908.8h1024v-256h-1024v256zM256 588.8h128v-128h-128v128zM256 396.8h128v-128h-128v128zM448 588.8h128v-128h-128v128zM448 396.8h128v-128h-128v128zM640 588.8h128v-128h-128v128zM640 396.8h128v-128h-128v128zM256 204.8h128v-128h-128v128zM448 204.8h128v-128h-128v128zM640 204.8h128v-128h-128v128z" />
<glyph unicode="&#xe97f;" glyph-name="LandingPageTempl02-32" d="M0 908.8h1024v-256h-1024v256zM160 588.8h128v-128h-128v128zM160 396.8h128v-128h-128v128zM352 588.8h128v-128h-128v128zM352 396.8h128v-128h-128v128zM544 588.8h128v-128h-128v128zM544 396.8h128v-128h-128v128zM736 588.8h128v-128h-128v128zM736 396.8h128v-128h-128v128zM160 204.8h128v-128h-128v128zM352 204.8h128v-128h-128v128zM544 204.8h128v-128h-128v128zM736 204.8h128v-128h-128v128z" />
<glyph unicode="&#xe980;" glyph-name="LandingPageTempl01-32" d="M0 908.8h1024v-256h-1024v256zM64 588.8h128v-128h-128v128zM64 396.8h128v-128h-128v128zM256 588.8h128v-128h-128v128zM256 396.8h128v-128h-128v128zM448 588.8h128v-128h-128v128zM448 396.8h128v-128h-128v128zM640 588.8h128v-128h-128v128zM640 396.8h128v-128h-128v128zM832 588.8h128v-128h-128v128zM832 396.8h128v-128h-128v128zM64 204.8h128v-128h-128v128zM256 204.8h128v-128h-128v128zM448 204.8h128v-128h-128v128zM640 204.8h128v-128h-128v128zM832 204.8h128v-128h-128v128z" />
<glyph unicode="&#xe981;" glyph-name="importuser-16" d="M832 684.8c0-123.712-100.288-224-224-224s-224 100.288-224 224c0 123.712 100.288 224 224 224s224-100.288 224-224zM320 684.8c0 51.2 12.8 96 32 134.4-25.6 19.2-57.6 25.6-96 25.6-108.8 0-192-83.2-192-192s83.2-192 192-192c44.8 0 89.6 19.2 121.6 44.8-32 51.2-57.6 115.2-57.6 179.2zM256 204.8c0 76.8 32 147.2 89.6 192-12.8 0-25.6 0-38.4 0h-153.6c-83.2 0-153.6-64-153.6-153.6v-102.4h256v64zM800 332.8c89.6 0 160-70.4 160-160s-70.4-160-160-160-160 70.4-160 160 70.4 160 160 160zM800 396.8c-121.6 0-224-102.4-224-224s102.4-224 224-224 224 102.4 224 224-102.4 224-224 224v0zM704 204.8h192v-64h-192v64zM768 268.8h64v-192h-64v192zM512 172.8c0 89.6 44.8 172.8 108.8 224h-108.8c-108.8 0-192-89.6-192-192v-128h211.2c-12.8 32-19.2 64-19.2 96z" />
<glyph unicode="&#xe982;" glyph-name="db-32" d="M512-51.2c281.6 0 512 230.4 512 512s-230.4 512-512 512-512-230.4-512-512 230.4-512 512-512zM624 761.6l224-118.4-102.4-86.4-220.8 118.4 99.2 86.4zM739.2 544l105.6-92.8-220.8-112-102.4 89.6 217.6 115.2zM294.4 547.2l217.6-115.2-102.4-92.8-220.8 115.2 105.6 92.8zM409.6 761.6l102.4-89.6-217.6-115.2-102.4 86.4 217.6 118.4zM300.8 371.2l115.2-64 89.6 80v-214.4l-204.8 108.8v89.6zM528 387.2l92.8-80 115.2 57.6v-73.6l-204.8-115.2v211.2z" />
<glyph unicode="&#xe983;" glyph-name="box-32" d="M540.8 540.8c-48 0-83.2-38.4-83.2-83.2 0-48 38.4-83.2 83.2-83.2 48 0 83.2 38.4 83.2 83.2 3.2 44.8-35.2 83.2-83.2 83.2zM294.4 537.6c-48 0-83.2-38.4-83.2-83.2 0-48 38.4-83.2 83.2-83.2 48 0 83.2 38.4 83.2 83.2s-38.4 83.2-83.2 83.2zM512 972.8c-281.6 0-512-230.4-512-512s230.4-512 512-512 512 230.4 512 512-230.4 512-512 512zM544 313.6c-54.4 0-99.2 28.8-124.8 73.6-22.4-44.8-70.4-73.6-124.8-76.8-76.8 0-140.8 60.8-140.8 137.6v0 233.6c0 16 12.8 28.8 28.8 28.8s28.8-12.8 28.8-28.8v-118.4c22.4 19.2 51.2 28.8 83.2 28.8 54.4 0 99.2-28.8 124.8-73.6 22.4 44.8 70.4 73.6 124.8 76.8 76.8 0 140.8-60.8 140.8-140.8-3.2-76.8-64-137.6-140.8-140.8zM857.6 326.4l-67.2 83.2-67.2-83.2c-9.6-12.8-28.8-16-41.6-6.4s-16 25.6-6.4 38.4l76.8 96-80 96c-9.6 12.8-6.4 28.8 6.4 38.4s32 6.4 41.6-6.4v0l67.2-83.2 67.2 83.2c9.6 12.8 28.8 16 41.6 6.4s16-25.6 6.4-38.4v0l-76.8-96 80-96c9.6-12.8 6.4-28.8-6.4-38.4-12.8-6.4-32-3.2-41.6 6.4z" />
<glyph unicode="&#xe984;" glyph-name="twitter-32" d="M512-51.2c281.6 0 512 230.4 512 512s-230.4 512-512 512-512-230.4-512-512 230.4-512 512-512zM361.6 592c99.2-51.2 182.4-48 182.4-48s-32 108.8 67.2 160 163.2-32 163.2-32 16 3.2 28.8 9.6c12.8 3.2 32 12.8 32 12.8l-28.8-54.4 44.8 6.4c0 0-6.4-9.6-25.6-25.6s-25.6-25.6-25.6-25.6 6.4-131.2-64-233.6-160-163.2-291.2-176c-131.2-12.8-214.4 41.6-214.4 41.6s57.6 3.2 92.8 16c35.2 12.8 89.6 51.2 89.6 51.2s-73.6 22.4-102.4 48c-25.6 25.6-32 41.6-32 41.6h73.6c0 0-76.8 41.6-99.2 73.6s-25.6 64-25.6 64l57.6-22.4c0 0-48 64-54.4 115.2-6.4 44.8 9.6 73.6 9.6 73.6s22.4-44.8 121.6-96z" />
<glyph unicode="&#xe985;" glyph-name="youtube-32" d="M425.6 374.4l172.8 86.4-172.8 86.4zM512 976c-281.6 0-512-230.4-512-512s230.4-512 512-512 512 230.4 512 512-230.4 512-512 512zM841.6 428.8c0-51.2-6.4-99.2-6.4-99.2s-6.4-44.8-25.6-67.2c-25.6-25.6-51.2-25.6-67.2-28.8-92.8-6.4-230.4-3.2-230.4-3.2s-169.6 0-224 3.2c-16 3.2-48 3.2-73.6 28.8-19.2 19.2-25.6 67.2-25.6 67.2s-6.4 44.8-6.4 99.2v64c0 51.2 6.4 96 6.4 96s6.4 44.8 25.6 67.2c25.6 25.6 54.4 25.6 67.2 28.8 92.8 6.4 230.4 6.4 230.4 6.4s137.6 0 230.4-3.2c12.8-3.2 41.6-3.2 67.2-28.8 19.2-19.2 25.6-67.2 25.6-67.2s6.4-44.8 6.4-99.2v-64z" />
<glyph unicode="&#xe986;" glyph-name="vimeo-32" d="M512 972.8c-281.6 0-512-230.4-512-512s230.4-512 512-512 512 230.4 512 512-230.4 512-512 512zM793.6 598.4c-6.4-35.2-51.2-163.2-134.4-272-35.2-48-76.8-92.8-131.2-124.8-19.2-12.8-57.6-25.6-83.2-16-51.2 22.4-70.4 108.8-83.2 169.6-9.6 35.2-16 67.2-28.8 99.2-6.4 22.4-12.8 44.8-25.6 67.2-19.2 35.2-51.2 0-80 6.4-12.8 3.2-6.4 16-25.6 25.6v3.2c51.2 35.2 83.2 80 137.6 108.8 16 9.6 44.8 19.2 67.2 12.8 19.2-6.4 38.4-35.2 44.8-57.6 9.6-28.8 12.8-60.8 19.2-86.4 6.4-48 6.4-118.4 38.4-153.6 38.4-41.6 67.2 16 83.2 44.8 12.8 25.6 25.6 51.2 28.8 73.6 6.4 57.6-22.4 64-73.6 60.8 28.8 89.6 115.2 128 140.8 134.4 32 3.2 76.8 3.2 99.2-22.4 9.6-22.4 9.6-48 6.4-73.6z" />
<glyph unicode="&#xe987;" glyph-name="slack-32" d="M512 972.8c-281.6 0-512-230.4-512-512s230.4-512 512-512 512 230.4 512 512-230.4 512-512 512zM803.2 377.6l-67.2-22.4 22.4-67.2c9.6-28.8-6.4-57.6-32-67.2-6.4-3.2-12.8-3.2-19.2-3.2-22.4 0-41.6 16-48 35.2l-22.4 67.2-134.4-44.8 22.4-67.2c9.6-28.8-6.4-57.6-32-67.2-6.4-3.2-12.8-3.2-19.2-3.2-22.4 0-41.6 16-48 35.2l-22.4 67.2-67.2-22.4c-6.4-3.2-12.8-3.2-19.2-3.2-22.4 0-41.6 16-48 35.2-9.6 28.8 6.4 57.6 32 67.2l67.2 22.4-44.8 131.2-67.2-22.4c-6.4-3.2-12.8-3.2-19.2-3.2-22.4 0-41.6 16-48 35.2-9.6 28.8 6.4 57.6 32 67.2l67.2 22.4-22.4 67.2c-9.6 28.8 6.4 57.6 32 67.2 28.8 9.6 57.6-6.4 67.2-32l22.4-67.2 134.4 44.8-22.4 67.2c-9.6 28.8 6.4 57.6 32 67.2 28.8 9.6 57.6-6.4 67.2-32l28.8-67.2 67.2 22.4c28.8 9.6 57.6-6.4 67.2-32 9.6-28.8-6.4-57.6-32-67.2l-67.2-22.4 44.8-131.2 67.2 22.4c28.8 9.6 57.6-6.4 67.2-32 3.2-28.8-9.6-60.8-38.4-67.2zM423.524 504.519l136.541 45.734 43.702-130.472-136.541-45.734-43.702 130.472z" />
<glyph unicode="&#xe988;" glyph-name="mail-32" d="M512-51.2c281.6 0 512 230.4 512 512s-230.4 512-512 512-512-230.4-512-512 230.4-512 512-512zM204.8 604.8l160-147.2-160-144v291.2zM819.2 608v-291.2l-163.2 144 163.2 147.2zM627.2 435.2l172.8-160h-576l169.6 160 118.4-108.8 115.2 108.8zM224 646.4h576l-288-268.8-288 268.8z" />
<glyph unicode="&#xe989;" glyph-name="googledrive-32" d="M512 972.8c-281.6 0-512-230.4-512-512s230.4-512 512-512 512 230.4 512 512-230.4 512-512 512zM160 371.2l230.4 377.6 121.6-198.4-230.4-377.6-121.6 198.4zM720 140.8h-432l112 192h432l-112-192zM636.8 364.8l-220.8 384h227.2l220.8-384h-227.2z" />
<glyph unicode="&#xe98a;" glyph-name="googleanalytics-32" d="M512 972.8c-281.6 0-512-230.4-512-512s230.4-512 512-512 512 230.4 512 512-230.4 512-512 512zM736 278.4c0-22.4-19.2-41.6-41.6-41.6h-428.8c-22.4 0-41.6 19.2-41.6 41.6v92.8c0 22.4 19.2 41.6 41.6 41.6h118.4v134.4c0 22.4 19.2 41.6 38.4 41.6h134.4v118.4c0 22.4 19.2 41.6 41.6 41.6h92.8c25.6 0 44.8-19.2 44.8-41.6v-428.8z" />
<glyph unicode="&#xe98b;" glyph-name="facebook-32" d="M512 972.8c-281.6 0-512-230.4-512-512s230.4-512 512-512c281.6 0 512 230.4 512 512s-230.4 512-512 512v0zM649.6 464h-89.6v-320h-131.2v320h-67.2v112h67.2v67.2c0 89.6 38.4 144 144 144h89.6v-112h-54.4c-41.6 0-41.6-16-41.6-41.6v-54.4h99.2l-16-115.2z" />
<glyph unicode="&#xe98c;" glyph-name="pinterest-32" d="M512 972.8c-281.6 0-512-230.4-512-512s230.4-512 512-512 512 230.4 512 512-230.4 512-512 512zM832 460.8v0c0-12.8 0-22.4 0-35.2 0-9.6-3.2-22.4-6.4-32-6.4-32-16-60.8-32-89.6-19.2-32-41.6-60.8-70.4-86.4-54.4-48-128-76.8-211.2-76.8-35.2 0-67.2 6.4-99.2 16h3.2c0 0 0 0 0 0s0 0 0 0c6.4 9.6 12.8 22.4 19.2 35.2 6.4 16 12.8 28.8 19.2 44.8 0 0 0 3.2 0 3.2 3.2 19.2 19.2 80 19.2 80s0 0 0 0v0c9.6-12.8 19.2-19.2 32-25.6s25.6-9.6 41.6-9.6h3.2c96 0 166.4 89.6 166.4 198.4 0 76.8-48 140.8-115.2 169.6-22.4 9.6-48 16-73.6 16-3.2 0-6.4 0-9.6 0-137.6 0-211.2-92.8-211.2-192 0-51.2 22.4-96 64-124.8 6.4-3.2 9.6 0 9.6 3.2s6.4 25.6 9.6 35.2c3.2 3.2 3.2 6.4 0 9.6-16 22.4-22.4 48-22.4 73.6v0c0 38.4 16 73.6 41.6 99.2 28.8 25.6 64 38.4 102.4 38.4 19.2 0 35.2-3.2 51.2-9.6s32-16 44.8-28.8c25.6-25.6 38.4-57.6 38.4-96 0-86.4-44.8-147.2-99.2-147.2-6.4 0-16 0-22.4 3.2s-12.8 6.4-19.2 12.8c-9.6 12.8-12.8 28.8-6.4 41.6 9.6 28.8 19.2 67.2 25.6 102.4 0 6.4 0 6.4 0 6.4 0 9.6-3.2 19.2-12.8 28.8-3.2 3.2-9.6 6.4-12.8 9.6s-9.6 3.2-16 3.2v0c-35.2 0-60.8-32-60.8-76.8v0c0-16 3.2-32 9.6-48 6.4-12.8-32-131.2-38.4-160-3.2-28.8-3.2-60.8 0-89.6v0c-118.4 48-201.6 163.2-201.6 297.6 0 131.2 80 243.2 192 294.4 0 0 0 0 3.2 0h3.2c0 0 3.2 0 3.2 0 16 6.4 35.2 9.6 51.2 12.8 0 0 3.2 0 3.2 0 19.2 9.6 41.6 12.8 64 12.8v0 0 0c32 0 67.2-6.4 96-16 0 0 0 0 0 0 19.2-6.4 38.4-12.8 54.4-22.4 0 0 0 0 0 0s0 0 0 0v0c0 0 0 0 0 0v0 0c0 0 0 0 0 0v0c0 0 0 0 0 0 25.6-16 51.2-32 73.6-54.4 60.8-60.8 96-140.8 96-227.2v0zM665.6 742.4v0 0 0z" />
<glyph unicode="&#xe98d;" glyph-name="sort-16" d="M595.2 844.8h172.8v-128h-172.8v128zM428.8 524.8h339.2v-128h-339.2v128zM256 204.8h512v-128h-512v128z" />
<glyph unicode="&#xe98e;" glyph-name="undo-16" d="M544 652.8h-179.2l224 166.4-38.4 51.2-332.8-249.6 332.8-249.6 38.4 51.2-224 166.4h179.2c121.6 0 224-102.4 224-224s-102.4-224-224-224h-288v-64h288c160 0 288 128 288 288s-128 288-288 288z" />
<glyph unicode="&#xe98f;" glyph-name="s-Email-56" d="M109.714 753.371v-585.143h804.571v585.143h-804.571zM782.629 698.514l-270.629-270.629-270.629 270.629h541.257zM164.571 698.514l182.857-182.857-182.857-266.971v449.829zM213.943 223.086l173.714 252.343 124.343-124.343 124.343 124.343 173.714-252.343h-596.114zM676.571 515.657l182.857 182.857v-449.829l-182.857 266.971z" />
<glyph unicode="&#xe990;" glyph-name="hamburger-20" d="M51.2 870.4h921.6v-153.6h-921.6v153.6zM51.2 563.2h921.6v-153.6h-921.6v153.6zM51.2 256h921.6v-153.6h-921.6v153.6z" />
<glyph unicode="&#xe991;" glyph-name="icn_dagger_solid-20" d="M512 921.6c-168.96 0-307.2-138.24-307.2-307.2 0-307.2 307.2-614.4 307.2-614.4s307.2 307.2 307.2 614.4c0 168.96-138.24 307.2-307.2 307.2zM512 460.8c-87.040 0-153.6 66.56-153.6 153.6s66.56 153.6 153.6 153.6 153.6-66.56 153.6-153.6-66.56-153.6-153.6-153.6z" />
<glyph unicode="&#xe992;" glyph-name="icn_dagger-20" d="M512 870.4c143.36 0 256-112.64 256-256 0-220.16-179.2-450.56-256-537.6-76.8 87.040-256 317.44-256 537.6 0 143.36 112.64 256 256 256zM512 460.8c87.040 0 153.6 66.56 153.6 153.6s-66.56 153.6-153.6 153.6-153.6-66.56-153.6-153.6 66.56-153.6 153.6-153.6zM512 921.6c-168.96 0-307.2-138.24-307.2-307.2 0-307.2 307.2-614.4 307.2-614.4s307.2 307.2 307.2 614.4c0 168.96-138.24 307.2-307.2 307.2v0zM512 512c-56.32 0-102.4 46.080-102.4 102.4s46.080 102.4 102.4 102.4 102.4-46.080 102.4-102.4-46.080-102.4-102.4-102.4v0z" />
<glyph unicode="&#xe993;" glyph-name="portal-16" d="M64 396.8h384v-384h-384v384zM64 908.8h384v-384h-384v384zM576 396.8h384v-384h-384v384zM576 908.8h384v-384h-384v384z" />
<glyph unicode="&#xe994;" glyph-name="s-canto-eyeno-16" d="M608 460.8c0 0 0 6.4 0 0l-102.4-96c0 0 6.4 0 6.4 0 51.2 0 96 44.8 96 96zM384 243.2c38.4-25.6 83.2-38.4 128-38.4 140.8 0 256 115.2 256 256 0 44.8-12.8 89.6-38.4 128l-44.8-44.8c12.8-25.6 19.2-51.2 19.2-83.2 0-108.8-83.2-192-192-192-32 0-57.6 6.4-83.2 19.2l-44.8-44.8zM377.6 326.4l499.2 499.2-44.8 44.8-89.6-89.6c-70.4 38.4-147.2 64-230.4 64-320 0-512-384-512-384s64-128 185.6-236.8l-76.8-76.8 44.8-44.8 224 224zM518.4 556.8c0 0-6.4 0 0 0-57.6 0-102.4-44.8-102.4-96 0 0 0-6.4 0-6.4l-76.8-76.8c-12.8 25.6-19.2 51.2-19.2 83.2 0 108.8 83.2 192 192 192 32 0 57.6-6.4 83.2-19.2l-76.8-76.8zM230.4 268.8c-76.8 70.4-128 153.6-153.6 192 44.8 83.2 204.8 320 435.2 320 64 0 128-19.2 179.2-51.2l-51.2-51.2c-38.4 25.6-83.2 38.4-128 38.4-140.8 0-256-115.2-256-256 0-44.8 12.8-89.6 38.4-128l-64-64zM838.4 697.6l-44.8-44.8c76.8-70.4 128-153.6 153.6-192-51.2-83.2-211.2-320-441.6-320-64 0-128 19.2-179.2 51.2l-44.8-44.8c70.4-44.8 147.2-70.4 230.4-70.4 320 0 512 384 512 384s-64 128-185.6 236.8z" />
<glyph unicode="&#xe995;" glyph-name="pencil-16" d="M729.6 780.8c57.6 0 102.4-44.8 102.4-102.4 0-25.6-6.4-44.8-19.2-57.6l-38.4-38.4-140.8 140.8 38.4 38.4c19.2 12.8 38.4 19.2 57.6 19.2zM230.4 320l-38.4-179.2 179.2 38.4 371.2 371.2-140.8 140.8-371.2-371.2zM640 550.4l-281.6-275.2-32 32 275.2 281.6 38.4-38.4z" />
<glyph unicode="&#xe996;" glyph-name="italics-16" d="M454.4 76.8h-128l185.6 576h128zM676.201 905.448c26.273-17.935 24.955-65.606-2.945-106.476s-71.815-59.461-98.088-41.526c-26.273 17.935-24.955 65.606 2.945 106.476s71.815 59.461 98.088 41.526z" />
<glyph unicode="&#xe997;" glyph-name="align_center-16" d="M0 908.8h1024v-64h-1024v64zM0 396.8h1024v-64h-1024v64zM128 652.8h768v-64h-768v64zM192 140.8h640v-64h-640v64z" />
<glyph unicode="&#xe998;" glyph-name="align_left-16" d="M0 908.8h1024v-64h-1024v64zM0 396.8h1024v-64h-1024v64zM0 652.8h768v-64h-768v64zM0 140.8h640v-64h-640v64z" />
<glyph unicode="&#xe999;" glyph-name="align_right-16" d="M0 908.8h1024v-64h-1024v64zM0 396.8h1024v-64h-1024v64zM256 652.8h768v-64h-768v64zM384 140.8h640v-64h-640v64z" />
<glyph unicode="&#xe99a;" glyph-name="bold-16" d="M236.8 908.8h243.2c160 0 268.8-57.6 268.8-204.8 0-76.8-38.4-153.6-102.4-179.2v-6.4c83.2-12.8 147.2-83.2 147.2-192 0-166.4-121.6-243.2-288-243.2h-268.8v825.6zM454.4 563.2c102.4 0 153.6 38.4 153.6 102.4-6.4 76.8-57.6 102.4-153.6 102.4h-96v-204.8h96zM480 217.6c115.2 0 185.6 32 185.6 108.8 0 70.4-64 96-185.6 96h-121.6v-204.8h121.6z" />
<glyph unicode="&#xe99b;" glyph-name="calendar-16" d="M896 844.8v128h-192v-128h-384v128h-192v-128h-128v-896h1024v896h-128zM256 140.8h-128v192h128v-192zM256 460.8h-128v192h128v-192zM576 140.8h-128v192h128v-192zM576 460.8h-128v192h128v-192zM896 140.8h-128v192h128v-192zM896 460.8h-128v192h128v-192z" />
<glyph unicode="&#xe99c;" glyph-name="filter-16" d="M64 908.8h896l-256-448v-448h-384v448l-256 448z" />
<glyph unicode="&#xe99d;" glyph-name="help-16" d="M640 723.2c25.6-38.4 38.4-83.2 32-121.6-12.8-64-51.2-102.4-83.2-128-25.6-38.4-51.2-64-51.2-115.2h-64c0 83.2 38.4 121.6 76.8 153.6 25.6 25.6 51.2 51.2 64 96 0 6.4 0 38.4-19.2 64-19.2 32-44.8 38.4-76.8 38.4-108.8 0-115.2-89.6-115.2-102.4h-57.6c0 57.6 38.4 166.4 172.8 166.4 51.2 6.4 96-12.8 121.6-51.2zM512 908.8c249.6 0 448-198.4 448-448s-198.4-448-448-448-448 198.4-448 448 198.4 448 448 448zM512 972.8c-281.6 0-512-230.4-512-512s230.4-512 512-512 512 230.4 512 512-230.4 512-512 512v0zM576 204.8c0-35.346-28.654-64-64-64s-64 28.654-64 64c0 35.346 28.654 64 64 64s64-28.654 64-64z" />
<glyph unicode="&#xe99e;" glyph-name="arrow_circle_down-62" d="M512 972.8c-282.426 0-512-229.574-512-512s229.574-512 512-512 512 229.574 512 512-229.574 512-512 512zM512-18.168c-264.258 0-478.968 214.71-478.968 478.968s214.71 478.968 478.968 478.968 478.968-214.71 478.968-478.968-214.71-478.968-478.968-478.968zM512 343.535l-280.774 280.774-23.123-23.123 303.897-303.897 303.897 303.897-23.123 23.123z" />
<glyph unicode="&#xe99f;" glyph-name="layout01-32" d="M64 524.8h128v-128h-128v128zM256 524.8h128v-128h-128v128zM448 524.8h128v-128h-128v128zM640 524.8h128v-128h-128v128zM832 524.8h128v-128h-128v128z" />
<glyph unicode="&#xe9a0;" glyph-name="layout02-32" d="M64 524.8h320v-128h-320v128zM448 524.8h128v-128h-128v128zM640 524.8h128v-128h-128v128zM832 524.8h128v-128h-128v128z" />
<glyph unicode="&#xe9a1;" glyph-name="layout03-32" d="M640 524.8h320v-128h-320v128zM64 524.8h128v-128h-128v128zM256 524.8h128v-128h-128v128zM448 524.8h128v-128h-128v128z" />
<glyph unicode="&#xe9a2;" glyph-name="layout04-32" d="M32 556.8h192v-192h-192v192zM288 556.8h192v-192h-192v192zM544 556.8h192v-192h-192v192zM800 556.8h192v-192h-192v192z" />
<glyph unicode="&#xe9a3;" glyph-name="layout05-32" d="M32 556.8h448v-192h-448v192zM544 556.8h192v-192h-192v192zM800 556.8h192v-192h-192v192z" />
<glyph unicode="&#xe9a4;" glyph-name="layout06-32" d="M544 556.8h448v-192h-448v192zM32 556.8h192v-192h-192v192zM288 556.8h192v-192h-192v192z" />
<glyph unicode="&#xe9a5;" glyph-name="layout07-32" d="M32 556.8h448v-192h-448v192zM544 556.8h416v-192h-416v192z" />
<glyph unicode="&#xe9a6;" glyph-name="layout08-32" d="M64 588.8h256v-256h-256v256zM384 588.8h256v-256h-256v256zM704 588.8h256v-256h-256v256z" />
<glyph unicode="&#xe9a7;" glyph-name="layout09-32" d="M64 588.8h576v-256h-576v256zM704 588.8h256v-256h-256v256z" />
<glyph unicode="&#xe9a8;" glyph-name="layout10-32" d="M384 588.8h576v-256h-576v256zM64 588.8h256v-256h-256v256z" />
<glyph unicode="&#xe9a9;" glyph-name="layout11-32" d="M32 684.8h448v-448h-448v448zM544 684.8h448v-448h-448v448z" />
<glyph unicode="&#xe9aa;" glyph-name="layout12-32" d="M32 684.8h448v-448h-448v448zM544 684.8h192v-192h-192v192zM544 428.8h192v-192h-192v192zM800 684.8h192v-192h-192v192zM800 428.8h192v-192h-192v192z" />
<glyph unicode="&#xe9ab;" glyph-name="layout13-32" d="M544 684.8h448v-448h-448v448zM32 684.8h192v-192h-192v192zM32 428.8h192v-192h-192v192zM288 684.8h192v-192h-192v192zM288 428.8h192v-192h-192v192z" />
<glyph unicode="&#xe9ac;" glyph-name="layout14-32" d="M544 812.8h448v-704h-448v704zM32 812.8h192v-192h-192v192zM32 556.8h192v-192h-192v192zM32 300.8h192v-192h-192v192zM288 812.8h192v-192h-192v192zM288 556.8h192v-192h-192v192zM288 300.8h192v-192h-192v192z" />
<glyph unicode="&#xe9ad;" glyph-name="TextColor-16" d="M454.4 908.8h128l300.8-832h-121.6l-89.6 249.6h-326.4l-89.6-249.6h-115.2l313.6 832zM640 422.4l-128 364.8-134.4-364.8h262.4z" />
<glyph unicode="&#xe9ae;" glyph-name="Clone-16" d="M640 972.8h-384v-128h-128v-832h576v128h128v640l-192 192zM640 883.2l102.4-102.4h-102.4v102.4zM640 76.8h-448v704h64v-646.4h384v-57.6zM704 204.8h-384v704h256v-192h192v-512h-64zM576 652.8h-64v-128h-128v-64h128v-128h64v128h128v64h-128z" />
<glyph unicode="&#xe9af;" glyph-name="save-16" d="M768 908.8h-512c-108.8 0-192-83.2-192-192v-512c0-108.8 83.2-192 192-192h512c108.8 0 192 83.2 192 192v512c0 108.8-83.2 192-192 192zM704 844.8v-320h-384v320h384zM896 204.8c0-70.4-57.6-128-128-128h-512c-70.4 0-128 57.6-128 128v512c0 70.4 57.6 128 128 128v-384h512v384c70.4 0 128-57.6 128-128v-512zM576 780.8h64v-192h-64v192z" />
<glyph unicode="&#xe9b0;" glyph-name="Portal_Common-20" d="M102.4 870.4h358.4v-358.4h-358.4v358.4zM563.2 870.4h358.4v-358.4h-358.4v358.4zM102.4 409.6h358.4v-358.4h-358.4v358.4zM563.2 409.6h358.4v-358.4h-358.4v358.4z" />
<glyph unicode="&#xe9b1;" glyph-name="Portal_Public-20" d="M819.2 921.6h-614.4c-87.040 0-153.6-66.56-153.6-153.6v-614.4c0-81.92 66.56-153.6 153.6-153.6h614.4c87.040 0 153.6 71.68 153.6 153.6v614.4c0 87.040-66.56 153.6-153.6 153.6zM409.6 153.6h-204.8v204.8h204.8v-204.8zM409.6 563.2h-204.8v204.8h204.8v-204.8zM819.2 153.6h-204.8v204.8h204.8v-204.8zM819.2 563.2h-204.8v204.8h204.8v-204.8z" />
<glyph unicode="&#xe9b2;" glyph-name="Portal_Private-20" d="M926.72 307.2v20.48c0 87.040-66.56 153.6-153.6 153.6s-153.6-66.56-153.6-153.6v-20.48h-5.12c-30.72 0-51.2-20.48-51.2-51.2v-204.8c0-30.72 20.48-51.2 51.2-51.2h307.2c30.72 0 51.2 20.48 51.2 51.2v204.8c0 25.6-20.48 51.2-46.080 51.2zM819.2 51.2h-102.4l20.48 112.64c-10.24 10.24-20.48 25.6-20.48 40.96 0 30.72 20.48 51.2 51.2 51.2s51.2-20.48 51.2-51.2c0-15.36-10.24-30.72-20.48-40.96l20.48-112.64zM875.52 307.2h-204.8v15.36c0 56.32 46.080 102.4 102.4 102.4s102.4-46.080 102.4-102.4v-15.36zM819.2 921.6h-614.4c-87.040 0-153.6-66.56-153.6-153.6v-614.4c0-81.92 66.56-153.6 153.6-153.6h322.56c-10.24 15.36-15.36 30.72-15.36 51.2v204.8c0 40.96 20.48 76.8 56.32 92.16 10.24 102.4 97.28 184.32 204.8 184.32 102.4 0 184.32-76.8 199.68-174.080v409.6c0 87.040-66.56 153.6-153.6 153.6zM409.6 153.6h-204.8v204.8h204.8v-204.8zM409.6 563.2h-204.8v204.8h204.8v-204.8zM819.2 563.2h-204.8v204.8h204.8v-204.8z" />
<glyph unicode="&#xe9b3;" glyph-name="Keyword-16" d="M512 972.8c-281.6 0-512-230.4-512-512s230.4-512 512-512 512 230.4 512 512-230.4 512-512 512zM512 12.8c-249.6 0-448 198.4-448 448s198.4 448 448 448c249.6 0 448-198.4 448-448s-198.4-448-448-448zM780.8 729.6c-76.8 76.8-198.4 76.8-268.8 0-57.6-57.6-70.4-140.8-38.4-217.6l-275.2-275.2 44.8-44.8 44.8 44.8 89.6-89.6 44.8 44.8-89.6 89.6 44.8 44.8 89.6-89.6 44.8 44.8-89.6 89.6 89.6 89.6c76.8-76.8 198.4-76.8 268.8 0 76.8 76.8 76.8 198.4 0 268.8zM736 505.6c-51.2-51.2-128-51.2-179.2 0s-51.2 128 0 179.2 128 51.2 179.2 0 51.2-128 0-179.2z" />
<glyph unicode="&#xe9b4;" glyph-name="single_workspace-20" d="M348.16 768h332.8c20.48 0 35.84 15.36 35.84 40.96v71.68c0 25.6-15.36 40.96-40.96 40.96h-10.24c0 30.72-20.48 51.2-51.2 51.2h-204.8c-30.72 0-51.2-20.48-51.2-51.2h-10.24c-25.6 0-40.96-15.36-40.96-40.96v-76.8c0-20.48 15.36-35.84 40.96-35.84zM819.2 819.2h-51.2v-51.2c0-30.72-20.48-51.2-51.2-51.2h-409.6c-30.72 0-51.2 20.48-51.2 51.2v51.2h-51.2c-30.72 0-51.2-20.48-51.2-51.2v-768c0-30.72 20.48-51.2 51.2-51.2h614.4c30.72 0 51.2 20.48 51.2 51.2v768c0 30.72-20.48 51.2-51.2 51.2zM409.6 153.6h-102.4v102.4h102.4v-102.4zM409.6 307.2h-102.4v102.4h102.4v-102.4zM409.6 460.8h-102.4v102.4h102.4v-102.4zM563.2 153.6h-102.4v102.4h102.4v-102.4zM563.2 307.2h-102.4v102.4h102.4v-102.4zM563.2 460.8h-102.4v102.4h102.4v-102.4zM716.8 153.6h-102.4v102.4h102.4v-102.4zM716.8 307.2h-102.4v102.4h102.4v-102.4zM716.8 460.8h-102.4v102.4h102.4v-102.4z" />
</font>
</defs>
</svg>
