<?xml version="1.0" standalone="no"?>
<!DOCTYPE svg PUBLIC "-//W3C//DTD SVG 1.1//EN" "http://www.w3.org/Graphics/SVG/1.1/DTD/svg11.dtd" >
<svg xmlns="http://www.w3.org/2000/svg">
<metadata>Generated by IcoMoon</metadata>
<defs>
<font id="icomoon" horiz-adv-x="1024">
<font-face units-per-em="1024" ascent="960" descent="-64" />
<missing-glyph horiz-adv-x="1024" />
<glyph unicode="&#x20;" horiz-adv-x="512" d="" />
<glyph unicode="&#xe900;" glyph-name="business-hours" horiz-adv-x="1536" d="M1376.563 553.6l-515.021 272.717c1.843 7.168 3.123 14.566 3.123 22.272 0 49.664-40.422 90.086-90.112 90.086s-90.086-40.422-90.086-90.086c0-7.706 1.254-15.053 3.098-22.195l-515.277-272.87c-8.141-2.432-14.182-9.651-14.182-18.534v-522.65c0-10.829 8.832-19.635 19.712-19.635h811.008v25.6h-805.12v510.746h1181.696v-510.694h-210.56v-25.6h216.525c10.829 0 19.635 8.806 19.635 19.635v522.598c0 9.011-6.195 16.282-14.438 18.611zM774.554 913.075c35.584 0 64.512-28.928 64.512-64.486s-28.928-64.486-64.512-64.486c-35.558 0-64.486 28.928-64.486 64.486s28.928 64.486 64.486 64.486zM774.554 758.502c32.794 0 61.312 17.818 77.056 44.109l468.25-247.987h-1090.79l468.378 248.038c15.77-26.291 44.262-44.16 77.107-44.16zM1020.928 19.226h110.874v-25.6h-110.874v25.6zM530.483 317.568c-0.896-2.022-2.125-3.482-3.686-4.301-2.099-1.28-4.941-1.894-8.525-1.894h-3.942v-3.328h63.616v3.328h-3.968c-3.405 0-6.144 0.563-8.166 1.741s-3.379 2.534-4.045 4.096c-0.666 1.562-0.998 5.453-0.998 11.674v80.179c0 6.118 0.333 9.907 0.998 11.315 0.896 2.048 2.125 3.482 3.686 4.301 2.099 1.254 4.941 1.894 8.525 1.894h3.968v3.328h-63.642v-3.328h3.942c3.405 0 6.144-0.563 8.166-1.741 2.048-1.152 3.379-2.534 4.045-4.096s0.998-5.453 0.998-11.674v-34.509h-43.059v34.509c0 6.118 0.333 9.907 0.998 11.315 0.896 2.048 2.125 3.482 3.686 4.301 2.15 1.254 4.992 1.894 8.525 1.894h4.045v3.328h-63.718v-3.328h4.045c3.405 0 6.118-0.563 8.141-1.741 1.997-1.152 3.328-2.534 3.994-4.096 0.64-1.562 0.998-5.453 0.998-11.674v-80.179c0-6.093-0.333-9.882-0.998-11.315-0.845-2.022-2.048-3.482-3.61-4.301-2.15-1.28-4.992-1.894-8.525-1.894h-4.045v-3.328h63.718v3.328h-4.045c-3.405 0-6.118 0.563-8.141 1.741s-3.354 2.534-4.045 4.096c-0.691 1.562-1.024 5.453-1.024 11.674v37.76h43.059v-37.76c0.026-6.093-0.307-9.882-0.973-11.315zM707.994 328.602c9.062 11.75 13.568 25.344 13.568 40.832 0 18.074-6.067 33.152-18.202 45.21s-27.904 17.715-47.334 16.998c-17.971 0.717-33.126-4.966-45.44-17.050s-18.483-27.162-18.483-45.261c0-16.128 4.736-30.054 14.208-41.805 11.981-14.848 28.954-22.272 50.867-22.272s38.835 7.782 50.816 23.347zM684.723 334.874c-2.944-8.422-7.040-14.541-12.314-18.381-4.122-2.995-9.293-4.506-15.462-4.506-9.165 0-16.307 3.482-21.402 10.419-7.322 9.958-10.957 25.318-10.957 46.131 0 17.485 2.355 30.899 7.091 40.243 5.811 11.392 14.285 17.075 25.446 17.075 6.042 0 11.392-1.638 16.051-4.941 4.634-3.302 8.474-8.96 11.443-16.947 2.995-8.013 4.506-20.045 4.506-36.173 0-13.542-1.459-24.499-4.403-32.922zM827.802 313.165c7.322 5.325 11.93 11.187 13.798 17.536 1.894 6.349 2.816 16.691 2.816 31.002v46.285c0 4.966 0.41 8.422 1.178 10.317 1.024 2.765 2.662 4.838 4.941 6.221s5.12 2.074 8.525 2.074h2.534v3.328h-42.138v-3.328c4.89 0 8.73-0.691 11.418-2.074 1.715-0.896 3.174-2.509 4.301-4.864 1.152-2.33 1.69-6.221 1.69-11.674v-49.69c0-12.954-1.152-22.016-3.456-27.238-2.304-5.197-5.786-9.293-10.419-12.262-4.659-2.97-10.266-4.454-16.845-4.454-5.76 0-10.522 1.152-14.31 3.507-3.763 2.33-6.477 5.274-8.115 8.806-1.638 3.558-2.483 10.752-2.483 21.683v59.648c0 6.938 0.384 11.29 1.126 13.030s1.997 3.123 3.763 4.096c1.766 0.998 5.018 1.485 9.754 1.485h3.149v3.328h-62.925v-3.328c5.146 0.051 8.678-0.41 10.624-1.434 1.92-1.024 3.251-2.381 4.045-4.096 0.768-1.69 1.178-6.067 1.178-13.082v-59.674c0-10.138 1.613-18.202 4.838-24.166 3.226-5.99 8.781-10.931 16.614-14.746 5.76-2.816 13.901-4.224 24.448-4.224 12.672-0.026 22.656 2.662 29.952 7.987zM986.266 324.378l-29.312 41.267c7.45 1.843 13.235 4.634 17.357 8.346 6.477 5.862 9.728 13.312 9.728 22.298 0 7.347-2.176 13.773-6.477 19.277-4.326 5.478-9.907 9.242-16.717 11.264s-17.613 3.046-32.358 3.046h-56.627v-3.328c5.581 0 9.37-0.512 11.392-1.536 2.048-1.024 3.482-2.381 4.275-4.096 0.794-1.69 1.229-5.862 1.229-12.416v-79.104c0-6.605-0.435-10.726-1.229-12.39-0.794-1.69-2.227-3.046-4.224-4.096s-5.837-1.587-11.443-1.587v-3.328h62.387v3.328c-5.581 0-9.37 0.512-11.418 1.536-2.022 1.024-3.456 2.381-4.275 4.096-0.794 1.69-1.203 5.862-1.203 12.442v34.15h8.013l39.27-55.552h38.374v3.328c-3.226 0.179-6.067 1.203-8.525 3.046-1.664 1.382-4.378 4.685-8.218 10.010zM950.912 380.544c-2.381-3.994-5.632-6.758-9.754-8.269-4.147-1.536-10.368-2.304-18.688-2.304h-5.12v53.402h9.626c9.626 0 16.614-2.227 20.966-6.656 4.352-4.454 6.528-11.29 6.528-20.608-0.026-6.4-1.203-11.597-3.558-15.565zM1027.072 312.55c1.843 0 4.224-0.589 7.091-1.792 5.146-2.15 9.421-3.635 12.851-4.403s7.040-1.178 10.88-1.178c12.237 0 22.298 3.686 30.259 11.008 7.936 7.347 11.904 16.102 11.904 26.291 0 8.013-2.458 15.155-7.373 21.402-4.966 6.221-14.566 12.851-28.851 19.84-10.163 5.043-16.666 8.55-19.507 10.522-3.814 2.739-6.63 5.555-8.346 8.346-1.28 2.099-1.894 4.506-1.894 7.194 0 4.25 1.792 8.013 5.35 11.264 3.584 3.251 8.397 4.89 14.515 4.89 7.91 0 15.258-3.098 22.042-9.293s11.085-14.413 12.826-24.576h3.686l-0.973 40.602h-2.688c-0.768-3.661-1.613-5.965-2.534-6.912-0.896-0.973-2.125-1.434-3.686-1.434-1.613 0-4.454 0.973-8.499 2.918s-7.475 3.277-10.291 3.994c-3.712 0.973-7.552 1.434-11.494 1.434-10.854 0-19.814-3.405-26.957-10.24s-10.701-15.104-10.701-24.806c0-5.709 1.306-10.931 3.891-15.642s6.349-9.037 11.213-12.851c4.838-3.84 12.826-8.474 23.91-13.926 7.91-3.891 13.414-7.066 16.538-9.498 3.098-2.432 5.427-4.966 6.938-7.68s2.304-5.478 2.304-8.371c0-4.838-1.997-9.088-5.965-12.749-3.994-3.661-9.344-5.478-16.051-5.478-8.704 0-16.794 3.405-24.294 10.189-7.526 6.81-12.595 16.666-15.258 29.594h-3.328v-46.003h3.328c1.075 2.458 2.509 4.275 4.224 5.478 1.741 1.254 3.379 1.869 4.941 1.869zM660.531 135.117h-4.070c-2.56-5.197-4.634-8.627-6.221-10.24s-3.61-2.765-6.067-3.456-7.757-1.024-15.898-1.024h-33.178c25.651 25.011 42.291 44.442 49.92 58.419 5.581 10.317 8.371 20.531 8.371 30.541 0 5.53-1.818 11.418-5.427 17.715-3.635 6.298-8.653 11.264-15.053 14.899-6.4 3.61-13.517 5.427-21.274 5.427-10.88 0-20.454-3.482-28.774-10.419-8.294-6.938-14.49-17.638-18.56-32.154l4.198-1.485c6.4 11.622 15.437 17.459 27.059 17.459 7.091 0 13.082-2.637 17.997-7.885 4.89-5.248 7.347-11.827 7.347-19.738 0-10.88-2.97-21.99-8.883-33.408s-22.733-33.587-50.432-66.56v-2.509h90.342l8.602 44.416zM768.973 90.726v34.432h14.029v23.424h-14.029v98.816h-13.824l-72.909-98.816v-23.424h55.578v-34.432h31.155zM693.248 148.582l44.595 60.544v-60.544h-44.595zM936.755 99.328c-1.894-2.483-4.736-3.994-8.499-4.531v-4.070h53.658v4.070c-4.608 0.538-7.654 1.792-9.139 3.789-1.536 1.997-2.278 7.014-2.278 15.104v41.318c0 12.083-0.768 20.659-2.33 25.754s-4.685 9.523-9.395 13.312c-4.71 3.763-10.394 5.683-17.024 5.683-5.197 0-10.214-1.28-15.053-3.789-4.838-2.534-10.138-6.861-15.974-12.979v61.261h-43.136v-4.173c4.685-0.614 7.757-1.894 9.216-3.84 1.485-1.971 2.202-6.938 2.202-14.95v-107.546c0-8.064-0.614-12.954-1.92-14.592-1.869-2.432-5.043-3.84-9.498-4.301v-4.070h53.658v4.070c-4.454 0.589-7.398 2.202-8.832 4.762-1.126 1.894-1.69 6.605-1.69 14.157v56.73c3.328 5.197 6.426 8.858 9.267 10.931 2.867 2.074 5.837 3.098 8.858 3.098 2.022 0 3.84-0.614 5.478-1.843 1.613-1.254 2.765-2.995 3.456-5.222s1.024-7.706 1.024-16.486v-47.206c-0.026-7.68-0.691-12.442-2.048-14.438z" />
<glyph unicode="&#xe901;" glyph-name="contact-form" horiz-adv-x="1536" d="M1356.211 908.8h-1147.776c-11.341 0-20.582-9.216-20.582-20.531v-892.723c0-11.315 9.242-20.557 20.582-20.557h983.987v27.878h-976.717v878.054h1133.158v-878.054h-33.613v-27.878h40.986c11.29 0 20.531 9.216 20.531 20.557v892.723c-0.026 11.315-9.242 20.531-20.557 20.531zM1222.042 2.867h39.194v-27.878h-39.194v27.878zM446.746 209.485v27.853h-47.258l-15.232-0.538v-85.274l1.306-14.464h237.414l15.232 0.538v85.274l-1.28 14.464h-190.131v-27.853h163.533v-44.595h-198.195v44.595zM1186.253 326.016v207.053c0 7.424-5.734 15.462-18.458 15.462h-457.216v-27.853h447.795v-182.272h-765.85v182.272h156.544v27.853h-166.016c-12.621 0-18.381-8.013-18.381-15.462v-207.053c0-7.398 5.76-15.462 18.381-15.462h784.768c12.723 0.026 18.432 8.064 18.432 15.462zM586.035 548.531h79.309v-27.853h-79.309v27.853zM374.989 695.194h376.218v-27.878h-376.218v27.878zM811.597 699.827h343.731v-27.878h-343.731v27.878z" />
<glyph unicode="&#xe902;" glyph-name="content-toggle" horiz-adv-x="1536" d="M1048.346 758.067h63.309v-25.6h-63.309v25.6zM1153.843 758.067v-25.6c162.56 0 294.81-132.25 294.81-294.784s-132.25-294.758-294.81-294.758h-723.661c-162.534 0.026-294.784 132.25-294.784 294.758 0 162.534 132.25 294.784 294.784 294.784h581.99v25.6h-581.99c-176.666 0-320.384-143.718-320.384-320.384s143.718-320.358 320.384-320.358h723.686c176.666 0 320.41 143.693 320.41 320.358s-143.744 320.384-320.435 320.384zM209.306 439.194c0-124.262 101.12-225.408 225.382-225.408s225.382 101.12 225.382 225.408c0 124.288-101.12 225.408-225.382 225.408s-225.382-101.12-225.382-225.408zM634.47 439.194c0-110.182-89.626-199.808-199.782-199.808s-199.782 89.626-199.782 199.808 89.626 199.808 199.782 199.808 199.782-89.626 199.782-199.808z" />
<glyph unicode="&#xe903;" glyph-name="counter" horiz-adv-x="1536" d="M695.552 830.746h-465.536v-32.486h457.523v-719.693h-655.053v719.693h43.469v32.486h-51.456c-13.491 0-24.499-11.008-24.499-24.525v-735.616c0-13.491 11.008-24.525 24.499-24.525h671.053c13.491 0 24.499 11.034 24.499 24.525v735.616c-0.026 13.517-11.008 24.525-24.499 24.525zM143.693 830.746h49.152v-32.486h-49.152v32.486zM1497.421 830.746h-671.027c-13.517 0-24.499-11.008-24.499-24.525v-735.616c0-13.491 10.982-24.525 24.499-24.525h51.43v32.538h-43.443v719.642h655.053v-719.693h-457.523v-32.538h465.536c13.542 0 24.499 11.034 24.499 24.525v735.667c-0.026 13.517-10.982 24.525-24.525 24.525zM945.587 78.592h49.203v-32.538h-49.203v32.538zM374.554 227.61c-18.253 0-37.888 8.525-58.803 25.6-20.966 17.075-33.152 26.47-36.582 28.186-6.246 3.021-12.928 4.506-19.994 4.506-9.267 0-17.434-3.482-24.499-10.47-7.091-6.938-10.675-15.411-10.675-25.242 0-13.542 6.118-24.602 18.381-33.229 16.973-12.262 43.93-18.355 80.922-18.355 55.424 0 99.635 15.923 132.608 47.846s49.485 70.63 49.485 116.198c0 27.059-6.605 49.587-19.84 67.507-13.21 17.946-32.384 33.050-57.523 45.286 19.533 11.392 33.894 24.55 43.008 39.501 9.139 14.925 13.722 30.438 13.722 46.566 0 24.704-9.83 46.285-29.491 64.768-19.686 18.483-44.646 27.725-74.957 27.725-29.645 0-56.55-9.037-80.717-27.085s-44.006-45.005-59.494-80.896l11.93-4.198c21.069 31.795 46.643 47.718 76.698 47.718 19.354 0 35.507-6.4 48.512-19.174 13.005-12.8 19.507-28.109 19.507-45.926 0-12.877-3.43-25.6-10.317-38.195s-15.027-21.914-24.499-28.032c-9.446-6.144-26.419-12.749-50.944-19.84v-11.238c39.757-9.472 69.939-26.598 90.573-51.456 20.659-24.806 30.95-51.891 30.95-81.357 0-19.328-5.734-35.302-17.101-47.872s-24.96-18.842-40.858-18.842zM1204.378 665.677l-207.59-281.395v-66.739h158.31v-97.946h88.627v97.946h39.962v66.739h-39.962v281.395h-39.347zM1155.072 384.282h-127.027l127.027 172.442v-172.442z" />
<glyph unicode="&#xe904;" glyph-name="divider" horiz-adv-x="1536" d="M49.075 575.002h1461.325v-25.6h-1461.325v25.6zM49.075 323.686h153.6v-25.6h-153.6v25.6zM587.392 323.686h384.717v-25.6h-384.717v25.6zM1356.8 323.686h153.6v-25.6h-153.6v25.6z" />
<glyph unicode="&#xe905;" glyph-name="dual-heading" horiz-adv-x="1536" d="M947.379 844.723c51.43 0 74.957-6.042 85.53-11.059 28.928-14.054 51.942-33.075 68.403-56.448 16.87-24.038 32.563-64.666 46.669-120.781l2.458-9.677h47.462v276.966h-859.853v-276.966h49.818l1.664 10.854c9.984 65.229 34.022 115.968 71.398 150.81 25.754 24.064 68.685 36.275 127.565 36.275h54.374v-71.526h25.6v97.152h-79.974c-65.613 0-114.406-14.515-145.024-43.187-39.552-36.838-65.562-88.883-77.44-154.778h-2.381v225.766h808.627v-225.766h-1.946c-14.413 54.886-30.157 94.054-48.077 119.552-18.995 26.982-45.286 48.768-78.285 64.819-19.251 9.139-50.842 13.568-96.589 13.568h-81.92v-492.006h0.358l-0.128-89.702h-0.23v-147.533c0-1.28 0.026-2.253 0.026-3.482l-0.051-45.056h1.331c1.766-28.288 4.992-39.731 7.654-45.645 6.298-14.31 18.432-26.778 36.096-37.094 14.899-8.678 34.355-13.645 57.856-14.822h-402.33c24.141 1.229 44.39 6.528 60.083 15.667 14.387 7.757 25.702 20.838 33.587 38.758 3.763 8.141 8.755 26.547 8.755 91.674v520.525h-25.6v-520.499c0-58.342-4.019-75.776-6.477-81.178-5.709-12.928-13.030-21.658-22.784-26.931-14.438-8.397-34.176-12.672-58.65-12.672h-43.622v-50.918h511.898v50.918h-43.622c-24.038 0-42.957 3.917-56.218 11.622-12.877 7.526-21.478 16.026-25.574 25.344-1.638 3.686-3.968 12.928-5.427 35.149l173.312-0.819v38.042h-27.878c-10.598 0-18.688 1.613-24.141 4.813-4.941 2.842-8.294 6.067-9.754 9.344-0.461 1.024-2.688 7.654-2.688 38.144v143.898h-25.6v-143.898c0-33.178 2.509-43.213 4.915-48.563 2.611-5.914 6.835-11.213 12.57-15.821l-101.811 0.512c-0.102 5.402-0.179 11.418-0.205 17.792l0.538 440.013h233.523v-96.23c-3.891 9.472-8.013 17.28-12.416 23.501-9.958 14.131-23.603 25.472-40.73 33.792-10.291 4.864-26.624 7.245-49.894 7.245h-46.515v-187.52h25.6v161.92h20.915c25.088 0 35.174-2.995 38.835-4.736 13.056-6.349 23.45-14.899 30.848-25.446 7.757-11.008 15.078-30.080 21.811-56.704l2.432-9.677h34.739v179.456h-259.738v243.251h56.32zM642.867 743.834h25.6v-57.574h-25.6v57.574z" />
<glyph unicode="&#xe906;" glyph-name="icon-list" horiz-adv-x="1536" d="M1352.474 685.107h54.81v-25.6h-54.81v25.6zM755.994 685.107h562.739v-25.6h-562.739v25.6zM755.994 170.906h54.81v-25.6h-54.81v25.6zM844.57 170.906h562.714v-25.6h-562.714v25.6zM330.957 788.582c1.485-1.459 3.379-2.253 5.376-2.253 1.946 0 3.891 0.794 5.427 2.253 2.944 2.995 2.944 7.808 0 10.803-7.757 7.706-7.757 20.275 0 28.032 6.579 6.63 10.214 15.437 10.214 24.781 0 9.395-3.635 18.176-10.214 24.806-3.021 2.995-7.834 2.995-10.803 0-2.995-2.995-2.995-7.782 0-10.752 3.738-3.738 5.811-8.73 5.811-14.054 0-5.274-2.074-10.24-5.811-13.978-13.67-13.696-13.67-35.968 0-49.638zM498.432 788.582c1.485-1.459 3.482-2.253 5.376-2.253 1.971 0 3.917 0.794 5.376 2.253 3.046 2.995 3.046 7.808 0 10.803-7.68 7.706-7.68 20.275 0 28.032 6.656 6.63 10.317 15.437 10.317 24.781 0 9.395-3.635 18.176-10.317 24.806-2.97 2.995-7.757 2.995-10.752 0-2.944-2.995-2.944-7.782 0-10.752 3.763-3.738 5.837-8.73 5.837-14.054 0-5.274-2.074-10.24-5.837-13.978-13.67-13.696-13.67-35.968 0-49.638zM414.694 834.253c1.51-1.459 3.43-2.202 5.402-2.202 1.946 0 3.891 0.742 5.325 2.202 3.046 2.995 3.046 7.834 0 10.803-7.629 7.731-7.629 20.275 0 28.058 6.682 6.605 10.342 15.411 10.342 24.781s-3.661 18.176-10.342 24.781c-2.944 2.97-7.706 2.97-10.701 0-2.995-2.995-2.995-7.808 0-10.752 3.763-3.738 5.811-8.704 5.811-14.029 0-5.299-2.048-10.266-5.811-14.029-13.67-13.67-13.67-35.891-0.026-49.613zM427.264 740.685c0 4.198-3.43 7.603-7.603 7.603h-0.128c-12.467 0-24.909-1.357-37.018-4.070-4.147-0.922-6.656-5.018-5.683-9.062 0.819-3.584 3.866-5.965 7.424-5.965 0.538 0 1.075 0.077 1.69 0.179 10.906 2.458 22.221 3.738 33.613 3.738h0.102c4.173-0.026 7.603 3.379 7.603 7.578zM337.101 726.246c-39.654-23.501-68.506-65.946-77.235-113.613-0.717-4.173 1.997-8.090 6.093-8.858 0.538-0.077 0.998-0.154 1.434-0.154 3.584 0 6.861 2.586 7.552 6.246 7.859 43.392 34.048 81.997 69.862 103.27 3.61 2.176 4.813 6.835 2.662 10.445-2.074 3.61-6.835 4.762-10.368 2.662zM614.784 614.118c-13.824 80.998-77.030 145.408-157.414 161.024 0.154 1.203 0.358 2.406 0.358 3.635 0 20.966-17.075 38.093-38.093 38.093-21.043 0-38.093-17.101-38.093-38.093 0-1.203 0.23-2.406 0.333-3.635-80.41-15.616-143.565-80.026-157.338-161.024-15.898-9.011-33.306-22.246-33.306-37.146 0-38.682 118.093-64.691 228.429-64.691s228.429 26.010 228.429 64.691c0 14.899-17.382 28.134-33.306 37.146zM396.826 778.778c0 12.595 10.24 22.835 22.835 22.835s22.861-10.24 22.861-22.835c0-0.461 0-0.87-0.102-1.306-0.256 0-0.666 0.051-1.050 0.077-2.662 0.307-5.248 0.486-7.885 0.691-0.973 0.051-1.946 0.179-2.918 0.205-3.635 0.205-7.219 0.307-10.906 0.307-3.635 0-7.296-0.102-10.88-0.307-1.024-0.026-1.946-0.154-2.944-0.205-2.662-0.205-5.325-0.41-7.91-0.691-0.384-0.026-0.717-0.026-1.101-0.102 0 0.435 0 0.87 0 1.331zM237.645 596.89c0.154 0.87 0.179 1.715 0.282 2.56 0.307 2.483 0.563 4.915 0.896 7.347 11.392 79.539 74.061 142.694 153.446 154.675 4.070 0.64 8.166 1.050 12.262 1.382 0.896 0.077 1.741 0.102 2.56 0.205 8.32 0.538 16.742 0.538 25.088 0 0.87-0.077 1.664-0.128 2.56-0.205 4.147-0.333 8.269-0.768 12.365-1.382 79.309-11.981 142.029-75.162 153.395-154.701 0.333-2.432 0.64-4.89 0.896-7.347 0.102-0.819 0.154-1.664 0.282-2.56 0.307-3.328 0.538-6.707 0.614-10.086-119.629-27.725-245.709-27.725-365.261 0 0.128 3.405 0.307 6.784 0.614 10.112zM419.661 527.488c-130.176 0-213.171 32.512-213.171 49.485 0 2.97 3.635 9.395 15.693 17.741-0.051-0.41 0-0.87-0.051-1.306-0.23-4.198-0.41-8.371-0.41-12.595v-6.042l5.811-1.382c62.848-15.078 127.462-22.63 192.128-22.63 64.64 0 129.254 7.526 192.128 22.63l5.837 1.382v6.042c0 4.224-0.179 8.422-0.435 12.595-0.026 0.435 0 0.896-0.026 1.306 12.058-8.371 15.667-14.797 15.667-17.741 0-16.998-83.021-49.485-213.171-49.485zM636.058 221.312c0 32.896-22.502 63.386-57.216 77.722-12.851 5.274-22.81 15.462-26.445 27.264-9.574 30.080-31.155 47.232-66.074 52.301-29.030 4.275-56.346-5.12-71.219-24.576-5.837-7.629-19.226-10.726-32.512-7.45-10.547 2.56-21.478 3.891-32.538 3.994-0.41 0-0.794 0-1.229 0-49.050 0-89.651-26.291-96.666-62.797-2.432-12.672-0.922-25.318 4.454-37.683 6.4-14.592 0.589-30.285-15.488-42.086-20.71-15.104-32.051-35.072-32.051-56.218 0-28.083 40.678-48.077 74.854-59.878 21.043-7.296 34.893-21.325 37.939-38.426l0.205-0.998c6.477-33.613 41.882-57.139 84.89-57.139 1.459 0 2.893 0.026 4.352 0.026 32.666 1.28 63.949 15.053 83.738 36.992 6.067 6.758 15.846 10.522 24.448 9.267 14.848-2.15 29.978-0.998 45.030 3.43 34.816 10.163 61.44 38.016 66.15 69.325 2.355 16.077-0.666 31.693-8.832 45.363-3.584 6.093-3.328 13.517 0.691 19.354 8.883 12.646 13.517 27.264 13.517 42.214zM610.918 187.29c-7.322-10.47-7.782-23.834-1.178-34.765 6.374-10.778 8.832-23.245 6.912-35.968-3.917-25.907-26.47-49.178-56.115-57.805-13.082-3.84-26.189-4.864-38.938-2.97h-0.026c-13.235 1.843-27.802-3.584-37.069-13.824-17.229-19.149-44.774-31.206-73.626-32.333-37.734-1.434-69.402 17.792-74.957 46.336-4.019 22.426-21.274 40.448-47.258 49.459-40.96 14.131-65.306 31.488-65.306 46.413 0 16.486 9.293 32.41 26.163 44.698 21.53 15.718 29.286 38.477 20.096 59.29-4.198 9.651-5.325 19.507-3.456 29.312 5.734 29.798 40.448 51.2 82.662 51.2 0.384 0 0.768 0 1.126 0 9.882-0.051 19.789-1.28 29.261-3.61 18.918-4.659 37.888 0.538 47.258 12.698 11.725 15.309 33.843 22.656 57.856 19.098 29.363-4.275 46.694-17.766 54.477-42.522 4.941-15.77 17.92-29.312 34.586-36.224 29.389-12.032 48.435-37.376 48.435-64.512-0.026-12.006-3.789-23.782-10.906-33.971zM475.93 279.987c-52.966 0-96.077-43.059-96.077-96.051s43.11-96.102 96.077-96.102c53.018 0 96.077 43.11 96.077 96.102 0 52.941-43.085 96.051-96.077 96.051zM475.93 102.067c-45.133 0-81.818 36.685-81.818 81.843 0 45.133 36.685 81.818 81.818 81.818 45.107 0 81.818-36.71 81.818-81.818-0.026-45.158-36.736-81.843-81.818-81.843zM475.93 251.52c-6.758 0-13.466-1.024-19.866-2.995-3.763-1.101-5.914-5.12-4.762-8.883 0.922-3.021 3.763-5.018 6.835-5.018 0.691 0 1.382 0.077 2.074 0.358 5.12 1.536 10.342 2.304 15.718 2.304 3.917 0 7.142 3.149 7.142 7.142 0 3.917-3.251 7.091-7.142 7.091zM432.358 235.622c-15.283-12.877-24.038-31.77-24.038-51.712 0-3.942 3.2-7.117 7.091-7.117 3.942 0 7.117 3.174 7.117 7.117 0 15.795 6.938 30.643 18.97 40.781 3.072 2.56 3.405 7.040 0.819 10.061-2.458 2.995-6.963 3.379-9.958 0.87zM327.117 311.347c-1.562 3.61-5.837 5.197-9.37 3.61-15.002-6.63-27.213-17.126-36.378-31.053-2.099-3.328-1.203-7.757 2.099-9.882 1.152-0.768 2.534-1.178 3.891-1.178 2.278 0 4.608 1.178 5.939 3.251 7.552 11.597 17.766 20.301 30.234 25.856 3.584 1.613 5.197 5.837 3.584 9.395zM348.954 308.506c9.165 0.87 15.514 0.026 15.693 0.026 0.333-0.026 0.614-0.102 0.998-0.102 3.482 0 6.502 2.611 7.040 6.118 0.538 3.891-2.202 7.526-6.067 8.038-0.307 0.051-8.013 1.126-19.072 0.051-3.968-0.384-6.758-3.789-6.374-7.757 0.333-3.942 3.789-6.784 7.782-6.374zM393.165 45.696l-1.024-0.102c-16.563-1.843-31.693 9.472-34.56 25.754-0.666 3.891-4.301 6.477-8.192 5.837-3.891-0.666-6.426-4.352-5.811-8.218 3.814-21.965 23.066-37.811 45.082-37.811 1.741 0 3.43 0.077 5.171 0.282l1.152 0.154c3.891 0.512 6.682 4.070 6.118 7.936-0.41 3.891-3.942 6.656-7.936 6.17zM347.699 81.741c3.354 2.099 4.378 6.477 2.355 9.856-6.963 11.392-15.923 16.922-16.282 17.178-3.354 2.048-7.757 0.998-9.83-2.406-2.048-3.328-0.998-7.706 2.355-9.702 0.102-0.077 6.451-4.122 11.597-12.544 1.357-2.227 3.686-3.43 6.067-3.43 1.254 0 2.56 0.384 3.738 1.050z" />
<glyph unicode="&#xe907;" glyph-name="image-comparison" horiz-adv-x="1536" d="M562.918 613.171c0 60.006-51.789 108.851-115.507 108.851-63.642 0-115.43-48.845-115.43-108.851s51.763-108.826 115.43-108.826c63.718 0 115.507 48.819 115.507 108.826zM363.571 613.171c0 42.624 37.606 77.261 83.84 77.261 46.285 0 83.917-34.637 83.917-77.261s-37.658-77.261-83.917-77.261c-46.234 0-83.84 34.637-83.84 77.261zM1406.131 936.883h-1101.517v-31.565h466.099v-509.747l-114.304 106.829-4.736 5.862-406.118-327.398 19.84-24.576 383.949 309.504 121.395-113.459v-362.214h-641.050v915.2h37.453v31.565h-45.85c-12.774 0-23.168-10.163-23.168-22.682v-932.915c0-12.544 10.394-22.707 23.168-22.707h1284.838c12.826 0 23.219 10.138 23.219 22.707v932.915c0 12.518-10.394 22.682-23.219 22.682zM1397.837-9.882h-595.558v367.258l220.646 212.301 271.59-224.64 20.096 24.346-293.197 242.662-219.187-210.867v504.141h595.61v-915.2zM227.635 936.883h43.853v-31.565h-43.853v31.565z" />
<glyph unicode="&#xe908;" glyph-name="image-hotspot" horiz-adv-x="1536" d="M58.65 356.864h26.726v-58.547h-26.726v58.547zM1465.933 893.286h-1383.168c-13.312 0-24.115-10.803-24.115-24.141v-463.872h26.726v461.286h1377.946v-644.838h-543.846l-152.090-211.174-134.938 211.174h-547.072v53.197h-26.726v-55.808c0-13.338 10.803-24.166 24.115-24.166h535.014l148.275-231.987 167.091 231.987h532.787c13.286 0 24.115 10.854 24.115 24.166v650.035c0 13.338-10.854 24.141-24.115 24.141z" />
<glyph unicode="&#xe909;" glyph-name="info-box-carousel" horiz-adv-x="1536" d="M1305.088 892.979h-1078.272c-10.496 0-19.046-8.525-19.046-18.995v-838.656c0-10.496 8.55-19.021 19.046-19.021h924.365v25.6h-917.811v825.472h1065.114v-825.498h-31.898v-25.6h38.502c10.47 0 18.995 8.525 18.995 19.021v838.682c0.026 10.47-8.499 18.995-18.995 18.995zM1179.059 41.882h36.838v-25.6h-36.838v25.6zM876.339 666.112h277.043v-25.6h-277.043v25.6zM1085.901 506.854h67.507v-25.6h-67.507v25.6zM876.339 506.854h192.358v-25.6h-192.358v25.6zM703.13 245.043h450.253v-25.6h-450.253v25.6zM380.339 245.043h274.842v-25.6h-274.842v25.6zM876.339 356.352h277.043v-25.6h-277.043v25.6zM791.731 353.152v304.128c0 8.294-6.758 15.053-15.053 15.053h-214.144v-25.6h203.597v-283.034h-369.946v283.034h72.166v25.6h-82.739c-8.294 0-15.027-6.758-15.027-15.053v-304.128c0-8.294 6.733-15.053 15.027-15.053h391.066c8.294 0 15.053 6.733 15.053 15.053zM486.758 672.333h39.526v-25.6h-39.526v25.6zM1495.117 451.866l-65.51 65.51c-3.814 3.968-10.547 4.147-14.771-0.077-3.866-4.096-3.84-10.445 0.128-14.49l58.266-58.214-58.291-58.266c-3.942-4.019-3.942-10.522 0.102-14.643 1.971-1.894 4.557-2.944 7.245-2.944 2.893 0 5.632 1.203 7.27 3.021l65.434 65.459c1.997 1.92 3.098 4.506 3.123 7.296 0.026 2.739-1.050 5.402-2.995 7.347zM105.37 510.080c0 2.765-1.101 5.376-3.021 7.27-3.917 4.019-11.29 3.686-14.592 0.026l-65.485-65.485c-1.971-1.92-3.072-4.531-3.072-7.296s1.050-5.376 2.995-7.322l65.51-65.485c1.946-1.997 4.557-3.098 7.347-3.098 2.765 0 5.376 1.101 7.27 3.021 1.971 1.971 3.072 4.582 3.072 7.322s-1.075 5.35-3.046 7.296l-58.214 58.24 58.189 58.163c1.946 1.971 3.046 4.582 3.046 7.347z" />
<glyph unicode="&#xe90a;" glyph-name="info-box" horiz-adv-x="1536" d="M1357.466 911.258h-1198.72c-11.853 0-21.478-9.626-21.478-21.453v-932.301c0-11.853 9.626-21.504 21.478-21.504h1027.661v29.107h-1020.032v917.043h1183.437v-917.043h-35.149v-29.107h42.803c11.853 0 21.453 9.651 21.453 21.504v932.301c-0.026 11.827-9.626 21.453-21.453 21.453zM1217.306-34.893h40.96v-29.107h-40.96v29.107zM880.845 659.072h307.994v-29.133h-307.994v29.133zM1113.754 481.997h75.11v-29.107h-75.11v29.107zM880.845 481.997h213.811v-29.107h-213.811v29.107zM688.256 190.976h500.582v-29.107h-500.582v29.107zM329.421 190.976h305.587v-29.107h-305.587v29.107zM880.845 314.65h307.994v-29.107h-307.994v29.107zM787.046 310.81v338.099c0 9.421-7.654 17.075-17.050 17.075h-238.029v-29.107h225.997v-314.010h-410.598v314.010h79.898v29.082h-91.981c-9.395 0-17.024-7.654-17.024-17.075v-338.099c0-9.421 7.629-17.050 17.024-17.050h434.714c9.395 0.026 17.050 7.654 17.050 17.075zM447.744 665.958h43.93v-29.107h-43.93v29.107z" />
<glyph unicode="&#xe90b;" glyph-name="info-list" horiz-adv-x="1536" d="M691.814 414.925h249.472v-25.6h-249.472v25.6zM967.834 415.565h31.693v-25.6h-31.693v25.6zM382.157 234.086h25.6v-61.261h-25.6v61.261zM691.814 638.95h319.923v-25.6h-319.923v25.6zM691.814 190.95h319.923v-25.6h-319.923v25.6zM928.179 948.045h-546.176v-678.246h25.6v652.646h509.978l9.037-9.037v-208.87h208.922l12.211-12.211v-721.792h-740.147v157.466h-25.6v-183.066h791.322v758.016l-245.146 245.094zM952.192 730.163v156.134l156.134-156.134h-156.134zM608.819 634.342l-17.638 18.509-45.107-42.957-17.28 17.894-18.406-17.766 34.944-36.198zM545.331 370.15l63.488 60.544-17.638 18.509-45.107-42.957-17.28 17.894-18.406-17.792zM545.306 146.15l63.514 60.493-17.638 18.56-45.082-42.957-17.306 17.894-18.406-17.741z" />
<glyph unicode="&#xe90c;" glyph-name="Info-Table" horiz-adv-x="1536" d="M1356.467 930.125h-42.061v-25.6h35.968v-255.283h-358.733v130.048h-25.6v-130.048h-402.944v130.048h-25.6v-130.048h-253.261v-25.6h253.261v-288.666h-351.718v288.666h69.888v25.6h-69.888v255.283h983.296v25.6h-989.286c-10.803 0-19.61-8.781-19.61-19.584v-915.2c0-10.778 8.806-19.533 19.61-19.533h1176.678c10.778 0 19.533 8.755 19.533 19.533v915.2c0 10.803-8.755 19.584-19.533 19.584zM563.098 623.642h402.944v-288.666h-402.944v288.666zM185.779 1.434v307.942h351.718v-241.92h25.6v241.92h402.944v-241.92h25.6v241.92h263.987v25.6h-263.987v288.666h358.758v-288.666h-66.202v-25.6h66.202v-307.942h-1164.621zM1209.6 930.125h64.64v-25.6h-64.64v25.6z" />
<glyph unicode="&#xe90d;" glyph-name="instagram-feed" horiz-adv-x="1536" d="M598.4 520.832c2.176 6.272 4.685 12.365 7.526 18.304l-23.373 11.187c-3.277-6.81-6.144-13.798-8.627-20.915-2.304-6.528-4.275-13.21-5.939-20.019l25.216-6.17c1.434 5.99 3.149 11.853 5.197 17.613zM1114.394 710.298c0-38.853-31.496-70.349-70.349-70.349s-70.349 31.496-70.349 70.349c0 38.853 31.496 70.349 70.349 70.349s70.349-31.496 70.349-70.349zM1232.742 335.027h25.958v-64.64h-25.958v64.64zM1103.949 929.050h-670.797c-85.299 0-154.701-69.402-154.701-154.726v-670.822c0-85.299 69.402-154.701 154.701-154.701h670.797c85.35 0 154.752 69.402 154.752 154.701v144.538h-25.958v-144.538c0-70.989-57.779-128.742-128.794-128.742h-670.797c-71.014 0-128.768 57.754-128.768 128.742v670.822c0 71.014 57.754 128.794 128.768 128.794h670.797c71.014 0 128.794-57.754 128.794-128.794v-392.218h25.958v392.218c0 85.325-69.402 154.726-154.752 154.726zM768.691 225.638c117.53 0 213.171 95.667 213.171 213.274 0 117.581-95.616 213.248-213.171 213.248-62.336 0-121.395-27.162-161.997-74.47l19.686-16.896c35.686 41.6 87.552 65.434 142.31 65.434 103.245 0 187.238-84.019 187.238-187.315s-83.994-187.341-187.238-187.341c-103.347 0-187.418 84.045-187.418 187.341h-25.933c-0.026-117.581 95.693-213.274 213.35-213.274z" />
<glyph unicode="&#xe90e;" glyph-name="link-effect" horiz-adv-x="1536" d="M1457.203 829.389h-169.344v-25.6h169.344c22.016 0 39.962-17.946 39.962-39.987v-615.68c0-22.042-17.92-39.987-39.962-39.987h-175.898v-25.6h175.898c36.147 0 65.562 29.414 65.562 65.587v615.68c-0.026 36.173-29.414 65.587-65.562 65.587zM1137.126 500.659h195.994v-25.6h-195.994v25.6zM38.4 763.802c0 22.042 17.92 39.987 39.962 39.987h175.949v25.6h-175.949c-36.173 0-65.562-29.414-65.562-65.587v-318.106h25.6v318.106zM12.8 388.173h25.6v-54.835h-25.6v54.835zM38.4 148.122v168.73h-25.6v-168.73c0-36.147 29.389-65.587 65.562-65.587h169.395v25.6h-169.395c-22.042 0-39.962 17.92-39.962 39.987zM198.144 500.659h157.645v-25.6h-157.645v25.6zM1060.787 399.846c-0.384 0.794-0.922 1.587-1.536 2.304-82.381 102.4-82.637 102.733-82.918 103.014-16.23 18.253-44.083 20.48-63.027 5.146-5.018-4.019-8.627-9.062-11.443-14.438-31.974 39.629-32.179 39.987-32.563 40.397-16.307 18.227-44.032 20.454-63.13 5.094-4.941-3.994-8.678-8.883-11.52-14.182-4.736 5.862-7.68 9.523-7.859 9.651-16.282 18.15-43.981 20.454-63.078 5.146-4.941-3.994-8.678-8.909-11.546-14.208-5.658 7.040-9.395 11.674-9.574 11.827-16.307 18.202-44.109 20.48-63.13 5.171-18.739-15.053-22.682-42.342-8.909-62.413 0.384-0.538 44.211-55.066 79.642-99.098-5.709-1.664-11.162-4.378-16.026-8.294-18.662-15.027-22.605-42.266-9.267-61.619 0.64-0.947 0.64-1.075 65.050-81.024l18.253-22.835-0.205-0.179c29.261-36.352 70.912-59.187 117.35-64.128 6.374-0.691 12.8-1.101 19.098-1.101 39.706 0 77.901 13.389 109.235 38.63 65.203 52.454 84.992 143.693 47.104 217.139zM996.122 204.698c-30.592-24.499-68.787-35.686-107.725-31.462-38.63 4.173-73.267 23.117-97.818 53.248l0.128 0.077c-0.128 0.205-7.962 9.958-18.816 23.424-23.706 29.517-61.926 77.005-63.462 79.002-5.274 7.654-3.712 18.202 3.456 24.013s17.408 5.018 23.424-0.922c11.213-13.901 18.816-23.398 19.226-23.885l0.154 0.154c6.733-8.371 14.592-18.125 22.477-27.904 20.608-25.626 41.216-51.277 41.472-51.533l21.709 18.048c-0.845 0.973-21.018 26.086-41.216 51.149-20.608 25.574-41.267 51.2-41.779 51.814-0.154 0.154-0.358 0.205-0.512 0.384-34.176 42.522-101.786 126.566-103.296 128.41-5.299 7.654-3.686 18.227 3.533 24.038 7.398 5.939 18.15 5.069 24.192-1.613 0.666-0.819 8.294-10.266 18.637-23.091 7.731-9.6 16.947-21.069 25.958-32.282 22.656-28.262 71.885-89.37 72.371-89.984l21.683 18.022c-0.717 0.922-16.614 20.71-34.227 42.598l0.026 0.051c-0.41 0.461-25.446 31.59-47.949 59.52-5.12 7.629-3.61 18.125 3.635 23.962 7.322 5.939 18.125 5.043 24.090-1.613 1.229-1.459 22.554-27.955 43.213-53.606 14.925-18.637 38.912-48.461 39.219-48.819l8.499 6.989 13.594 10.598c-0.256 0.307-15.386 19.098-32.589 40.525-8.909 11.085-16.41 20.378-17.126 21.274-5.274 7.629-3.738 18.176 3.533 24.013 7.424 5.99 18.227 5.043 24.141-1.536 1.178-1.562 26.189-32.512 45.363-56.371 12.237-15.181 22.118-27.469 22.298-27.622l21.658 18.022-9.856 12.186c-0.026 0.051-0.026 0.128-0.051 0.179-5.299 7.68-3.738 18.227 3.533 24.090 7.398 5.914 18.176 5.043 24.141-1.613 2.227-2.714 72.448-90.086 81.306-101.12 30.899-61.184 14.003-137.037-40.243-180.813zM563.046 640.333c-27.059-21.76-44.006-52.762-47.744-87.27-3.712-34.534 6.195-68.454 27.955-95.462 12.749-15.795 28.416-28.109 46.746-36.557l11.776 25.6c-14.259 6.605-26.624 16.256-36.557 28.646-17.024 21.146-24.73 47.693-21.862 74.778 2.944 26.957 16.154 51.251 37.427 68.301 21.146 17.024 47.718 24.73 74.701 21.888 26.982-2.918 51.302-16.179 68.301-37.376 9.498-11.776 16.051-25.062 19.584-39.578l27.52 6.733c-4.634 18.56-13.056 35.558-25.139 50.56-21.709 27.059-52.685 43.981-87.245 47.718-34.458 3.507-68.403-6.246-95.462-27.981zM502.118 422.579c-63.616 79.027-50.995 195.098 28.006 258.662 12.954 10.419 26.931 18.816 41.472 25.19l-9.574 26.573c-17.408-7.45-34.099-17.357-49.536-29.798-64.256-51.661-90.368-133.274-74.65-208.845 6.63-31.77 20.634-62.464 42.317-89.421 32.333-40.269 78.157-67.277 128.998-76.032l4.762 27.725c-43.981 7.731-83.738 31.13-111.795 65.946zM788.762 653.286c13.466-16.768 23.834-35.482 30.72-55.629l26.701 9.165c-7.987 23.245-19.891 44.8-35.456 64.128-25.242 31.36-57.6 53.632-92.979 66.381l-10.47-26.163c31.002-11.008 59.392-30.464 81.485-57.882zM649.83 721.766v28.186c-10.24 0.205-20.531-0.307-30.746-1.587l1.28-28.262c9.779 1.357 19.635 1.894 29.466 1.664z" />
<glyph unicode="&#xe90f;" glyph-name="logo-carousel" horiz-adv-x="1536" d="M1184.666 555.93c10.496-38.042 15.821-77.491 15.821-117.274 0-242.765-197.53-440.294-440.294-440.294-242.739 0-440.218 197.53-440.218 440.294s197.478 440.269 440.218 440.269c158.848 0 305.946-86.067 383.923-224.589l22.298 12.544c-82.483 146.586-238.157 237.645-406.221 237.645-256.87 0-465.818-208.998-465.818-465.869 0-256.896 208.973-465.894 465.818-465.894 256.896 0 465.894 208.998 465.894 465.894 0 42.061-5.632 83.814-16.717 124.058l-24.704-6.784zM641.562 343.962h-29.978v129.766h-30.49v-150.682h60.467zM710.784 322.867c5.069 1.843 9.267 4.378 12.595 7.578 3.328 3.226 6.042 7.091 8.192 11.699 2.15 4.582 3.686 9.395 4.557 14.515 0.896 5.094 1.357 10.675 1.357 16.691v49.894c0 35.61-14.72 53.427-44.134 53.427-29.363 0-44.032-17.818-44.032-53.427v-50.637c0-6.042 0.461-11.597 1.382-16.666s2.458-9.882 4.608-14.362c2.125-4.506 4.864-8.294 8.166-11.392 3.277-3.098 7.475-5.555 12.544-7.347 5.094-1.818 10.854-2.714 17.331-2.714 6.554-0.026 12.365 0.922 17.434 2.739zM679.808 365.747v65.126c0 2.739 0.179 5.274 0.538 7.578s0.998 4.659 1.894 7.040c0.896 2.381 2.278 4.25 4.198 5.606 1.894 1.357 4.224 2.048 6.938 2.048 9.088 0 13.645-7.424 13.645-22.272v-65.126c0-14.797-4.557-22.17-13.645-22.17-9.062-0.026-13.568 7.347-13.568 22.17zM815.616 333.594l3.84-10.547h20.915v77.517h-47.718v-21.862h17.254v-12.058c0-15.36-4.634-23.014-13.901-23.014-9.318 0-13.978 7.398-13.978 22.17v65.075c0 14.848 4.659 22.272 13.978 22.272 2.458 0 4.582-0.538 6.374-1.613 1.766-1.050 3.149-2.355 4.096-3.917s1.69-3.558 2.253-5.99c0.538-2.432 0.896-4.634 1.050-6.605 0.154-1.997 0.205-4.275 0.205-6.912v-10.547h29.158v8.883c0 5.965-0.486 11.443-1.434 16.41s-2.483 9.574-4.608 13.824-4.813 7.808-8.115 10.701-7.373 5.171-12.262 6.835c-4.864 1.638-10.445 2.483-16.691 2.483-29.645 0-44.442-17.818-44.442-53.427v-53.094c0-4.838 0.41-9.574 1.254-14.182s2.227-9.114 4.198-13.517 4.352-8.243 7.245-11.52c2.867-3.251 6.528-5.862 10.982-7.859 4.429-1.997 9.344-2.97 14.771-2.97 5.018 0 9.907 1.229 14.643 3.738 4.71 2.458 8.346 5.709 10.931 9.728zM881.946 322.842c5.069-1.818 10.854-2.714 17.331-2.714 6.528 0 12.314 0.922 17.408 2.739 5.094 1.843 9.293 4.378 12.621 7.578 3.302 3.226 6.042 7.091 8.192 11.699 2.15 4.582 3.661 9.395 4.557 14.515 0.896 5.094 1.357 10.675 1.357 16.691v49.894c0 35.61-14.72 53.427-44.134 53.427-29.363 0-44.058-17.818-44.058-53.427v-50.637c0-6.042 0.486-11.597 1.408-16.666 0.896-5.069 2.458-9.882 4.608-14.362 2.15-4.506 4.864-8.294 8.141-11.392s7.45-5.555 12.57-7.347zM885.683 430.874c0 2.739 0.205 5.274 0.538 7.578 0.384 2.304 0.998 4.659 1.869 7.040 0.896 2.381 2.304 4.25 4.198 5.606s4.198 2.048 6.938 2.048c9.088 0 13.645-7.424 13.645-22.272v-65.126c0-14.797-4.557-22.17-13.645-22.17-9.062 0-13.568 7.373-13.568 22.17v65.126zM687.616 160.333v65.254h-27.366v-14.592h11.11v-50.662zM726.861 173.21c-4.838 0-7.629 2.586-8.371 7.731h-14.618c0.128-5.888 1.971-10.803 5.504-14.72s9.062-5.862 16.512-5.862 13.005 1.894 16.666 5.709c1.792 1.766 3.2 4.122 4.275 7.014 1.075 2.918 1.818 6.042 2.202 9.421s0.589 7.629 0.589 12.723c0 5.12-0.384 9.651-1.101 13.594s-1.971 7.501-3.686 10.624c-3.558 6.246-10.112 9.37-19.661 9.37-7.117 0-12.723-2.022-16.819-6.067-4.096-4.019-6.144-9.574-6.144-16.563 0-7.014 1.92-12.262 5.786-15.77s9.011-5.222 15.437-5.222c2.509 0 4.89 0.41 7.168 1.178 2.253 0.794 3.968 1.741 5.146 2.842 0-5.709-0.691-9.779-2.125-12.262-1.357-2.509-3.635-3.738-6.758-3.738zM732.237 200.371c-1.51-1.562-3.635-2.355-6.426-2.355s-4.915 0.87-6.349 2.637-2.15 3.866-2.15 6.349 0.742 4.582 2.253 6.323c1.51 1.741 3.584 2.637 6.298 2.637s4.813-0.768 6.349-2.355c1.536-1.562 2.278-3.738 2.278-6.605s-0.742-5.069-2.253-6.63zM785.408 173.21c-4.838 0-7.629 2.586-8.346 7.731h-14.618c0.128-5.888 1.971-10.803 5.504-14.72 3.558-3.917 9.062-5.862 16.486-5.862 7.45 0 13.030 1.894 16.691 5.709 1.766 1.766 3.2 4.122 4.275 7.014 1.075 2.918 1.792 6.042 2.202 9.421s0.589 7.629 0.589 12.723c0 5.12-0.384 9.651-1.101 13.594-0.742 3.942-1.971 7.501-3.686 10.624-3.584 6.246-10.138 9.37-19.686 9.37-7.091 0-12.723-2.022-16.819-6.067-4.096-4.019-6.144-9.574-6.144-16.563 0-7.014 1.92-12.262 5.786-15.77s9.011-5.222 15.437-5.222c2.534 0 4.89 0.41 7.168 1.178 2.253 0.794 3.968 1.741 5.146 2.842 0-5.709-0.717-9.779-2.125-12.262-1.357-2.509-3.635-3.738-6.758-3.738zM790.784 200.371c-1.51-1.562-3.661-2.355-6.426-2.355-2.79 0-4.89 0.87-6.349 2.637-1.434 1.741-2.15 3.866-2.15 6.349s0.742 4.608 2.253 6.323c1.51 1.741 3.61 2.637 6.298 2.637 2.662 0 4.813-0.768 6.323-2.355 1.562-1.562 2.304-3.738 2.304-6.605s-0.742-5.069-2.253-6.63zM837.606 160.333l23.91 54.682v11.597h-44.314v-12.877h28.493l-25.088-53.402zM981.197 667.725v10.829h-59.366v-21.632h59.366zM592.845 667.725v10.829h-59.366v-21.632h59.366zM1163.571 599.373l23.962 9.011c-2.253 6.016-4.685 12.006-7.142 17.92l-23.603-9.984c2.355-5.606 4.634-11.264 6.784-16.947zM1415.706 445.978l-69.427 69.453c-3.994 3.994-10.906 4.045-14.95 0-1.997-2.022-3.098-4.71-3.072-7.526 0-2.816 1.126-5.453 3.098-7.398l61.952-61.952-61.875-61.901c-2.048-1.971-3.174-4.634-3.174-7.475-0.026-2.842 1.101-5.53 3.021-7.424 1.946-2.022 4.71-3.174 7.526-3.174 2.918 0 5.632 1.152 7.45 3.098l69.376 69.35c2.022 1.997 3.149 4.659 3.174 7.501 0 2.842-1.126 5.504-3.098 7.45zM198.272 507.93c0 2.842-1.126 5.53-3.021 7.373-3.968 4.147-11.597 3.84-14.976 0.102l-69.402-69.376c-2.022-1.971-3.123-4.608-3.149-7.45 0-2.816 1.075-5.504 3.072-7.501l69.376-69.35c1.997-2.048 4.659-3.2 7.501-3.2s5.504 1.126 7.475 3.149c2.048 2.048 3.149 4.762 3.123 7.578s-1.178 5.453-3.123 7.322l-61.952 61.952 61.875 61.875c2.074 1.997 3.2 4.659 3.2 7.526zM826.752 570.291l-12.211 71.68 52.224 50.79-72.064 10.445-32.23 65.382-32.102-65.382-72.038-10.445 52.147-50.79-12.288-71.706 64.358 33.869 64.205-33.843zM713.37 674.893l34.022 4.941 15.13 30.797 15.181-30.797 33.971-4.915-24.627-23.962 5.76-33.843-30.336 15.974-30.362-15.974 5.811 33.818-24.55 23.962z" />
<glyph unicode="&#xe910;" glyph-name="logo-grid" horiz-adv-x="1536" d="M356.941 557.901h305.562c2.125 0 3.814 0.845 3.814 1.869v252.723c0 0.998-1.69 1.843-3.814 1.843h-305.562c-2.125 0-3.891-0.845-3.891-1.843v-252.723c0-1.024 1.766-1.869 3.891-1.869zM914.765 557.901h305.587c2.15 0 3.763 0.845 3.763 1.869v252.723c0 0.998-1.613 1.843-3.763 1.843h-305.587c-2.074 0-3.84-0.845-3.84-1.843v-252.723c0-1.024 1.766-1.869 3.84-1.869zM662.477 345.523h-305.536c-2.125 0-3.891-0.845-3.891-1.894v-252.672c0-1.101 1.766-1.869 3.891-1.869h305.562c2.125 0 3.814 0.768 3.814 1.869v252.672c0 1.050-1.69 1.894-3.84 1.894zM1220.352 345.523h-305.587c-2.074 0-3.84-0.845-3.84-1.894v-252.672c0-1.101 1.766-1.869 3.84-1.869h305.587c2.15 0 3.763 0.768 3.763 1.869v252.672c0 1.050-1.613 1.894-3.763 1.894zM768.051 935.373h29.261v-112.742h-29.261v112.742zM797.312 460.339v322.176h-29.261v-322.176h-614.477v-29.21h614.477v-475.008h29.261v475.008h598.63v29.21z" />
<glyph unicode="&#xe911;" glyph-name="map" horiz-adv-x="1536" d="M1353.882 798.771l-367.411 140.723-446.438-213.376-369.459 156.109 44.083-435.098-43.494-397.414 376.397-82.33 427.725 83.738 376.934-73.293-47.744 414.31 49.408 406.63zM1278.362 408.064l-337.075 51.251 60.186 444.646 322.176-123.392-45.286-372.506zM912.87 456.090l-192.973-75.75c-8.346 77.645-64.691 140.928-138.675 159.949l-25.523 162.509 417.485 199.526-60.314-446.234zM693.197 360.346c0-87.194-70.938-158.131-158.157-158.131-87.194 0-158.131 70.938-158.131 158.131 0 87.219 70.938 158.157 158.131 158.157 87.219 0 158.157-70.938 158.157-158.157zM720.512 350.694l193.792 76.083 45.466-350.362-395.443-77.363 27.315 184.192c72.013 23.091 124.8 88.934 128.87 167.45zM202.957 838.349l324.864-137.293 24.448-155.648c-5.683 0.512-11.418 0.87-17.203 0.87-85.069 0-156.8-57.472-178.816-135.578l-114.611 46.131-38.682 381.517zM240.461 427.341l110.157-44.314c-0.896-7.45-1.536-15.002-1.536-22.682 0-102.528 83.43-185.933 185.958-185.933 9.395 0 18.509 0.896 27.546 2.278l-26.445-178.355-334.643 73.19 38.963 355.814zM1320.192 12.339l-332.39 64.64-46.029 354.125 336.051-51.098 42.368-367.667zM613.248 360.346c0-43.193-35.015-78.208-78.208-78.208s-78.208 35.015-78.208 78.208c0 43.193 35.015 78.208 78.208 78.208s78.208-35.015 78.208-78.208z" />
<glyph unicode="&#xe912;" glyph-name="page-navigation" horiz-adv-x="1536" d="M461.312 723.2h-307.84v-25.6h300.493v-471.808h-429.082v471.808h26.675v25.6h-33.971c-10.086 0-18.304-8.192-18.304-18.278v-486.477c0-10.086 8.218-18.253 18.304-18.253h443.725c10.061 0 18.253 8.166 18.253 18.253v486.477c0 10.086-8.192 18.278-18.253 18.278zM96.358 723.2h32.538v-25.6h-32.538v25.6zM991.565 723.2h-443.699c-10.112 0-18.304-8.192-18.304-18.278v-486.477c0-10.086 8.218-18.253 18.304-18.253h33.971v25.6h-26.675v471.808h429.056v-471.808h-300.467v-25.6h307.814c10.086 0 18.253 8.166 18.253 18.253v486.477c0 10.086-8.166 18.278-18.253 18.278zM626.637 225.792h32.563v-25.6h-32.563v25.6zM277.658 604.262l-106.368-48.589 3.84-7.68c10.368 4.557 19.174 6.835 26.419 6.835 4.557 0 8.55-1.178 12.032-3.507 3.507-2.355 5.888-5.197 7.142-8.525 1.28-3.354 1.92-11.699 1.92-25.062v-149.837c0-18.176-0.922-29.747-2.765-34.714s-5.402-8.883-10.65-11.725c-5.274-2.842-14.080-4.275-26.419-4.275h-7.68v-7.885h152.166v7.885h-6.605c-10.931 0-18.893 1.587-23.885 4.71s-8.243 7.142-9.805 12.058-2.33 16.23-2.33 33.971v236.339h-7.014zM660.326 321.715v-4.71h170.061l16.205 83.558h-7.68c-4.813-9.805-8.73-16.256-11.725-19.302-2.97-3.046-6.784-5.222-11.392-6.502s-14.592-1.894-29.926-1.894h-62.438c48.307 47.027 79.642 83.686 93.978 109.952 10.522 19.456 15.77 38.656 15.77 57.549 0 10.368-3.405 21.478-10.214 33.357s-16.282 21.222-28.339 28.032c-12.083 6.835-25.446 10.24-40.064 10.24-20.454 0-38.502-6.528-54.144-19.61s-27.264-33.254-34.944-60.518l7.885-2.765c12.058 21.862 29.030 32.819 50.918 32.819 13.338 0 24.653-4.941 33.894-14.822 9.216-9.882 13.85-22.272 13.85-37.197 0-20.454-5.581-41.421-16.742-62.874s-42.803-63.232-94.95-125.312zM1519.59 723.2h-443.75c-10.112 0-18.304-8.192-18.304-18.278v-486.477c0-10.086 8.192-18.253 18.304-18.253h33.997v25.6h-26.701v471.808h429.107v-471.808h-300.518v-25.6h307.866c10.086 0 18.253 8.166 18.253 18.253v486.477c0 10.086-8.166 18.278-18.253 18.278zM1150.131 225.792h32.486v-25.6h-32.486v25.6zM1338.061 342.502c21.837 21.094 32.717 46.694 32.717 76.826 0 17.894-4.378 32.794-13.133 44.646-8.73 11.853-21.402 21.862-38.016 29.952 12.928 7.526 22.4 16.23 28.442 26.112 6.016 9.882 9.062 20.147 9.062 30.797 0 16.333-6.502 30.618-19.507 42.829-13.005 12.237-29.517 18.33-49.562 18.33-19.61 0-37.402-5.965-53.402-17.92-15.974-11.93-29.082-29.773-39.296-53.478l7.885-2.765c13.926 21.018 30.822 31.539 50.714 31.539 12.8 0 23.475-4.25 32.077-12.698s12.902-18.586 12.902-30.387c0-8.525-2.278-16.947-6.835-25.242s-9.958-14.49-16.205-18.534-17.485-8.422-33.664-13.107v-7.475c26.291-6.246 46.259-17.587 59.904-33.997 13.619-16.41 20.454-34.355 20.454-53.811 0-12.8-3.763-23.347-11.29-31.642-7.526-8.32-16.538-12.467-27.059-12.467-12.109 0-25.062 5.658-38.912 16.947s-21.914 17.51-24.192 18.662c-4.122 1.971-8.525 2.97-13.21 2.97-6.118 0-11.52-2.304-16.205-6.938-4.71-4.634-7.040-10.189-7.040-16.717 0-8.96 4.045-16.282 12.16-21.939 11.213-8.090 29.056-12.16 53.504-12.16 36.659 0.026 65.92 10.573 87.706 31.667z" />
<glyph unicode="&#xe913;" glyph-name="popup-box" horiz-adv-x="1536" d="M1383.962 923.93h-1027.021v-25.6h1021.133v-182.81h-1186.125v182.81h36.838v25.6h-42.778c-10.829 0-19.661-8.832-19.661-19.686v-931.712c0-10.854 8.832-19.686 19.661-19.686h1197.952c10.88 0 19.738 8.832 19.738 19.686v931.712c-0.026 10.854-8.858 19.686-19.738 19.686zM191.949-21.555v711.475h1186.125v-711.475h-1186.125zM285.158 923.93h40.909v-25.6h-40.909v25.6zM1049.344 799.693c0-18.748-15.198-33.946-33.946-33.946s-33.946 15.198-33.946 33.946c0 18.748 15.198 33.946 33.946 33.946s33.946-15.198 33.946-33.946zM1165.696 799.693c0-18.748-15.198-33.946-33.946-33.946s-33.946 15.198-33.946 33.946c0 18.748 15.198 33.946 33.946 33.946s33.946-15.198 33.946-33.946zM1282.048 799.693c0 18.714-15.258 33.92-33.92 33.92-18.714 0-33.971-15.206-33.971-33.92 0-18.739 15.258-33.946 33.971-33.946 18.662 0 33.92 15.206 33.92 33.946zM411.187 147.046h733.389v403.661h-733.389v-403.661zM436.787 525.107h682.189v-352.461h-682.189v352.461zM532.378 229.376h146.816v90.394h-146.816v-90.394zM557.978 294.17h95.616v-39.194h-95.616v39.194zM1031.091 467.456l-15.565-15.565-14.95 14.95-18.099-18.099 14.95-14.95-14.336-14.336 18.099-18.099 14.336 14.336 14.95-14.976 18.099 18.125-14.95 14.95 15.565 15.565z" />
<glyph unicode="&#xe914;" glyph-name="PowerPack-Blue" horiz-adv-x="4374" d="M461.68 569.693c81.92 9.848 152.069-49.64 143.705-139.417-5.905-63.411-57.019-106.85-110.984-112.41-76.044-7.857-150.873 48.626-142.288 140.862 5.608 60.205 51.736 104.036 109.568 110.965zM497.233 935.405c0-0.488 0-0.957 0-1.426 81.681-18.93 148.021-65.641 214.877-105.29 65.182-38.673 145.58-73.623 183.545-125.206 44.97-61.143 32.73-202.379 32.73-308.798 0-51.248 1.282-96.706-5.694-138.001-14.46-85.471-74.484-117.31-138.029-155.103-30.892-18.394-62.34-36.845-92.466-54.081-63.679-36.366-122.823-76.178-199.221-93.902-9.474 0-18.968 0-28.471 0-42.319 8.431-77.068 24.413-108.123 44.099 0 58.368 0 116.698 0 175.027 31.725-11.369 59.957-21.877 98.189-24.174 88.935-5.398 158.902 22.471 207.728 61.162 48.76 38.663 89.557 94.897 105.3 163.649 38.606 168.778-58.464 299.831-176.434 347.193-71.9 28.844-162.060 24.174-224.83-1.426-91.902-37.496-163.821-115.205-180.712-223.385-5.962-38.194-2.842-82.446-2.842-130.928 0-87.652 0-180.741 0-267.484-46.989 29.122-98.83 51.181-126.631 96.744-32.175 52.693-27.055 142.709-27.055 223.395 0 72.924-7.493 176.319 9.972 240.477 21.303 78.303 119.913 120.909 187.813 160.778 75.518 44.338 151.772 94.945 234.802 116.679 11.848 0 23.724 0 35.553 0zM1092.053 253.899v385.12c0 23.016 12.862 35.878 36.548 35.878h153.648c92.725 0 144.164-63.622 144.164-138.757s-52.119-138.757-144.164-138.757h-122.507v-143.484c0-18.279-14.891-33.84-33.17-33.84-18.949 0-34.519 15.561-34.519 33.84zM1273.444 615.333h-113.702v-158.385h113.712c48.731 0 83.25 31.811 83.25 79.193s-34.529 79.193-83.26 79.193zM1464.98 387.239c0 94.084 63.622 171.247 165.151 171.247 102.209 0 165.151-77.164 165.151-171.247 0-94.753-62.943-171.917-165.151-171.917-101.529 0-165.151 77.154-165.151 171.917zM1731.651 387.239c0 61.593-35.878 117.090-101.529 117.090-64.981 0-101.52-55.497-101.52-117.090 0-62.273 36.548-117.779 101.52-117.779 65.66 0 101.529 55.507 101.529 117.779zM2147.893 249.162l-72.417 225.385-72.417-225.385c-5.417-17.599-20.987-29.103-39.257-29.103-18.279 0-34.519 11.503-39.257 29.103l-83.93 265.321c-0.679 2.708-1.359 6.087-1.359 9.474 0 16.24 13.542 29.782 29.782 29.782 14.212 0 25.724-8.795 29.103-21.657l69.039-230.812 75.135 228.094c4.058 14.891 17.59 24.365 33.16 24.365 15.561 0 29.103-9.474 33.16-24.365l75.135-228.094 69.039 230.812c3.388 12.862 14.891 21.657 29.103 21.657 16.24 0 29.782-13.542 29.782-30.462 0-2.708-0.67-6.776-1.349-9.474l-83.93-264.642c-4.737-17.599-20.978-29.103-39.257-29.103s-33.849 11.503-39.266 29.103zM2519.471 558.477c98.141 0 159.055-76.484 159.055-162.452 0-18.269-12.862-29.103-35.869-29.103h-222.687c4.737-55.497 45.343-101.52 111.004-101.52 27.744 0 56.846 8.795 81.221 26.394 3.388 2.708 8.125 3.388 13.532 3.388 13.532 0 24.365-10.824 24.365-24.365 0-8.795-4.058-15.561-10.833-20.298-32.49-23.696-71.068-35.199-114.382-35.199-97.471 0-169.218 69.039-169.218 171.917 0 94.753 68.369 171.238 163.811 171.238zM2419.291 410.925h199.67c-1.359 43.314-30.462 97.462-99.491 97.462-65.66 0-96.801-52.789-100.18-97.462zM2926.917 526.666c0-14.212-10.833-26.394-31.811-29.103-27.074-2.708-64.981-22.337-79.193-46.702v-200.35c0-16.929-14.212-30.462-30.462-30.462-16.92 0-30.462 13.532-30.462 30.462v272.776c0 16.92 13.542 30.462 29.782 30.462 16.92 0 31.132-13.542 31.132-30.462v-23.016c18.279 24.365 44.003 44.673 67.689 52.119 7.436 2.029 12.173 3.388 17.59 3.388 17.599-0.010 25.734-13.542 25.734-29.112zM2985.113 253.899v385.12c0 23.016 12.862 35.878 36.548 35.878h153.648c92.725 0 144.164-63.622 144.164-138.757s-52.119-138.757-144.164-138.757h-122.516v-143.484c0-18.279-14.891-33.84-33.16-33.84-18.949 0-34.519 15.561-34.519 33.84zM3166.505 615.333h-113.712v-158.385h113.712c48.74 0 83.25 31.811 83.25 79.193s-34.51 79.193-83.25 79.193zM3636.903 444.095v-193.574c0-16.929-14.212-30.462-30.462-30.462s-30.462 13.532-30.462 30.462v9.474c-25.045-29.112-62.943-44.673-106.946-44.673-54.138 0-113.702 36.539-113.702 108.286 0 74.455 58.875 106.946 113.702 106.946 44.003 0 81.901-14.212 106.946-43.314v54.148c0 40.606-33.17 64.981-79.872 64.981-29.773 0-55.497-8.795-80.542-28.433-4.058-2.708-9.474-4.737-14.891-4.737-13.542 0-24.365 11.513-24.365 25.045 0 8.125 4.058 15.561 10.154 19.628 34.51 27.753 73.776 40.615 119.119 40.615 71.087-0.010 131.321-31.141 131.321-114.391zM3575.99 295.185v55.507c-18.269 24.365-50.080 37.228-83.93 37.228-44.003 0-75.135-26.394-75.135-64.971s31.132-64.981 75.135-64.981c33.849-0.010 65.66 12.853 83.93 37.218zM3880.548 558.477c46.712 0 79.193-14.891 104.237-37.907 5.417-4.737 9.474-12.862 9.474-20.308 0-15.561-12.173-27.753-27.074-27.753-7.436 0-13.532 2.708-18.269 6.776-18.949 17.599-39.936 25.045-65.651 25.045-64.301 0-105.587-49.41-105.587-117.090s41.285-117.779 105.587-117.779c25.724 0 46.702 7.446 65.651 25.045 4.067 4.067 10.833 6.766 17.599 6.766 15.571 0 27.744-12.173 27.744-27.074 0-8.125-4.058-16.24-9.474-20.978-25.035-23.007-57.526-37.898-104.237-37.898-98.811 0-166.491 73.776-166.491 171.917s67.68 171.238 166.491 171.238zM4348.239 250.521c0-16.929-12.862-30.462-29.782-30.462-9.474 0-17.599 2.699-23.696 10.154l-113.032 133.34-50.769-47.372v-65.651c0-16.929-14.212-30.462-31.132-30.462-16.24 0-29.782 13.532-29.782 30.462v397.293c0 16.92 13.542 30.462 30.462 30.462 16.24 0 30.462-13.542 30.462-30.462v-263.292l164.481 161.763c5.407 5.417 12.173 7.446 19.628 7.446 15.571 0 27.744-13.542 27.744-28.433 0-6.766-3.388-14.212-8.795-19.628l-107.616-104.917 114.382-129.952c4.737-5.407 7.446-13.523 7.446-20.289z" />
<glyph unicode="&#xe915;" glyph-name="PowerPack-grey" horiz-adv-x="4374" d="M461.68 569.693c81.92 9.848 152.069-49.64 143.705-139.417-5.905-63.411-57.019-106.85-110.984-112.41-76.044-7.857-150.873 48.626-142.288 140.862 5.608 60.205 51.736 104.036 109.568 110.965zM497.233 935.405c0-0.488 0-0.957 0-1.426 81.681-18.93 148.021-65.641 214.877-105.29 65.182-38.673 145.58-73.623 183.545-125.206 44.97-61.143 32.73-202.379 32.73-308.798 0-51.248 1.282-96.706-5.694-138.001-14.46-85.471-74.484-117.31-138.029-155.103-30.892-18.394-62.34-36.845-92.466-54.081-63.679-36.366-122.823-76.178-199.221-93.902-9.474 0-18.968 0-28.471 0-42.319 8.431-77.068 24.413-108.123 44.099 0 58.368 0 116.698 0 175.027 31.725-11.369 59.957-21.877 98.189-24.174 88.935-5.398 158.902 22.471 207.728 61.162 48.76 38.663 89.557 94.897 105.3 163.649 38.606 168.778-58.464 299.831-176.434 347.193-71.9 28.844-162.060 24.174-224.83-1.426-91.902-37.496-163.821-115.205-180.712-223.385-5.962-38.194-2.842-82.446-2.842-130.928 0-87.652 0-180.741 0-267.484-46.989 29.122-98.83 51.181-126.631 96.744-32.175 52.693-27.055 142.709-27.055 223.395 0 72.924-7.493 176.319 9.972 240.477 21.303 78.303 119.913 120.909 187.813 160.778 75.518 44.338 151.772 94.945 234.802 116.679 11.848 0 23.724 0 35.553 0zM1092.053 253.899v385.12c0 23.016 12.862 35.878 36.548 35.878h153.648c92.725 0 144.164-63.622 144.164-138.757s-52.119-138.757-144.164-138.757h-122.507v-143.484c0-18.279-14.891-33.84-33.17-33.84-18.949 0-34.519 15.561-34.519 33.84zM1273.444 615.333h-113.702v-158.385h113.712c48.731 0 83.25 31.811 83.25 79.193s-34.529 79.193-83.26 79.193zM1464.98 387.239c0 94.084 63.622 171.247 165.151 171.247 102.209 0 165.151-77.164 165.151-171.247 0-94.753-62.943-171.917-165.151-171.917-101.529 0-165.151 77.154-165.151 171.917zM1731.651 387.239c0 61.593-35.878 117.090-101.529 117.090-64.981 0-101.52-55.497-101.52-117.090 0-62.273 36.548-117.779 101.52-117.779 65.66 0 101.529 55.507 101.529 117.779zM2147.893 249.162l-72.417 225.385-72.417-225.385c-5.417-17.599-20.987-29.103-39.257-29.103-18.279 0-34.519 11.503-39.257 29.103l-83.93 265.321c-0.679 2.708-1.359 6.087-1.359 9.474 0 16.24 13.542 29.782 29.782 29.782 14.212 0 25.724-8.795 29.103-21.657l69.039-230.812 75.135 228.094c4.058 14.891 17.59 24.365 33.16 24.365 15.561 0 29.103-9.474 33.16-24.365l75.135-228.094 69.039 230.812c3.388 12.862 14.891 21.657 29.103 21.657 16.24 0 29.782-13.542 29.782-30.462 0-2.708-0.67-6.776-1.349-9.474l-83.93-264.642c-4.737-17.599-20.978-29.103-39.257-29.103s-33.849 11.503-39.266 29.103zM2519.471 558.477c98.141 0 159.055-76.484 159.055-162.452 0-18.269-12.862-29.103-35.869-29.103h-222.687c4.737-55.497 45.343-101.52 111.004-101.52 27.744 0 56.846 8.795 81.221 26.394 3.388 2.708 8.125 3.388 13.532 3.388 13.532 0 24.365-10.824 24.365-24.365 0-8.795-4.058-15.561-10.833-20.298-32.49-23.696-71.068-35.199-114.382-35.199-97.471 0-169.218 69.039-169.218 171.917 0 94.753 68.369 171.238 163.811 171.238zM2419.291 410.925h199.67c-1.359 43.314-30.462 97.462-99.491 97.462-65.66 0-96.801-52.789-100.18-97.462zM2926.917 526.666c0-14.212-10.833-26.394-31.811-29.103-27.074-2.708-64.981-22.337-79.193-46.702v-200.35c0-16.929-14.212-30.462-30.462-30.462-16.92 0-30.462 13.532-30.462 30.462v272.776c0 16.92 13.542 30.462 29.782 30.462 16.92 0 31.132-13.542 31.132-30.462v-23.016c18.279 24.365 44.003 44.673 67.689 52.119 7.436 2.029 12.173 3.388 17.59 3.388 17.599-0.010 25.734-13.542 25.734-29.112zM2985.113 253.899v385.12c0 23.016 12.862 35.878 36.548 35.878h153.648c92.725 0 144.164-63.622 144.164-138.757s-52.119-138.757-144.164-138.757h-122.516v-143.484c0-18.279-14.891-33.84-33.16-33.84-18.949 0-34.519 15.561-34.519 33.84zM3166.505 615.333h-113.712v-158.385h113.712c48.74 0 83.25 31.811 83.25 79.193s-34.51 79.193-83.25 79.193zM3636.903 444.095v-193.574c0-16.929-14.212-30.462-30.462-30.462s-30.462 13.532-30.462 30.462v9.474c-25.045-29.112-62.943-44.673-106.946-44.673-54.138 0-113.702 36.539-113.702 108.286 0 74.455 58.875 106.946 113.702 106.946 44.003 0 81.901-14.212 106.946-43.314v54.148c0 40.606-33.17 64.981-79.872 64.981-29.773 0-55.497-8.795-80.542-28.433-4.058-2.708-9.474-4.737-14.891-4.737-13.542 0-24.365 11.513-24.365 25.045 0 8.125 4.058 15.561 10.154 19.628 34.51 27.753 73.776 40.615 119.119 40.615 71.087-0.010 131.321-31.141 131.321-114.391zM3575.99 295.185v55.507c-18.269 24.365-50.080 37.228-83.93 37.228-44.003 0-75.135-26.394-75.135-64.971s31.132-64.981 75.135-64.981c33.849-0.010 65.66 12.853 83.93 37.218zM3880.548 558.477c46.712 0 79.193-14.891 104.237-37.907 5.417-4.737 9.474-12.862 9.474-20.308 0-15.561-12.173-27.753-27.074-27.753-7.436 0-13.532 2.708-18.269 6.776-18.949 17.599-39.936 25.045-65.651 25.045-64.301 0-105.587-49.41-105.587-117.090s41.285-117.779 105.587-117.779c25.724 0 46.702 7.446 65.651 25.045 4.067 4.067 10.833 6.766 17.599 6.766 15.571 0 27.744-12.173 27.744-27.074 0-8.125-4.058-16.24-9.474-20.978-25.035-23.007-57.526-37.898-104.237-37.898-98.811 0-166.491 73.776-166.491 171.917s67.68 171.238 166.491 171.238zM4348.239 250.521c0-16.929-12.862-30.462-29.782-30.462-9.474 0-17.599 2.699-23.696 10.154l-113.032 133.34-50.769-47.372v-65.651c0-16.929-14.212-30.462-31.132-30.462-16.24 0-29.782 13.532-29.782 30.462v397.293c0 16.92 13.542 30.462 30.462 30.462 16.24 0 30.462-13.542 30.462-30.462v-263.292l164.481 161.763c5.407 5.417 12.173 7.446 19.628 7.446 15.571 0 27.744-13.542 27.744-28.433 0-6.766-3.388-14.212-8.795-19.628l-107.616-104.917 114.382-129.952c4.737-5.407 7.446-13.523 7.446-20.289z" />
<glyph unicode="&#xe916;" glyph-name="advanced-menu" horiz-adv-x="1291" d="M0 280.576h162.148v-22.261h-162.148v22.261zM285.674 280.576h1050.802v-22.261h-1050.802v22.261zM0 960h162.148v-22.261h-162.148v22.261zM285.674 960h1050.802v-22.261h-1050.802v22.261zM285.674 612.575h1050.802v-22.261h-1050.802v22.261zM285.674-28.271h1050.802v-22.261h-1050.802v22.261z" />
<glyph unicode="&#xe917;" glyph-name="countdown" horiz-adv-x="1536" d="M158.31 489.677c-6.63-19.763-9.933-41.472-9.933-65.075 0-17.408 2.278-34.278 6.886-50.637 3.533-12.058 7.654-21.734 12.339-29.005 6.528-9.933 14.003-17.562 22.426-22.912 8.448-5.325 17.894-8.013 28.365-8.013 9.165 0 17.69 2.176 25.472 6.502 7.808 4.326 14.771 10.163 20.915 17.562s11.034 16.819 14.643 28.339c6.093 18.79 9.114 39.040 9.114 60.723 0 23.731-3.584 45.542-10.726 65.536-5.12 14.541-13.184 26.112-24.115 34.688s-22.707 12.928-35.302 12.928c-12.39 0-24.141-4.352-35.226-13.056-11.136-8.73-19.43-21.222-24.858-37.581zM198.989 505.6c1.382 9.472 4.045 16.051 8.013 19.789 2.662 2.586 6.298 3.84 10.88 3.84 5.99 0 10.291-1.715 12.979-5.12 4.045-5.248 6.605-15.283 7.68-30.131 0.435-6.298 0.64-28.467 0.64-66.509l-0.64-68.89c-0.64-12.467-3.2-21.734-7.68-27.699-2.688-3.43-6.682-5.12-12.032-5.12-4.915 0-8.858 1.28-11.853 3.84-2.995 2.534-5.299 7.603-6.912 15.206-2.125 10.47-3.2 31.078-3.2 61.824 0.051 56.576 0.742 89.523 2.125 98.97zM328.858 399.309c-6.784-8.781-10.163-18.944-10.163-30.592 0-15.283 5.862-28.211 17.613-38.784s28.365-15.872 49.843-15.872c22.63 0 40.576 6.067 53.76 18.202s19.789 26.931 19.789 44.467c0 12.467-2.97 23.578-8.909 33.229-5.914 9.702-16.512 20.096-31.795 31.36 12.698 6.272 22.067 13.338 28.109 21.222 6.042 7.834 9.062 16.87 9.062 27.162 0 13.67-5.581 25.395-16.742 35.174-11.187 9.754-27.11 14.643-47.821 14.643-21.478 0-38.374-5.555-50.688-16.589-12.365-11.034-18.534-23.834-18.534-38.349 0-11.008 2.432-20.685 7.296-29.005 4.864-8.346 15.898-19.072 33.075-32.205-15.821-7.27-27.11-15.309-33.894-24.064zM372.685 521.805c5.043 5.146 11.136 7.782 18.278 7.782 7.885 0 14.106-2.816 18.586-8.499 5.99-7.373 8.986-18.022 8.986-31.898 0-7.885-0.973-15.181-2.893-21.786-1.92-6.63-4.864-12.595-8.806-17.946-16.538 10.803-27.648 20.378-33.254 28.749-5.606 8.397-8.422 16.486-8.422 24.294 0 7.654 2.509 14.106 7.526 19.302zM361.958 391.117c1.69 7.142 3.635 12.595 5.76 16.358 1.382 2.483 3.738 5.171 7.066 8.166 27.853-18.79 41.805-38.554 41.805-59.29 0-9.933-2.662-17.741-8.013-23.45-5.325-5.734-11.904-8.576-19.712-8.576-4.992 0-9.882 1.51-14.643 4.48s-8.397 7.885-10.982 14.669c-2.56 6.784-3.84 15.206-3.84 25.216 0 7.808 0.845 15.283 2.56 22.426zM513.587 322.33c5.171-5.197 11.469-7.782 18.816-7.782 7.373 0 13.696 2.586 18.918 7.782 5.248 5.171 7.859 11.418 7.859 18.79s-2.586 13.696-7.782 18.918c-5.171 5.222-11.494 7.859-18.995 7.859-7.347 0-13.645-2.637-18.816-7.859-5.197-5.222-7.782-11.546-7.782-18.918s2.611-13.619 7.782-18.79zM532.582 419.507c7.373 0 13.645 2.586 18.816 7.757 5.197 5.197 7.782 11.469 7.782 18.842s-2.586 13.645-7.782 18.79c-5.171 5.197-11.443 7.808-18.816 7.808s-13.645-2.611-18.816-7.808c-5.197-5.146-7.782-11.418-7.782-18.79s2.586-13.645 7.782-18.842c5.171-5.197 11.443-7.757 18.816-7.757zM601.626 322.074v-3.533h127.846l12.186 62.797h-5.786c-3.635-7.373-6.554-12.211-8.806-14.49-2.253-2.304-5.12-3.917-8.576-4.864-3.482-0.973-10.982-1.459-22.502-1.459h-46.925c36.301 35.354 59.853 62.899 70.656 82.662 7.885 14.643 11.853 29.056 11.853 43.238 0 7.808-2.56 16.179-7.706 25.088-5.12 8.909-12.237 15.923-21.299 21.043-9.062 5.146-19.149 7.706-30.131 7.706-15.386 0-28.928-4.89-40.704-14.746-11.725-9.805-20.48-24.986-26.266-45.491l5.914-2.048c9.088 16.461 21.862 24.653 38.323 24.653 10.035 0 18.509-3.712 25.472-11.136 6.938-7.424 10.419-16.717 10.419-27.93 0-15.411-4.198-31.155-12.57-47.283s-32.205-47.539-71.398-94.208zM844.339 328.32c-9.062 0-18.816 4.25-29.235 12.723-10.445 8.499-16.486 13.184-18.202 14.054-3.098 1.485-6.426 2.202-9.933 2.202-4.608 0-8.653-1.715-12.186-5.197-3.533-3.456-5.299-7.654-5.299-12.57 0-6.733 3.072-12.237 9.139-16.512 8.448-6.067 21.837-9.114 40.218-9.114 27.571 0 49.536 7.936 65.92 23.808 16.435 15.872 24.602 35.098 24.602 57.779 0 13.414-3.277 24.627-9.856 33.562s-16.102 16.435-28.595 22.528c9.728 5.658 16.845 12.186 21.376 19.61 4.557 7.424 6.835 15.155 6.835 23.142 0 12.288-4.89 23.040-14.643 32.23-9.779 9.165-22.195 13.773-37.274 13.773-14.72 0-28.134-4.506-40.115-13.44-12.006-9.011-21.862-22.374-29.568-40.243l5.939-2.048c10.445 15.795 23.142 23.706 38.118 23.706 9.626 0 17.638-3.149 24.115-9.523 6.451-6.374 9.702-13.978 9.702-22.835 0-6.426-1.715-12.749-5.146-18.995s-7.475-10.906-12.186-13.952c-4.71-3.021-13.158-6.323-25.293-9.856v-5.606c19.738-4.71 34.739-13.235 45.005-25.549s15.411-25.83 15.411-40.474c0-9.6-2.842-17.536-8.499-23.782s-12.442-9.421-20.352-9.421zM970.675 322.33c5.197-5.197 11.469-7.782 18.816-7.782 7.373 0 13.696 2.586 18.918 7.782 5.222 5.171 7.834 11.418 7.834 18.79s-2.586 13.696-7.757 18.918-11.494 7.859-18.995 7.859c-7.347 0-13.619-2.637-18.816-7.859-5.171-5.222-7.757-11.546-7.757-18.918s2.586-13.619 7.757-18.79zM989.67 419.507c7.373 0 13.645 2.586 18.816 7.757 5.171 5.197 7.757 11.469 7.757 18.842s-2.586 13.645-7.757 18.79c-5.171 5.197-11.443 7.808-18.816 7.808s-13.619-2.611-18.816-7.808c-5.197-5.146-7.782-11.418-7.782-18.79s2.586-13.645 7.782-18.842c5.197-5.197 11.443-7.757 18.816-7.757zM1162.086 540.314l-103.194-139.878v-33.178h78.669v-48.691h44.083v48.691h19.84v33.178h-19.84v139.878h-19.558zM1137.536 400.435h-63.078l63.104 85.734v-85.734zM1356.902 494.515l16.179 41.293h-101.734l-38.938-109.594c5.786 0.102 10.138 0.205 13.005 0.205 28.595 0 52.326-5.888 71.117-17.638s28.237-27.034 28.237-45.824c0-8.986-3.098-16.64-9.216-23.066-6.144-6.4-13.594-9.6-22.349-9.6-4.173 0-7.936 0.64-11.213 1.894-4.71 1.715-10.291 4.813-16.819 9.293-10.342 7.27-17.664 11.776-21.939 13.466s-8.499 2.56-12.672 2.56c-4.582 0-8.602-1.741-12.083-5.274s-5.197-7.603-5.197-12.186c0-5.99 3.302-11.315 9.933-16.026 9.498-6.63 23.117-9.958 40.858-9.958 16.461 0 31.565 3.456 45.338 10.317 13.773 6.938 24.474 16.717 32.026 29.491 7.603 12.749 11.366 25.83 11.366 39.168 0 20.838-8.141 38.246-24.499 52.25-19.84 16.973-48.23 26.138-85.069 27.546l8.166 21.658h85.504zM1515.341 659.379h-1270.502v-25.242h1263.898v-416.87h-1481.421v416.87h81.69v25.242h-88.32c-10.266 0-18.611-8.371-18.611-18.637v-430.131c0-10.266 8.346-18.611 18.611-18.611h1494.682c10.266 0 18.662 8.32 18.662 18.611v430.131c-0.026 10.266-8.397 18.637-18.688 18.637zM141.926 659.379h76.416v-25.242h-76.416v25.242z" />
<glyph unicode="&#xe918;" horiz-adv-x="1317" d="M0 960h1316.571v-1024h-1316.571v1024z" />
<glyph unicode="&#xe919;" horiz-adv-x="1317" d="M1258.467 960h-43.037v-29.257h35.313v-485.2h-612.235v404.714h-29.257v-841.348h-548.103v921.834h548.103v-56.086h29.257v56.086h535.786v29.257h-1120.812c-11.908 0-21.592-9.684-21.592-21.563v-937.194c0-11.878 9.684-21.563 21.592-21.563h1204.985c11.878 0 21.533 9.684 21.533 21.563v937.194c0 11.878-9.655 21.563-21.533 21.563zM638.508 416.285h276.129v-407.376h-276.129v407.376zM943.894 8.909v407.376h306.849v-407.376h-306.849z" />
<glyph unicode="&#xe91a;" horiz-adv-x="1317" d="M0 960h1316.571v-1024h-1316.571v1024z" />
<glyph unicode="&#xe91b;" horiz-adv-x="1317" d="M1276.401 938.086h-43.037v-29.257h35.313v-485.2h-612.206v404.714h-29.257v-841.348h-548.133v921.834h548.103v-56.086h29.257v56.086h535.786v29.257h-1120.812c-11.908 0-21.592-9.684-21.592-21.563v-937.223c0-11.878 9.684-21.563 21.592-21.563h1204.985c11.878 0 21.533 9.684 21.533 21.563v937.223c0 11.878-9.655 21.563-21.533 21.563zM656.472-13.005v407.376h612.235v-407.376h-612.235z" />
<glyph unicode="&#xe91c;" horiz-adv-x="1317" d="M0 960h1316.571v-1024h-1316.571v1024z" />
<glyph unicode="&#xe91d;" glyph-name="pricing-menu" horiz-adv-x="1536" d="M220.006 462.746h108.979v-25.6h-108.979v25.6zM412.032 462.746h953.293v-25.6h-953.293v25.6zM220.006 919.475h108.979v-25.6h-108.979v25.6zM412.032 919.475h953.293v-25.6h-953.293v25.6zM220.006 6.016h108.979v-25.6h-108.979v25.6zM412.032 6.016h953.293v-25.6h-953.293v25.6z" />
<glyph unicode="&#xe91e;" glyph-name="pricing-table" horiz-adv-x="1536" d="M722.867 921.6h-42.061v-25.6h36.019v-903.859h-507.955v903.859h383.13v25.6h-389.12c-10.803 0-19.61-8.781-19.61-19.584v-915.891c0-10.803 8.806-19.584 19.61-19.584h519.987c10.778 0 19.558 8.781 19.558 19.584v915.891c0 10.803-8.781 19.584-19.558 19.584zM606.413 921.6h56.806v-25.6h-56.806v25.6zM412.032 774.886l-58.854-26.88 2.125-4.25c5.709 2.483 10.598 3.763 14.618 3.763 2.509 0 4.736-0.64 6.656-1.946 1.92-1.28 3.251-2.867 3.942-4.71 0.717-1.843 1.075-6.477 1.075-13.875v-82.918c0-10.061-0.512-16.486-1.536-19.226s-2.995-4.915-5.888-6.477c-2.918-1.587-7.782-2.355-14.618-2.355h-4.275v-4.352h84.224v4.352h-3.661c-6.042 0-10.47 0.87-13.21 2.611-2.739 1.715-4.557 3.942-5.427 6.656s-1.306 8.986-1.306 18.816v130.816h-3.866zM503.501 624.845c-9.088-5.837-20.147-10.214-33.203-13.21v-3.302c21.786 0.794 40.653 5.837 56.602 15.155 15.974 9.318 27.981 21.683 36.045 37.094s12.083 31.539 12.083 48.358c0 12.979-2.483 24.525-7.424 34.688-4.966 10.138-11.597 17.894-19.942 23.245s-17.178 8.013-26.547 8.013c-8.73 0-17.152-2.406-25.242-7.245s-14.336-11.648-18.688-20.403c-4.378-8.781-6.554-18.432-6.554-28.954 0-15.181 4.019-27.136 12.083-35.866s18.15-13.082 30.259-13.082c3.763 0 7.373 0.486 10.778 1.485 3.43 0.973 7.578 2.714 12.442 5.248-2.125-11.162-5.837-21.043-11.162-29.594-5.248-8.627-12.442-15.821-21.53-21.632zM525.85 682.163c-5.734 0-10.291 2.662-13.67 8.013-5.197 8.243-7.782 23.27-7.782 45.056 0 13.056 1.536 21.888 4.608 26.547 2.202 3.379 5.274 5.069 9.19 5.069 3.149 0 5.709-0.87 7.654-2.611 3.712-3.226 6.477-8.243 8.371-15.104 3.302-12.339 4.966-25.677 4.966-39.987 0-6.682-0.41-14.413-1.178-23.245-5.043-2.483-9.088-3.738-12.16-3.738zM434.79 535.347c0.41 0.922 0.973 1.587 1.664 1.971 0.998 0.589 2.33 0.896 4.019 0.896h1.843v1.562h-23.117l-15.411-37.453-15.949 37.453h-23.219v-1.562h1.792c1.613 0 2.867-0.282 3.814-0.819s1.587-1.178 1.894-1.894c0.307-0.691 0.461-2.509 0.461-5.376v-35.942c0-2.534-0.026-3.968-0.077-4.275-0.307-1.306-0.742-2.33-1.306-3.046-0.538-0.717-1.382-1.306-2.458-1.741s-2.253-0.64-3.533-0.614h-0.589v-1.562h19.43v1.562c-2.611 0-4.506 0.435-5.709 1.331-1.203 0.87-2.022 2.022-2.381 3.405-0.128 0.64-0.205 2.355-0.205 5.146v40.013l22.118-51.43h0.998l21.786 51.814v-42.112c0-2.842-0.154-4.608-0.461-5.274-0.435-0.947-0.973-1.613-1.664-2.022-1.024-0.589-2.355-0.87-4.019-0.87h-1.843v-1.562h29.645v1.562h-1.843c-1.613 0-2.867 0.282-3.814 0.819s-1.587 1.178-1.894 1.92c-0.307 0.717-0.461 2.534-0.461 5.427v37.453c0.026 2.79 0.179 4.557 0.486 5.222zM453.555 517.018c-3.251-4.173-4.864-9.062-4.864-14.694 0-5.427 1.587-10.214 4.787-14.362s7.731-6.195 13.619-6.195c5.99 0 10.701 2.253 14.106 6.784 2.816 3.738 4.25 8.397 4.25 13.952 0 3.84-0.768 7.398-2.278 10.65s-3.738 5.734-6.682 7.501c-2.918 1.741-6.093 2.637-9.498 2.637-5.734 0-10.163-2.099-13.44-6.272zM469.965 519.424c1.050-0.794 1.818-2.099 2.355-3.866s0.794-5.043 0.794-9.779c0-8.064-0.282-13.414-0.845-16.077-0.358-1.69-1.075-3.021-2.176-3.968-0.845-0.691-1.894-1.050-3.149-1.050-1.28 0-2.432 0.538-3.43 1.562-0.998 1.050-1.664 2.56-1.971 4.531-0.41 2.611-0.589 5.376-0.589 8.371 0 5.658 0.154 10.061 0.486 13.235s0.998 5.299 2.022 6.374c1.024 1.075 2.227 1.613 3.661 1.613 1.152-0.051 2.099-0.358 2.842-0.947zM518.758 486.298c-0.64-1.050-1.69-1.638-3.174-1.843v-1.51h19.789v1.51c-1.715 0.179-2.867 0.666-3.405 1.408s-0.819 2.611-0.819 5.632v15.232c0 4.531-0.23 7.578-0.666 9.165-0.538 2.099-1.664 3.84-3.354 5.274-1.664 1.408-3.763 2.125-6.323 2.125-2.125 0-4.096-0.512-5.939-1.485-1.843-0.998-3.763-2.586-5.786-4.762v5.069h-15.949v-1.562c1.715-0.23 2.867-0.691 3.405-1.434 0.538-0.717 0.819-2.586 0.819-5.53v-22.118c0-3.021-0.23-4.838-0.717-5.453-0.691-0.896-1.869-1.434-3.507-1.587v-1.51h19.789v1.51c-1.485 0.179-2.483 0.666-3.021 1.459-0.538 0.768-0.819 2.637-0.819 5.581v20.966c2.074 3.43 4.301 5.146 6.707 5.146 0.717 0 1.382-0.23 1.997-0.691s1.050-1.101 1.28-1.946 0.384-2.867 0.384-6.067v-17.408c-0.026-2.739-0.23-4.48-0.691-5.171zM545.408 493.798c-1.357-1.382-2.022-3.021-2.022-4.941s0.666-3.558 2.022-4.915c1.357-1.357 2.995-2.048 4.915-2.048s3.584 0.666 4.941 2.048c1.382 1.357 2.048 2.995 2.048 4.915 0 1.946-0.666 3.584-2.022 4.941s-3.021 2.048-4.966 2.048c-1.92 0-3.558-0.691-4.915-2.048zM350.259 342.656h157.261v-25.6h-157.261v25.6zM521.805 342.656h53.632v-25.6h-53.632v25.6zM394.266 87.091h119.731c23.194 0 42.010 18.816 42.010 41.984 0 23.194-18.79 42.035-42.010 42.035h-119.731c-23.194 0-42.010-18.816-42.010-42.035 0.026-23.142 18.816-41.984 42.010-41.984zM1337.267 921.6h-42.061v-25.6h35.994v-903.859h-507.93v903.859h383.155v25.6h-389.12c-10.854 0-19.635-8.781-19.635-19.584v-915.891c0-10.803 8.806-19.584 19.635-19.584h519.987c10.778 0 19.558 8.781 19.558 19.584v915.891c-0.051 10.803-8.806 19.584-19.584 19.584zM1220.813 921.6h56.806v-25.6h-56.806v25.6zM957.542 614.221v-2.611h94.131l8.986 46.234h-4.25c-2.662-5.427-4.813-8.986-6.477-10.675s-3.763-2.893-6.323-3.61c-2.56-0.691-8.064-1.075-16.563-1.075h-34.56c26.726 26.035 44.083 46.336 52.019 60.877 5.811 10.778 8.73 21.376 8.73 31.846 0 5.734-1.894 11.878-5.683 18.458-3.763 6.554-9.011 11.725-15.667 15.488-6.707 3.763-14.080 5.658-22.17 5.658-11.315 0-21.325-3.61-29.978-10.854s-15.104-18.406-19.354-33.51l4.378-1.536c6.682 12.109 16.077 18.15 28.211 18.15 7.373 0 13.619-2.739 18.739-8.192 5.094-5.453 7.68-12.314 7.68-20.582 0-11.315-3.098-22.938-9.267-34.79s-23.706-34.918-52.582-69.274zM1177.062 741.146l11.93 30.413h-74.931l-28.646-80.666c4.25 0.077 7.424 0.128 9.549 0.128 21.069 0 38.528-4.326 52.378-12.979s20.762-19.891 20.762-33.741c0-6.605-2.253-12.262-6.784-16.998-4.531-4.71-10.010-7.066-16.461-7.066-3.072 0-5.837 0.486-8.243 1.408-3.482 1.254-7.603 3.533-12.39 6.835-7.629 5.35-13.005 8.653-16.154 9.907s-6.246 1.894-9.318 1.894c-3.379 0-6.349-1.306-8.909-3.891-2.56-2.611-3.84-5.581-3.84-8.96 0-4.403 2.458-8.346 7.322-11.802 6.989-4.864 17.024-7.322 30.080-7.322 12.134 0 23.245 2.534 33.382 7.603s18.022 12.314 23.603 21.709c5.581 9.395 8.371 19.021 8.371 28.826 0 15.334-6.016 28.16-18.048 38.451-14.643 12.544-35.533 19.302-62.643 20.326l5.99 15.923h63.002zM1049.19 535.347c0.435 0.922 0.973 1.587 1.664 1.971 0.998 0.589 2.355 0.896 4.019 0.896h1.843v1.562h-23.117l-15.437-37.453-15.949 37.453h-23.194v-1.562h1.792c1.613 0 2.842-0.282 3.789-0.819s1.613-1.178 1.894-1.894c0.307-0.691 0.461-2.509 0.461-5.376v-35.942c0-2.534-0.026-3.968-0.077-4.275-0.307-1.306-0.742-2.33-1.306-3.046s-1.382-1.306-2.483-1.741c-1.075-0.435-2.253-0.64-3.533-0.614h-0.563v-1.562h19.43v1.562c-2.611 0-4.506 0.435-5.709 1.331-1.229 0.87-2.022 2.022-2.381 3.405-0.154 0.64-0.205 2.355-0.205 5.146v40.013l22.093-51.43h0.998l21.811 51.814v-42.112c0-2.842-0.179-4.608-0.486-5.274-0.435-0.947-0.973-1.613-1.664-2.022-0.998-0.589-2.355-0.87-4.019-0.87h-1.818v-1.562h29.645v1.562h-1.843c-1.613 0-2.842 0.282-3.789 0.819s-1.613 1.178-1.894 1.92-0.461 2.534-0.461 5.427v37.453c0.026 2.79 0.179 4.557 0.486 5.222zM1067.955 517.018c-3.251-4.173-4.864-9.062-4.864-14.694 0-5.427 1.613-10.214 4.787-14.362 3.2-4.147 7.731-6.195 13.619-6.195 5.99 0 10.701 2.253 14.106 6.784 2.816 3.738 4.25 8.397 4.25 13.952 0 3.84-0.768 7.398-2.304 10.65s-3.738 5.734-6.682 7.501c-2.918 1.741-6.093 2.637-9.498 2.637-5.683 0-10.138-2.099-13.414-6.272zM1084.365 519.424c1.050-0.794 1.818-2.099 2.355-3.866s0.794-5.043 0.794-9.779c0-8.064-0.282-13.414-0.845-16.077-0.358-1.69-1.075-3.021-2.176-3.968-0.819-0.691-1.869-1.050-3.123-1.050-1.306 0-2.432 0.538-3.456 1.562-0.998 1.050-1.638 2.56-1.946 4.531-0.41 2.611-0.589 5.376-0.589 8.371 0 5.658 0.179 10.061 0.486 13.235 0.333 3.174 0.998 5.299 2.022 6.374s2.227 1.613 3.661 1.613c1.126-0.051 2.074-0.358 2.816-0.947zM1133.158 486.298c-0.614-1.050-1.69-1.638-3.174-1.843v-1.51h19.789v1.51c-1.715 0.179-2.842 0.666-3.405 1.408s-0.819 2.611-0.819 5.632v15.232c0 4.531-0.23 7.578-0.666 9.165-0.538 2.099-1.664 3.84-3.354 5.274-1.664 1.408-3.763 2.125-6.323 2.125-2.099 0-4.096-0.512-5.914-1.485-1.843-0.998-3.763-2.586-5.811-4.762v5.069h-15.949v-1.562c1.715-0.23 2.867-0.691 3.43-1.434 0.538-0.717 0.794-2.586 0.794-5.53v-22.118c0-3.021-0.23-4.838-0.691-5.453-0.691-0.896-1.869-1.434-3.533-1.587v-1.51h19.789v1.51c-1.485 0.179-2.483 0.666-3.021 1.459-0.538 0.768-0.819 2.637-0.819 5.581v20.966c2.074 3.43 4.301 5.146 6.707 5.146 0.717 0 1.408-0.23 1.997-0.691s1.024-1.101 1.28-1.946 0.384-2.867 0.384-6.067v-17.408c-0.026-2.739-0.23-4.48-0.691-5.171zM1164.723 495.846c-1.92 0-3.584-0.691-4.915-2.048-1.357-1.382-2.022-3.021-2.022-4.941s0.666-3.558 2.022-4.915c1.357-1.357 2.995-2.048 4.915-2.048s3.584 0.666 4.941 2.048c1.382 1.357 2.048 2.995 2.048 4.915 0 1.946-0.666 3.584-2.022 4.941s-2.995 2.048-4.966 2.048zM964.659 342.656h157.261v-25.6h-157.261v25.6zM1136.205 342.656h53.632v-25.6h-53.632v25.6zM1008.666 87.091h119.757c23.194 0 42.010 18.816 42.010 41.984 0 23.194-18.79 42.035-42.010 42.035h-119.757c-23.194 0-42.010-18.816-42.010-42.035 0-23.142 18.79-41.984 42.010-41.984z" />
<glyph unicode="&#xe91f;" glyph-name="promo-box" horiz-adv-x="1536" d="M1355.853 943.744h-43.059v-26.47h36.762v-925.005h-1192.909v925.005h974.566v26.47h-980.813c-11.162 0-20.224-9.062-20.224-20.173v-937.574c0-11.136 9.062-20.173 20.224-20.173h1205.453c11.11 0 20.147 9.062 20.147 20.173v937.574c0 11.11-9.037 20.173-20.147 20.173zM1173.888 943.744h97.741v-26.47h-97.741v26.47zM472.781 519.706c-9.882 0-20.48 4.608-31.795 13.85-11.315 9.216-17.92 14.31-19.763 15.232-3.354 1.613-6.963 2.432-10.803 2.432-4.992 0-9.395-1.869-13.235-5.658-3.84-3.763-5.76-8.346-5.76-13.67 0-7.322 3.302-13.286 9.933-17.946 9.165-6.605 23.731-9.907 43.725-9.907 29.926 0 53.837 8.602 71.654 25.856 17.818 17.229 26.726 38.144 26.726 62.771 0 14.643-3.584 26.803-10.701 36.48s-17.51 17.869-31.078 24.474c10.573 6.144 18.304 13.261 23.245 21.325 4.915 8.064 7.398 16.461 7.398 25.165 0 13.363-5.325 25.037-15.949 34.995-10.624 9.984-24.115 14.976-40.474 14.976-16.026 0-30.566-4.89-43.648-14.643-13.056-9.728-23.757-24.32-32.102-43.725l6.426-2.253c11.392 17.178 25.19 25.779 41.446 25.779 10.445 0 19.2-3.456 26.214-10.368s10.547-15.181 10.547-24.806c0-6.963-1.869-13.85-5.581-20.634s-8.115-11.827-13.235-15.13c-5.094-3.302-14.285-6.886-27.52-10.701v-6.093c21.478-5.094 37.811-14.362 48.947-27.776 11.162-13.414 16.717-28.058 16.717-43.981 0-10.445-3.072-19.072-9.216-25.856-6.17-6.784-13.517-10.189-22.118-10.189zM629.35 512.922c9.165-5.811 19.456-8.704 30.822-8.704 9.984 0 19.2 2.355 27.699 7.040 8.474 4.71 16.051 11.059 22.733 19.072s12.006 18.304 15.949 30.822c6.63 20.429 9.933 42.445 9.933 65.997 0 25.779-3.917 49.51-11.674 71.219-5.581 15.77-14.31 28.339-26.214 37.709s-24.704 14.029-38.4 14.029c-13.466 0-26.24-4.736-38.323-14.208s-21.069-23.066-26.982-40.832c-7.194-21.478-10.803-45.030-10.803-70.707 0-18.918 2.509-37.274 7.501-55.014 3.814-13.133 8.294-23.629 13.414-31.514 7.040-10.803 15.155-19.098 24.346-24.909zM639.078 712.397c1.51 10.266 4.429 17.434 8.704 21.504 2.918 2.79 6.861 4.198 11.853 4.198 6.502 0 11.213-1.869 14.106-5.581 4.403-5.683 7.194-16.589 8.346-32.742 0.461-6.861 0.691-30.925 0.691-72.269l-0.691-74.88c-0.691-13.568-3.482-23.603-8.346-30.106-2.918-3.738-7.27-5.581-13.056-5.581-5.35 0-9.651 1.382-12.902 4.173-3.226 2.79-5.734 8.294-7.475 16.538-2.33 11.392-3.507 33.792-3.507 67.226 0.026 61.414 0.768 97.254 2.278 107.52zM839.501 499.174h23.347l167.706 251.443h-23.526zM839.859 750.618c-16.512 0-30.362-5.939-41.626-17.843-11.238-11.904-16.87-27.418-16.87-46.566 0-18.586 5.478-33.562 16.461-44.928 10.982-11.392 24.755-17.075 41.344-17.075 16.819 0 30.95 5.888 42.317 17.664s17.075 27.136 17.075 46.054c0 18.458-5.683 33.51-16.973 45.184-11.341 11.674-25.242 17.51-41.728 17.51zM851.84 646.835c-1.28-5.453-3.226-9.395-5.888-11.827-1.51-1.382-3.558-2.099-6.093-2.099-2.304 0-4.326 0.742-6.093 2.253-2.765 2.56-4.762 6.374-5.939 11.494-1.946 8.934-2.918 21.581-2.918 37.965 0 20.531 0.717 34.099 2.176 40.653s3.661 11.187 6.528 13.85c1.613 1.51 3.738 2.278 6.272 2.278s4.557-0.64 5.914-1.92c2.893-2.765 4.992-7.194 6.272-13.235 1.869-8.704 2.79-22.835 2.79-42.317 0-15.923-0.998-28.262-3.021-37.094zM971.494 562.714c0-18.586 5.658-33.792 16.973-45.619 11.341-11.853 25.062-17.766 41.165-17.766 16.282 0 30.157 5.914 41.651 17.766 11.469 11.827 17.229 27.213 17.229 46.157 0 18.662-5.658 33.792-16.973 45.363-11.315 11.546-25.395 17.331-42.214 17.331-16.512 0-30.259-5.862-41.267-17.613-11.034-11.699-16.563-26.906-16.563-45.619zM1017.498 601.472c1.485 6.349 3.635 10.752 6.426 13.338 1.613 1.382 3.61 2.099 5.914 2.099 2.662 0 4.71-0.64 6.093-1.92 2.765-2.432 4.864-6.682 6.246-12.723 1.843-8.371 2.765-21.606 2.765-39.706 0-17.178-0.973-30.003-2.944-38.477-1.382-6.042-3.533-10.394-6.451-13.056-1.408-1.28-3.174-1.92-5.402-1.92-2.432 0-4.403 0.691-5.914 2.099-3.021 2.662-5.146 6.963-6.426 12.877-1.715 8.346-2.611 22.042-2.611 41.088 0.026 17.869 0.794 29.978 2.304 36.301zM360.397 346.394h785.357v-243.917h-785.357v243.917z" />
<glyph unicode="&#xe920;" glyph-name="recipe" horiz-adv-x="1536" d="M1105.306 362.726h71.962v-33.382h-71.962v33.382zM1206.4 363.827l0.102-33.357 121.472 0.486-173.517-97.792-4.787-6.17h-139.264v-33.382h113.408l-25.856-33.408-663.757-2.022-30.054 35.43h514.509v33.382h-548.634l-176.384 96.333 896.154 5.427-0.23 33.357-1026.637-6.246 294.477-158.771 61.389-72.32 695.885 2.176 59.187 78.899 282.214 159.078zM760.883 455.347l19.405-27.136c19.891 14.208 87.347 128.717 26.982 216.934-47.437 69.402 16.614 179.072 17.28 180.173l-28.672 17.075c-3.149-5.222-75.648-129.050-16.102-216.090 46.925-68.608-7.296-161.126-18.893-170.957zM621.184 459.494l19.379-27.136c19.891 14.208 87.347 128.742 27.008 216.934-47.462 69.376 16.614 179.098 17.254 180.173l-28.672 17.101c-3.123-5.248-75.699-129.050-16.102-216.090 46.925-68.608-7.296-161.126-18.867-170.982zM915.2 444.928l19.43-27.162c19.891 14.234 87.322 128.768 26.982 216.934-47.488 69.402 16.589 179.098 17.28 180.173l-28.723 17.101c-3.098-5.248-75.622-129.075-16.051-216.090 46.899-68.608-7.322-161.152-18.918-170.957z" />
<glyph unicode="&#xe921;" glyph-name="table" horiz-adv-x="1536" d="M1372.467 932.966h-42.675v-26.138h36.48v-288.205h-596.454v288.23h411.955v26.112h-411.955v0.896h-26.112v-0.896h-566.426c-11.008 0-19.968-8.934-19.968-19.917v-929.613c0-11.008 8.96-19.942 19.968-19.942h1195.187c11.008 0 19.917 8.96 19.917 19.942v929.613c0.026 10.982-8.909 19.917-19.917 19.917zM743.731 618.65h-460.339v-26.112h460.339v-293.12h-560.307v293.12h70.938v26.112h-70.938v288.205h560.307v-288.205zM183.424-10.394v283.674h560.307v-245.658h26.112v245.683h500.224v26.138h-500.224v293.12h596.454v-293.12h-67.226v-26.138h67.2v-283.674h-1182.848zM1224.115 932.966h64.87v-26.138h-64.87v26.138z" />
<glyph unicode="&#xe922;" glyph-name="team-member-carousel" horiz-adv-x="1536" d="M898.406 524.826c17.408 16.307 27.238 38.886 27.238 62.925v135.398c0 81.203-66.048 147.251-147.226 147.251h-29.184c-81.178 0-147.226-66.074-147.226-147.251v-135.398c0-24.038 9.882-46.643 27.29-62.925v-106.522c-31.667-16.154-111.565-59.546-186.778-121.446-20.941-17.357-32.973-42.957-32.973-70.298v-92.8h25.754v92.8c0 19.661 8.627 37.99 23.603 50.458 79.642 65.536 164.787 109.798 188.979 121.856l7.168 3.558v134.4l-4.787 3.866c-14.31 11.571-22.502 28.723-22.502 47.053v135.398c0 66.995 54.477 121.498 121.472 121.498h29.184c66.97 0 121.498-54.502 121.498-121.498v-135.398c0-18.355-8.192-35.507-22.477-47.053l-4.787-3.866v-134.426l7.117-3.558c8.96-4.454 27.571-14.003 51.814-28.006l12.877 22.349c-19.61 11.29-35.661 19.789-46.080 25.088v106.547zM976.384 374.144l-13.594-21.888c39.142-24.294 74.829-49.638 106.010-75.264 15.155-12.416 23.757-30.746 23.578-50.432v-92.8h25.779v92.698c0.23 27.392-11.802 53.043-32.998 70.426-32.077 26.368-68.685 52.378-108.774 77.261zM763.93 339.149c-5.811 0-11.136 1.024-16.333 2.483l-13.184-292.941 30.976-27.878 30.157 27.085-12.57 294.579c-5.99-2.074-12.39-3.328-19.046-3.328zM355.738 500.070c-6.938 4.736-11.11 12.339-11.11 20.378v110.182c0 40.781 33.152 73.933 73.933 73.933h23.757c40.781 0 73.984-33.152 73.984-73.933v-110.157c0-8.243-4.070-15.821-10.803-20.198-7.142-4.557-11.597-12.672-11.597-21.197v-87.219h25.754l-0.23 86.758c14.157 9.19 22.605 24.858 22.605 41.856v110.157c0 54.963-44.749 99.712-99.738 99.712h-23.757c-54.963 0-99.712-44.749-99.712-99.712v-110.157c0-16.563 8.371-32.154 22.349-41.395v-106.214c0-1.69-0.947-3.2-2.483-3.942-10.624-5.222-48.768-24.525-93.235-53.862l-10.829-7.245c-5.12-3.507-10.342-7.142-15.642-10.931l-9.37-6.886c-9.293-6.912-18.637-14.131-27.776-21.632-12.518-10.086-19.712-25.267-19.712-41.677v-20.48h25.779v20.48c0 8.576 3.686 16.461 10.189 21.683 8.909 7.322 17.894 14.31 26.803 20.89l9.088 6.656c5.069 3.635 10.138 7.168 15.181 10.598l10.445 7.014c43.213 28.518 80.102 47.181 90.317 52.198 10.47 5.069 16.973 15.462 16.973 27.136v106.214c0.077 8.525-4.326 16.64-11.162 20.992zM162.176 174.925h25.779v-23.68h-25.779v23.68zM1199.283 368.922c-1.51 0.717-2.458 2.227-2.458 3.917l-0.051 105.907c14.029 9.549 22.4 25.114 22.4 41.702v110.182c0 54.963-44.723 99.712-99.738 99.712h-23.757c-54.989 0-99.738-44.749-99.738-99.712v-110.157c0-17.024 8.448-32.64 22.4-41.395v-87.219h25.754v87.219c0 8.525-4.429 16.614-11.494 21.146-6.81 4.429-10.88 11.981-10.88 20.25v110.157c0 40.781 33.178 73.933 73.984 73.933h23.757c40.806 0 73.984-33.152 73.984-73.933v-110.157c0-8.013-4.173-15.642-10.829-20.198-7.117-4.531-11.52-12.672-11.52-21.197v-106.214c0-11.674 6.502-22.067 16.896-27.085 19.533-9.626 88.166-45.030 152.013-97.51 6.426-5.146 10.112-13.030 10.112-21.606v-75.418h25.754v75.418c0 16.435-7.168 31.616-19.61 41.6-65.894 54.17-136.755 90.701-156.979 100.659zM1505.51 380.8l-67.584 67.558c-3.942 3.994-10.854 4.019-14.822 0.026-2.022-1.997-3.098-4.634-3.098-7.45 0-2.79 1.101-5.427 3.098-7.398l60.134-60.134-60.109-60.16c-2.022-1.971-3.123-4.634-3.123-7.45 0-2.79 1.101-5.427 2.944-7.245 1.946-2.074 4.71-3.277 7.552-3.277 2.918 0 5.734 1.28 7.347 3.123l67.61 67.558c1.997 1.946 3.098 4.582 3.098 7.398 0.026 2.816-1.050 5.453-3.046 7.45zM130.15 440.96c0 2.816-1.075 5.453-2.995 7.347-3.917 4.070-11.418 3.789-14.874 0.077l-67.61-67.558c-1.971-1.971-3.072-4.608-3.072-7.424 0-2.79 1.075-5.453 3.046-7.424l67.584-67.584c1.971-1.971 4.608-3.098 7.45-3.098 2.79 0 5.427 1.101 7.424 3.098 4.070 4.096 4.070 10.752 0 14.797l-60.186 60.186 60.16 60.134c1.997 1.971 3.072 4.634 3.072 7.45z" />
<glyph unicode="&#xe923;" glyph-name="team-member" horiz-adv-x="1536" d="M626.534 122.854l-12.672 25.702-12.621-25.702-28.339-4.122 20.48-19.968-4.838-28.16 25.318 13.312 25.267-13.312-4.787 28.16 20.531 19.968zM745.242 98.765l-4.787-28.16 25.293 13.312 25.242-13.312-4.762 28.16 20.531 19.968-28.314 4.122-12.698 25.702-12.621-25.702-28.365-4.122zM938.112 98.765l20.506 19.968-28.339 4.122-12.646 25.702-12.595-25.702-28.365-4.122 20.48-19.968-4.838-28.16 25.318 13.312 25.242-13.312zM876.39 610.406l-5.53-4.506v-131.302l8.294-4.147c8.781-4.378 26.496-13.466 49.28-26.598l15.053 26.035c-17.766 10.214-32.538 18.074-42.598 23.27v98.765c16.589 15.974 26.035 37.888 26.035 61.21v129.203c0 78.976-64.282 143.232-143.258 143.232h-27.827c-78.976 0-143.232-64.256-143.232-143.232v-129.178c0-23.296 9.421-45.235 26.035-61.21v-98.765c-31.232-16-106.317-57.114-177.178-115.405-20.634-17.075-32.461-42.291-32.461-69.222v-88.55h30.054v88.55c0 17.946 7.859 34.714 21.53 45.978 75.802 62.413 156.774 104.525 179.738 115.942l8.346 4.147v131.302l-5.555 4.506c-13.005 10.522-20.48 26.112-20.48 42.752v129.152c0 62.387 50.765 113.152 113.178 113.152h27.827c62.413 0 113.178-50.765 113.178-113.152v-129.178c0.026-16.666-7.424-32.256-20.429-42.752zM973.952 451.712l-15.846-25.574c37.043-22.989 70.989-47.053 100.864-71.629 13.773-11.264 21.658-27.981 21.453-45.978v-88.55h30.080v88.448c0.23 27.008-11.648 52.25-32.512 69.376-30.822 25.344-65.843 50.202-104.038 73.907zM800.026 259.635l-11.981 202.189c-5.76-1.408-11.853-2.253-18.202-2.253-5.555 0-10.624 0.666-15.59 1.69l-12.57-201.062 29.568-19.174 28.774 18.611zM1338.035 372.608c-56.832 46.72-118.221 78.413-135.654 86.886v89.088c12.058 9.011 19.2 23.040 19.2 37.862v94.771c0 49.485-40.218 89.702-89.702 89.702h-20.454c-49.459 0-89.728-40.218-89.728-89.702v-94.746c0-15.13 7.117-29.133 19.277-37.939v-72.653h30.029v75.034c0 8.602-4.48 16.845-11.648 21.478-4.762 3.072-7.578 8.346-7.578 14.080v94.746c0 32.896 26.752 59.622 59.648 59.622h20.454c32.896 0 59.648-26.726 59.648-59.622v-94.746c0-5.581-2.918-10.931-7.45-14.003-7.245-4.634-11.75-12.902-11.75-21.555v-91.392c0-11.571 6.451-21.888 16.717-26.803 16.742-8.218 75.571-38.656 130.022-83.405 4.608-3.686 7.219-9.37 7.219-15.462v-64.87h30.054v64.87c0.026 15.206-6.707 29.44-18.304 38.758zM464.026 681.216v-94.746c0-5.76-2.842-11.034-7.501-14.029-7.245-4.685-11.75-12.902-11.75-21.53v-75.034h30.080v72.653c12.109 8.781 19.251 22.784 19.251 37.939v94.746c0 49.485-40.269 89.702-89.754 89.702h-20.429c-49.459 0-89.728-40.218-89.728-89.702v-94.746c0-14.694 7.014-28.57 19.251-37.837v-88.986c-17.459-8.602-78.874-40.294-135.552-86.938-11.725-9.421-18.432-23.654-18.432-38.886v-64.87h30.054v64.87c0 6.093 2.662 11.802 7.347 15.565 54.374 44.646 113.178 75.085 129.766 83.2 10.419 5.018 16.87 15.36 16.87 26.906v91.392c0 8.653-4.506 16.922-11.366 21.299-4.915 3.354-7.859 8.678-7.859 14.285v94.746c0 32.896 26.752 59.622 59.674 59.622h20.429c32.896 0 59.648-26.752 59.648-59.622zM933.018 17.485h75.187v-30.054h-75.187v30.054zM532.173 17.485h335.718v-30.054h-335.718v30.054z" />
<glyph unicode="&#xe924;" glyph-name="tiled-post" horiz-adv-x="1536" d="M1102.31 709.069l105.139-105.242 18.099 18.099-53.069 53.12 92.186 94.95 114.534-101.478 16.998 19.149-128.333 113.69-3.712-4.198-4.506 4.403-105.242-108.416-46.336 46.387-4.019-4.019-4.403 5.069-178.611-154.24 16.768-19.379zM957.21 786.125c0-31.232 25.421-56.627 56.653-56.627s56.627 25.395 56.627 56.627-25.395 56.627-56.627 56.627-56.653-25.395-56.653-56.627zM1013.862 817.178c17.101 0 31.027-13.926 31.027-31.027s-13.926-31.027-31.027-31.027c-17.126 0-31.053 13.901-31.053 31.027s13.926 31.027 31.053 31.027zM1435.546 944h-425.446v-25.6h415.923v-420.429h-546.022v420.429h40.090v25.6h-49.69c-8.832 0-16-7.194-16-16.051v-439.552c0-8.832 7.168-16 16-16h565.146c8.883 0 16.077 7.194 16.077 16v439.552c0 8.858-7.194 16.051-16.077 16.051zM946.662 944h48.819v-25.6h-48.819v25.6zM779.29 939.827h-481.382v-25.6h475.546v-933.811h-643.123v933.811h37.581v25.6h-43.418c-10.88 0-19.763-8.883-19.763-19.789v-945.357c0-10.957 8.883-19.84 19.763-19.84h654.797c10.906 0 19.763 8.909 19.763 19.84v945.357c0.026 10.906-8.858 19.789-19.763 19.789zM225.075 939.827h41.523v-25.6h-41.523v25.6zM934.118 46.797l164.531 142.106 105.114-105.242 18.099 18.099-53.018 53.094 92.16 94.95 114.509-101.453 16.998 19.149-128.333 113.69-3.686-4.173-4.506 4.378-105.242-108.416-46.362 46.413-4.070-4.070-4.378 5.069-178.56-154.266zM953.523 265.933c0-31.206 25.421-56.602 56.678-56.602 31.206 0 56.602 25.395 56.602 56.602 0 31.232-25.395 56.653-56.602 56.653-31.258 0-56.678-25.421-56.678-56.653zM1010.202 296.986c17.101 0 31.002-13.926 31.002-31.053 0-17.101-13.901-31.002-31.002-31.002-17.126 0-31.078 13.901-31.078 31.002 0 17.126 13.952 31.053 31.078 31.053zM1431.834 423.834h-425.446v-25.6h415.923v-420.454h-546.022v420.454h40.115v25.6h-49.69c-8.832 0-16.026-7.194-16.026-16.051v-439.578c0-8.832 7.194-16.026 16.026-16.026h565.12c8.883 0 16.077 7.194 16.077 16.026v439.578c0 8.858-7.194 16.051-16.077 16.051zM943.002 423.834h48.819v-25.6h-48.819v25.6zM393.498 443.264l104.269-104.346 18.099 18.099-52.557 52.582 91.29 94.106 113.536-100.659 16.973 19.149-127.283 112.845-3.763-4.224-4.557 4.429-104.294-107.52-45.952 45.978-4.045-4.019-4.403 5.094-177.254-153.114 16.717-19.354zM249.421 549.376c0-31.053 25.242-56.32 56.269-56.32 31.053 0 56.294 25.267 56.294 56.32s-25.242 56.32-56.294 56.32c-31.027 0-56.269-25.267-56.269-56.32zM305.69 580.096c16.922 0 30.694-13.773 30.694-30.72s-13.773-30.72-30.694-30.72c-16.922 0-30.669 13.773-30.669 30.72s13.747 30.72 30.669 30.72z" />
<glyph unicode="&#xe925;" horiz-adv-x="1317" d="M1280.41 938.086h-43.037v-29.257h35.313v-485.2h-378.178v404.714h-29.257v-841.348h-782.16v921.834h782.16v-56.086h29.257v56.086h301.729v29.257h-1120.812c-11.908 0-21.592-9.684-21.592-21.563v-937.223c0-11.878 9.684-21.563 21.592-21.563h1204.985c11.878 0 21.533 9.684 21.533 21.563v937.223c0 11.878-9.655 21.563-21.533 21.563zM894.508-13.005v407.376h378.178v-407.376h-378.178z" />
<glyph unicode="&#xe926;" horiz-adv-x="1317" d="M0 960h1316.571v-1024h-1316.571v1024z" />
<glyph unicode="&#xe927;" horiz-adv-x="1317" d="M1276.401 938.086h-43.037v-29.257h35.313v-455.943h-290.406v455.943h213.957v29.257h-1120.812c-11.908 0-21.592-9.684-21.592-21.563v-937.223c0-11.878 9.684-21.563 21.592-21.563h1204.985c11.878 0 21.533 9.684 21.533 21.563v937.223c0 11.878-9.655 21.563-21.533 21.563zM79.082 908.829h548.103v-56.086h29.257v56.086h292.571v-455.943h-292.571v375.457h-29.257v-841.348h-548.103v921.834zM656.472 423.629h292.571v-436.634h-292.571v436.634zM978.3-13.005v436.634h290.406v-436.634h-290.406z" />
<glyph unicode="&#xe928;" horiz-adv-x="1317" d="M0 960h1316.571v-1024h-1316.571v1024z" />
<glyph unicode="&#xe929;" horiz-adv-x="1317" d="M1276.401 938.086h-43.037v-29.257h35.313v-368.172h-582.949v287.685h-29.257v-287.685h-577.39v368.172h577.36v-56.086h29.257v56.086h506.529v29.257h-1120.812c-11.908 0-21.592-9.684-21.592-21.563v-937.223c0-11.878 9.684-21.563 21.592-21.563h1204.985c11.878 0 21.533 9.684 21.533 21.563v937.223c0 11.878-9.655 21.563-21.533 21.563zM868.586 511.4v-524.405h-380.343v524.405h380.343zM79.082 511.4h379.875v-524.405h-379.875v524.405zM897.843-13.005v524.405h370.864v-524.405h-370.864z" />
<glyph unicode="&#xe92a;" glyph-name="showcase" horiz-adv-x="1536" d="M791.654 259.302l170.266 166.502 108.749-123.315 19.2 16.973-57.626 65.306 0.896-0.768 97.126 113.331 118.426-118.835 18.15 18.048-132.992 133.478-3.994-3.994-5.043 4.275-108.851-127.053-47.872 54.246-4.326-3.814-4.864 4.992-185.139-181.069zM811.981 514.33c0-35.405 26.138-64.23 58.24-64.23s58.24 28.8 58.24 64.23c0 35.43-26.138 64.282-58.24 64.282s-58.24-28.826-58.24-64.282zM870.221 553.011c17.997 0 32.64-17.357 32.64-38.682 0-21.299-14.643-38.63-32.64-38.63s-32.64 17.331-32.64 38.63c0 21.325 14.643 38.682 32.64 38.682zM773.018 671.821v25.6h-51.507c-8.909 0-16.154-7.45-16.154-16.589v-515.968c0-9.139 7.245-16.589 16.154-16.589h585.882c8.934 0 16.179 7.45 16.179 16.589v515.942c0 9.139-7.245 16.589-16.179 16.589h-441.062v-25.6h431.642v-497.971h-567.014v497.997h42.061zM800.563 697.421h50.637v-25.6h-50.637v25.6zM1482.803 972.8h-1473.434c-11.546 0-20.915-9.856-20.915-21.939v-1005.67c0-12.134 9.395-21.965 20.915-21.965h1272.909v25.6h-1268.25v998.4h1464.013v-998.4h-45.414v-25.6h50.176c11.494 0 20.838 9.856 20.838 21.965v1005.67c0 12.083-9.344 21.939-20.838 21.939zM1318.554-51.2h47.949v-25.6h-47.949v25.6zM186.547 676.685h361.088v-25.6h-361.088v25.6zM186.547 441.677h88.038v-25.6h-88.038v25.6zM296.986 441.677h250.675v-25.6h-250.675v25.6zM186.547 219.597h361.088v-25.6h-361.088v25.6z" />
<glyph unicode="&#xe92b;" glyph-name="tabs" horiz-adv-x="1536" d="M546.227 244.122l141.517 123.264 90.394-89.754 20.352 20.454-44.442 44.134 76.058 79.155 98.509-86.502 19.072 21.709-112.922 99.149-5.35-6.093-6.349 6.067-89.523-93.133-38.502 38.17-5.76-5.786-5.99 6.835-155.981-135.936zM609.946 386.15h0.256c14.157 0.051 27.392 5.581 37.325 15.616 9.933 9.984 15.36 23.296 15.309 37.427-0.102 29.056-23.834 52.659-53.12 52.659-29.107-0.154-52.736-23.962-52.634-53.12 0.154-28.954 23.834-52.582 52.864-52.582zM609.971 463.002c13.184 0 23.962-10.752 24.013-23.91 0.026-6.451-2.458-12.467-6.938-16.998-4.48-4.582-10.522-7.066-16.973-7.091l-0.102-14.413v14.413c-13.184 0-23.91 10.701-23.987 23.834-0.077 13.261 10.675 24.115 23.987 24.166zM527.155 580.25l-43.75-0.205c-9.395-0.179-17.024-7.936-17.024-17.357l1.741-385.306c0-9.523 7.731-17.254 17.331-17.254l495.437 2.202c9.523 0 17.254 7.782 17.254 17.357l-1.715 385.306c0 9.549-7.757 17.28-17.357 17.28l-373.018-1.664 0.102-28.877 361.472 1.638 1.613-362.189-472.32-2.15-1.638 362.24 32 0.128-0.128 28.851zM550.528 580.403h42.803v-28.851h-42.803v28.851zM1366.63 791.885h-143.898v97.843c0 9.728-7.91 17.613-17.613 17.613h-292.864c-1.408 0-2.56-0.486-3.84-0.794-1.28 0.307-2.483 0.794-3.866 0.794h-281.754v27.469c0 9.728-7.91 17.613-17.638 17.613h-350.541c-9.677 0-17.613-7.91-17.613-17.613v-142.925h-75.725c-11.776 0-21.35-9.549-21.35-21.299v-793.242c0-11.725 9.574-21.325 21.35-21.325h105.984v28.877h-98.509v778.138h1190.4v-778.163h-899.968v-28.877h907.443c11.776 0 21.376 9.6 21.376 21.325v793.267c0 11.75-9.6 21.299-21.376 21.299zM1193.907 878.464v-86.605h-270.362v86.605h270.362zM893.338 878.464v-86.605h-270.362v86.605h270.362zM265.882 923.571h328.038v-131.686h-328.038v131.686zM310.477-15.13h117.606v-28.877h-117.606v28.877z" />
<glyph unicode="&#xe92c;" glyph-name="layout-6" horiz-adv-x="1536" d="M1516.467 868.224h-37.658v-25.6h30.899v-381.261h-416.358v381.261h349.466v25.6h-1426.048c-10.419 0-18.893-8.474-18.893-18.867v-820.045c0-10.394 8.474-18.842 18.893-18.842h1499.699c10.394 0 18.842 8.448 18.842 18.842v820.045c0.026 10.394-8.422 18.867-18.842 18.867zM23.475 36.045v398.131h455.475v-396.826h25.6v732.8h-25.6v-310.374h-455.475v382.848h455.475v-46.874h25.6v46.874h563.2v-805.274h25.6v398.413h416.384v-399.718h-1486.259z" />
<glyph unicode="&#xe92d;" glyph-name="timeline" horiz-adv-x="1536" d="M684.595 731.648l-1.152 13.952h-211.942l-13.952-1.152v-167.706l1.152-13.926h211.942l13.952 1.126v167.706zM658.995 588.416h-175.846v131.584h175.846v-131.584zM457.549 462.848v-167.706l1.152-13.926h211.942l13.952 1.126v167.706l-1.152 13.952h-211.942l-13.952-1.152zM483.149 438.4h175.846v-131.584h-175.846v131.584zM1068.595 578.048l-1.152 13.952h-211.942l-13.952-1.152v-167.706l1.152-13.926h211.942l13.952 1.126v167.706zM1042.995 434.816h-175.846v131.584h175.846v-131.584zM841.549 309.248v-167.706l1.152-13.926h211.942l13.952 1.126v167.706l-1.152 13.952h-211.942l-13.952-1.152zM867.149 284.8h175.846v-131.584h-175.846v131.584zM1224.192 868.224h-37.632v-25.6h30.899v-806.579h-887.296v806.579h820.403v25.6h-827.11c-10.419 0-18.893-8.474-18.893-18.867v-820.045c0-10.394 8.474-18.842 18.893-18.842h900.736c10.394 0 18.842 8.448 18.842 18.842v820.045c0.026 10.394-8.422 18.867-18.842 18.867zM749.824 711.501h25.6v-66.048h-25.6v66.048zM749.824 628.659h25.6v-487.859h-25.6v487.859z" />
<glyph unicode="&#xe92e;" glyph-name="card-slider" horiz-adv-x="1536" d="M432.435 876.8h161.946v-29.005h-161.946v29.005zM498.176 403.098l19.686 22.042-115.149 102.246-5.581-6.298-6.451 6.323-92.211-95.053-39.296 39.347-5.965-5.99-6.118 7.066-160.41-138.624 19.302-22.349 145.536 125.67 92.262-92.339 20.941 20.838-45.389 45.466 78.362 80.742zM172.211 565.376c-29.875 0-54.144-24.32-54.144-54.17s24.269-54.17 54.144-54.17c29.824 0 54.144 24.32 54.144 54.17s-24.32 54.17-54.144 54.17zM172.211 486.63c-13.594 0-24.602 10.982-24.602 24.576 0.026 13.594 11.008 24.576 24.602 24.576 13.542 0 24.576-11.008 24.576-24.576 0-13.594-11.059-24.576-24.576-24.576zM568.755 208.23v501.35c0 9.779-7.936 17.69-17.664 17.69h-319.104v115.2h140.954v29.005h-145.869c-13.261 0-24.064-10.778-24.064-23.987v-120.192h-34.227v-29.542h370.381v-477.645h-483.968v477.645h32.742v29.542h-44.672c-9.728-0.051-17.664-7.91-17.664-17.715v-501.35c0-9.677 7.936-17.664 17.664-17.664h507.802c9.779-0.026 17.69 7.987 17.69 17.664zM111.821 727.245h43.878v-29.517h-43.878v29.517zM1451.546 871.475h-814.387v-29.005h809.446v-776.038h-1214.618v119.885h-29.005v-124.877c0-13.21 10.803-23.962 24.064-23.962h1224.499c13.312 0 24.038 10.752 24.038 23.962v786.048c0.077 13.235-10.726 23.987-24.038 23.987zM712.704 524.8h594.278v-29.005h-594.278v29.005zM712.704 425.958h318.848v-28.979h-318.848v28.979z" />
<glyph unicode="&#xe92f;" glyph-name="content-reveal" horiz-adv-x="1536" d="M1023.898 216.013h-24.115c-7.066 0-12.8-5.709-12.8-12.8 0-7.040 5.734-12.8 12.8-12.8h24.115c7.066 0 12.8 5.76 12.8 12.8 0 7.117-5.734 12.8-12.8 12.8zM1019.315 661.402h-468.89c-7.066 0-12.8-5.734-12.8-12.8s5.734-12.8 12.8-12.8h468.89c7.066 0 12.8 5.734 12.8 12.8s-5.709 12.8-12.8 12.8zM1136.896 773.734h-706.586c-9.293 0-16.87-7.578-16.87-16.87v-549.53c0-9.293 7.578-16.896 16.87-16.896h533.094c7.066 0 12.8 5.76 12.8 12.8 0 7.091-5.734 12.8-12.8 12.8h-524.39v532.096h689.126v-532.122h-70.989c-7.066 0-12.8-5.709-12.8-12.8 0-7.040 5.734-12.8 12.8-12.8h79.744c9.293 0 16.845 7.603 16.845 16.896v549.555c0 9.293-7.552 16.87-16.845 16.87zM550.426 543.821h41.856c7.066 0 12.8 5.76 12.8 12.8 0 7.091-5.734 12.8-12.8 12.8h-41.856c-7.066 0-12.8-5.709-12.8-12.8 0-7.040 5.734-12.8 12.8-12.8zM1019.315 569.421h-381.184c-7.066 0-12.8-5.709-12.8-12.8 0-7.040 5.734-12.8 12.8-12.8h381.184c7.066 0 12.8 5.76 12.8 12.8 0 7.117-5.709 12.8-12.8 12.8zM571.75 304.179h423.142c13.67 0 24.806 11.162 24.806 24.858v114.202c0 13.696-11.136 24.806-24.806 24.806h-423.142c-13.67 0-24.806-11.11-24.806-24.806v-114.202c0-13.722 11.136-24.858 24.806-24.858zM994.099 443.213v-113.459l-421.555-0.742-0.794 113.408 422.349 0.794zM645.862 350.413c1.997-1.997 4.659-3.098 7.475-3.098 0 0 0.026-0.051 0.026-0.051 2.842 0 5.478 1.152 7.501 3.149l22.554 22.554c2.509 2.509 2.509 6.554 0 9.062s-6.554 2.509-9.062 0l-20.992-20.992-21.043 20.992c-2.509 2.509-6.554 2.509-9.062 0s-2.509-6.554 0-9.062l22.605-22.554zM645.862 382.822c1.997-1.997 4.659-3.098 7.475-3.098 0 0 0.026-0.051 0.026-0.051 2.842 0 5.478 1.152 7.501 3.149l22.554 22.554c2.509 2.509 2.509 6.554 0 9.062s-6.554 2.509-9.062 0l-20.992-20.992-21.043 20.992c-2.509 2.509-6.554 2.509-9.062 0s-2.509-6.554 0-9.062l22.605-22.554zM898.918 373.325h30.874c7.066 0 12.8 5.709 12.8 12.8 0 7.040-5.734 12.8-12.8 12.8h-30.874c-7.066 0-12.8-5.76-12.8-12.8 0-7.091 5.734-12.8 12.8-12.8zM743.322 373.325h122.65c7.066 0 12.8 5.709 12.8 12.8 0 7.040-5.734 12.8-12.8 12.8h-122.65c-7.066 0-12.8-5.76-12.8-12.8 0-7.091 5.734-12.8 12.8-12.8z" />
<glyph unicode="&#xe930;" glyph-name="Breadcrumbs" horiz-adv-x="1536" d="M1246.157 707.917h-206.208c-7.066 0-12.8-5.734-12.8-12.8s5.734-12.8 12.8-12.8h202.752v-514.406h-949.376v514.406h587.725c7.066 0 12.8 5.734 12.8 12.8s-5.734 12.8-12.8 12.8h-591.027c-12.288 0-22.298-9.984-22.298-22.246v-521.165c0-12.262 10.010-22.195 22.298-22.195h956.134c12.237 0 22.144 9.958 22.144 22.195v521.165c0 12.262-9.933 22.246-22.144 22.246zM948.096 682.317h33.587c7.066 0 12.8 5.734 12.8 12.8s-5.734 12.8-12.8 12.8h-33.587c-7.066 0-12.8-5.734-12.8-12.8s5.734-12.8 12.8-12.8zM832.179 271.488c2.509-2.509 5.786-3.738 9.062-3.738s6.554 1.254 9.062 3.738l143.693 143.642c2.406 2.406 3.738 5.658 3.738 9.062s-1.357 6.656-3.738 9.062l-143.693 143.642c-4.992 4.992-13.107 4.992-18.099 0s-4.992-13.107 0-18.099l134.656-134.579-134.656-134.605c-5.018-5.018-5.018-13.107-0.026-18.125zM556.109 271.488c2.509-2.509 5.786-3.738 9.062-3.738s6.554 1.254 9.062 3.738l143.616 143.642c4.992 4.992 4.992 13.107 0 18.099l-143.616 143.642c-4.992 4.992-13.107 4.992-18.099 0s-4.992-13.107 0-18.099l134.579-134.579-134.579-134.605c-5.043-4.992-5.043-13.082-0.026-18.099z" />
</font>
</defs>
</svg>
